<ttFont>
    <TTGlyph name="A" xMin="-47" yMin="0" xMax="554" yMax="635">
      <contour>
        <pt x="554" y="0" on="1"/>
        <pt x="320" y="0" on="1"/>
        <pt x="306" y="159" on="1"/>
        <pt x="121" y="159" on="1"/>
        <pt x="50" y="0" on="1"/>
        <pt x="-47" y="0" on="1"/>
        <pt x="248" y="635" on="1"/>
        <pt x="485" y="635" on="1"/>
      </contour>
      <contour>
        <pt x="154" y="232" on="1"/>
        <pt x="299" y="232" on="1"/>
        <pt x="276" y="504" on="1"/>
      </contour>
    </TTGlyph>
    <TTGlyph name="AE" xMin="-61" yMin="0" xMax="867" yMax="635">
      <contour>
        <pt x="851" y="559" on="1"/>
        <pt x="647" y="559" on="1"/>
        <pt x="604" y="361" on="1"/>
        <pt x="776" y="361" on="1"/>
        <pt x="760" y="286" on="1"/>
        <pt x="588" y="286" on="1"/>
        <pt x="543" y="77" on="1"/>
        <pt x="747" y="77" on="1"/>
        <pt x="732" y="0" on="1"/>
        <pt x="310" y="0" on="1"/>
        <pt x="352" y="199" on="1"/>
        <pt x="178" y="199" on="1"/>
        <pt x="33" y="0" on="1"/>
        <pt x="-61" y="0" on="1"/>
        <pt x="415" y="635" on="1"/>
        <pt x="867" y="635" on="1"/>
      </contour>
      <contour>
        <pt x="368" y="272" on="1"/>
        <pt x="424" y="536" on="1"/>
        <pt x="232" y="272" on="1"/>
      </contour>
    </TTGlyph>
    <TTGlyph name="AEacute" xMin="-61" yMin="0" xMax="867" yMax="839">
      <contour>
        <pt x="851" y="559" on="1"/>
        <pt x="647" y="559" on="1"/>
        <pt x="604" y="361" on="1"/>
        <pt x="776" y="361" on="1"/>
        <pt x="760" y="286" on="1"/>
        <pt x="588" y="286" on="1"/>
        <pt x="543" y="77" on="1"/>
        <pt x="747" y="77" on="1"/>
        <pt x="732" y="0" on="1"/>
        <pt x="310" y="0" on="1"/>
        <pt x="352" y="199" on="1"/>
        <pt x="178" y="199" on="1"/>
        <pt x="33" y="0" on="1"/>
        <pt x="-61" y="0" on="1"/>
        <pt x="415" y="635" on="1"/>
        <pt x="867" y="635" on="1"/>
      </contour>
      <contour>
        <pt x="368" y="272" on="1"/>
        <pt x="424" y="536" on="1"/>
        <pt x="232" y="272" on="1"/>
      </contour>
      <contour>
        <pt x="574" y="693" on="1"/>
        <pt x="667" y="839" on="1"/>
        <pt x="839" y="839" on="1"/>
        <pt x="660" y="693" on="1"/>
      </contour>
    </TTGlyph>
    <TTGlyph name="Aacute" xMin="-47" yMin="0" xMax="580" yMax="839">
      <contour>
        <pt x="554" y="0" on="1"/>
        <pt x="320" y="0" on="1"/>
        <pt x="306" y="159" on="1"/>
        <pt x="121" y="159" on="1"/>
        <pt x="50" y="0" on="1"/>
        <pt x="-47" y="0" on="1"/>
        <pt x="248" y="635" on="1"/>
        <pt x="485" y="635" on="1"/>
      </contour>
      <contour>
        <pt x="154" y="232" on="1"/>
        <pt x="299" y="232" on="1"/>
        <pt x="276" y="504" on="1"/>
      </contour>
      <contour>
        <pt x="315" y="693" on="1"/>
        <pt x="408" y="839" on="1"/>
        <pt x="580" y="839" on="1"/>
        <pt x="401" y="693" on="1"/>
      </contour>
    </TTGlyph>
    <TTGlyph name="Abreve" xMin="-47" yMin="0" xMax="574" yMax="854">
      <contour>
        <pt x="554" y="0" on="1"/>
        <pt x="320" y="0" on="1"/>
        <pt x="306" y="159" on="1"/>
        <pt x="121" y="159" on="1"/>
        <pt x="50" y="0" on="1"/>
        <pt x="-47" y="0" on="1"/>
        <pt x="248" y="635" on="1"/>
        <pt x="485" y="635" on="1"/>
      </contour>
      <contour>
        <pt x="154" y="232" on="1"/>
        <pt x="299" y="232" on="1"/>
        <pt x="276" y="504" on="1"/>
      </contour>
      <contour>
        <pt x="383" y="693" on="1"/>
        <pt x="324" y="693" on="0"/>
        <pt x="254" y="752" on="0"/>
        <pt x="244" y="818" on="1"/>
        <pt x="295" y="839" on="1"/>
        <pt x="301" y="819" on="0"/>
        <pt x="323" y="794" on="0"/>
        <pt x="350" y="780" on="0"/>
        <pt x="379" y="775" on="0"/>
        <pt x="391" y="775" on="1"/>
        <pt x="433" y="775" on="0"/>
        <pt x="510" y="819" on="0"/>
        <pt x="536" y="854" on="1"/>
        <pt x="574" y="820" on="1"/>
        <pt x="536" y="751" on="0"/>
        <pt x="440" y="693" on="0"/>
      </contour>
    </TTGlyph>
    <TTGlyph name="Acircumflex" xMin="-47" yMin="0" xMax="554" yMax="839">
      <contour>
        <pt x="554" y="0" on="1"/>
        <pt x="320" y="0" on="1"/>
        <pt x="306" y="159" on="1"/>
        <pt x="121" y="159" on="1"/>
        <pt x="50" y="0" on="1"/>
        <pt x="-47" y="0" on="1"/>
        <pt x="248" y="635" on="1"/>
        <pt x="485" y="635" on="1"/>
      </contour>
      <contour>
        <pt x="154" y="232" on="1"/>
        <pt x="299" y="232" on="1"/>
        <pt x="276" y="504" on="1"/>
      </contour>
      <contour>
        <pt x="175" y="693" on="1"/>
        <pt x="321" y="839" on="1"/>
        <pt x="470" y="839" on="1"/>
        <pt x="553" y="693" on="1"/>
        <pt x="477" y="693" on="1"/>
        <pt x="394" y="786" on="1"/>
        <pt x="261" y="693" on="1"/>
      </contour>
    </TTGlyph>
    <TTGlyph name="Adieresis" xMin="-47" yMin="0" xMax="554" yMax="835">
      <contour>
        <pt x="554" y="0" on="1"/>
        <pt x="320" y="0" on="1"/>
        <pt x="306" y="159" on="1"/>
        <pt x="121" y="159" on="1"/>
        <pt x="50" y="0" on="1"/>
        <pt x="-47" y="0" on="1"/>
        <pt x="248" y="635" on="1"/>
        <pt x="485" y="635" on="1"/>
      </contour>
      <contour>
        <pt x="154" y="232" on="1"/>
        <pt x="299" y="232" on="1"/>
        <pt x="276" y="504" on="1"/>
      </contour>
      <contour>
        <pt x="269" y="835" on="1"/>
        <pt x="305" y="835" on="0"/>
        <pt x="339" y="794" on="0"/>
        <pt x="339" y="765" on="1"/>
        <pt x="339" y="733" on="0"/>
        <pt x="298" y="682" on="0"/>
        <pt x="258" y="682" on="1"/>
        <pt x="221" y="682" on="0"/>
        <pt x="187" y="723" on="0"/>
        <pt x="187" y="752" on="1"/>
        <pt x="187" y="784" on="0"/>
        <pt x="229" y="835" on="0"/>
      </contour>
      <contour>
        <pt x="481" y="835" on="1"/>
        <pt x="518" y="835" on="0"/>
        <pt x="552" y="794" on="0"/>
        <pt x="552" y="765" on="1"/>
        <pt x="552" y="733" on="0"/>
        <pt x="510" y="682" on="0"/>
        <pt x="470" y="682" on="1"/>
        <pt x="433" y="682" on="0"/>
        <pt x="399" y="723" on="0"/>
        <pt x="399" y="752" on="1"/>
        <pt x="399" y="784" on="0"/>
        <pt x="441" y="835" on="0"/>
      </contour>
    </TTGlyph>
    <TTGlyph name="Agrave" xMin="-47" yMin="0" xMax="554" yMax="839">
      <contour>
        <pt x="554" y="0" on="1"/>
        <pt x="320" y="0" on="1"/>
        <pt x="306" y="159" on="1"/>
        <pt x="121" y="159" on="1"/>
        <pt x="50" y="0" on="1"/>
        <pt x="-47" y="0" on="1"/>
        <pt x="248" y="635" on="1"/>
        <pt x="485" y="635" on="1"/>
      </contour>
      <contour>
        <pt x="154" y="232" on="1"/>
        <pt x="299" y="232" on="1"/>
        <pt x="276" y="504" on="1"/>
      </contour>
      <contour>
        <pt x="144" y="839" on="1"/>
        <pt x="317" y="839" on="1"/>
        <pt x="422" y="693" on="1"/>
        <pt x="329" y="693" on="1"/>
      </contour>
    </TTGlyph>
    <TTGlyph name="Amacron" xMin="-47" yMin="0" xMax="583" yMax="807">
      <contour>
        <pt x="554" y="0" on="1"/>
        <pt x="320" y="0" on="1"/>
        <pt x="306" y="159" on="1"/>
        <pt x="121" y="159" on="1"/>
        <pt x="50" y="0" on="1"/>
        <pt x="-47" y="0" on="1"/>
        <pt x="248" y="635" on="1"/>
        <pt x="485" y="635" on="1"/>
      </contour>
      <contour>
        <pt x="154" y="232" on="1"/>
        <pt x="299" y="232" on="1"/>
        <pt x="276" y="504" on="1"/>
      </contour>
      <contour>
        <pt x="228" y="807" on="1"/>
        <pt x="583" y="807" on="1"/>
        <pt x="565" y="730" on="1"/>
        <pt x="209" y="730" on="1"/>
      </contour>
    </TTGlyph>
    <TTGlyph name="Aogonek" xMin="-47" yMin="-204" xMax="554" yMax="635">
      <contour>
        <pt x="554" y="0" on="1"/>
        <pt x="511" y="0" on="1"/>
        <pt x="497" y="-9" on="0"/>
        <pt x="470" y="-30" on="0"/>
        <pt x="447" y="-55" on="0"/>
        <pt x="433" y="-84" on="0"/>
        <pt x="433" y="-100" on="1"/>
        <pt x="433" y="-120" on="0"/>
        <pt x="451" y="-138" on="0"/>
        <pt x="464" y="-138" on="1"/>
        <pt x="473" y="-138" on="0"/>
        <pt x="498" y="-127" on="0"/>
        <pt x="516" y="-112" on="1"/>
        <pt x="539" y="-154" on="1"/>
        <pt x="509" y="-179" on="0"/>
        <pt x="429" y="-204" on="0"/>
        <pt x="391" y="-204" on="1"/>
        <pt x="305" y="-204" on="0"/>
        <pt x="305" y="-130" on="1"/>
        <pt x="305" y="-105" on="0"/>
        <pt x="325" y="-64" on="0"/>
        <pt x="357" y="-32" on="0"/>
        <pt x="396" y="-8" on="0"/>
        <pt x="416" y="0" on="1"/>
        <pt x="320" y="0" on="1"/>
        <pt x="306" y="159" on="1"/>
        <pt x="121" y="159" on="1"/>
        <pt x="50" y="0" on="1"/>
        <pt x="-47" y="0" on="1"/>
        <pt x="248" y="635" on="1"/>
        <pt x="485" y="635" on="1"/>
      </contour>
      <contour>
        <pt x="154" y="232" on="1"/>
        <pt x="299" y="232" on="1"/>
        <pt x="276" y="504" on="1"/>
      </contour>
    </TTGlyph>
    <TTGlyph name="Aring" xMin="-47" yMin="0" xMax="554" yMax="855">
      <contour>
        <pt x="554" y="0" on="1"/>
        <pt x="320" y="0" on="1"/>
        <pt x="306" y="159" on="1"/>
        <pt x="121" y="159" on="1"/>
        <pt x="50" y="0" on="1"/>
        <pt x="-47" y="0" on="1"/>
        <pt x="248" y="635" on="1"/>
        <pt x="485" y="635" on="1"/>
      </contour>
      <contour>
        <pt x="154" y="232" on="1"/>
        <pt x="299" y="232" on="1"/>
        <pt x="276" y="504" on="1"/>
      </contour>
      <contour>
        <pt x="466" y="775" on="1"/>
        <pt x="466" y="755" on="0"/>
        <pt x="449" y="721" on="0"/>
        <pt x="422" y="696" on="0"/>
        <pt x="386" y="682" on="0"/>
        <pt x="367" y="682" on="1"/>
        <pt x="331" y="682" on="0"/>
        <pt x="283" y="726" on="0"/>
        <pt x="283" y="763" on="1"/>
        <pt x="283" y="783" on="0"/>
        <pt x="299" y="817" on="0"/>
        <pt x="327" y="841" on="0"/>
        <pt x="362" y="855" on="0"/>
        <pt x="382" y="855" on="1"/>
        <pt x="418" y="855" on="0"/>
        <pt x="466" y="810" on="0"/>
      </contour>
      <contour>
        <pt x="408" y="771" on="1"/>
        <pt x="408" y="784" on="0"/>
        <pt x="390" y="799" on="0"/>
        <pt x="377" y="799" on="1"/>
        <pt x="363" y="799" on="0"/>
        <pt x="340" y="781" on="0"/>
        <pt x="340" y="766" on="1"/>
        <pt x="340" y="753" on="0"/>
        <pt x="358" y="736" on="0"/>
        <pt x="371" y="736" on="1"/>
        <pt x="385" y="736" on="0"/>
        <pt x="408" y="756" on="0"/>
      </contour>
    </TTGlyph>
    <TTGlyph name="Aringacute" xMin="-47" yMin="0" xMax="575" yMax="976">
      <contour>
        <pt x="554" y="0" on="1"/>
        <pt x="319" y="0" on="1"/>
        <pt x="305" y="159" on="1"/>
        <pt x="122" y="159" on="1"/>
        <pt x="50" y="0" on="1"/>
        <pt x="-47" y="0" on="1"/>
        <pt x="248" y="625" on="1"/>
        <pt x="484" y="625" on="1"/>
      </contour>
      <contour>
        <pt x="474" y="734" on="1"/>
        <pt x="474" y="713" on="0"/>
        <pt x="457" y="679" on="0"/>
        <pt x="430" y="654" on="0"/>
        <pt x="393" y="640" on="0"/>
        <pt x="374" y="640" on="1"/>
        <pt x="339" y="640" on="0"/>
        <pt x="290" y="685" on="0"/>
        <pt x="290" y="721" on="1"/>
        <pt x="290" y="762" on="0"/>
        <pt x="350" y="814" on="0"/>
        <pt x="390" y="814" on="1"/>
        <pt x="425" y="814" on="0"/>
        <pt x="474" y="769" on="0"/>
      </contour>
      <contour>
        <pt x="156" y="232" on="1"/>
        <pt x="298" y="232" on="1"/>
        <pt x="275" y="493" on="1"/>
      </contour>
      <contour>
        <pt x="363" y="831" on="1"/>
        <pt x="454" y="976" on="1"/>
        <pt x="575" y="976" on="1"/>
        <pt x="441" y="831" on="1"/>
      </contour>
      <contour>
        <pt x="415" y="730" on="1"/>
        <pt x="415" y="743" on="0"/>
        <pt x="397" y="758" on="0"/>
        <pt x="385" y="758" on="1"/>
        <pt x="371" y="758" on="0"/>
        <pt x="348" y="739" on="0"/>
        <pt x="348" y="724" on="1"/>
        <pt x="348" y="712" on="0"/>
        <pt x="365" y="695" on="0"/>
        <pt x="378" y="695" on="1"/>
        <pt x="392" y="695" on="0"/>
        <pt x="415" y="715" on="0"/>
      </contour>
    </TTGlyph>
    <TTGlyph name="Atilde" xMin="-47" yMin="0" xMax="614" yMax="844">
      <contour>
        <pt x="554" y="0" on="1"/>
        <pt x="320" y="0" on="1"/>
        <pt x="306" y="159" on="1"/>
        <pt x="121" y="159" on="1"/>
        <pt x="50" y="0" on="1"/>
        <pt x="-47" y="0" on="1"/>
        <pt x="248" y="635" on="1"/>
        <pt x="485" y="635" on="1"/>
      </contour>
      <contour>
        <pt x="154" y="232" on="1"/>
        <pt x="299" y="232" on="1"/>
        <pt x="276" y="504" on="1"/>
      </contour>
      <contour>
        <pt x="614" y="819" on="1"/>
        <pt x="584" y="764" on="0"/>
        <pt x="524" y="710" on="0"/>
        <pt x="479" y="710" on="1"/>
        <pt x="461" y="710" on="0"/>
        <pt x="412" y="722" on="0"/>
        <pt x="361" y="735" on="0"/>
        <pt x="316" y="747" on="0"/>
        <pt x="302" y="747" on="1"/>
        <pt x="284" y="747" on="0"/>
        <pt x="246" y="723" on="0"/>
        <pt x="237" y="712" on="1"/>
        <pt x="204" y="741" on="1"/>
        <pt x="235" y="792" on="0"/>
        <pt x="298" y="844" on="0"/>
        <pt x="341" y="844" on="1"/>
        <pt x="357" y="844" on="0"/>
        <pt x="404" y="834" on="0"/>
        <pt x="453" y="821" on="0"/>
        <pt x="499" y="811" on="0"/>
        <pt x="514" y="811" on="1"/>
        <pt x="528" y="811" on="0"/>
        <pt x="567" y="830" on="0"/>
        <pt x="579" y="844" on="1"/>
      </contour>
    </TTGlyph>
    <TTGlyph name="B" xMin="0" yMin="0" xMax="613" yMax="635">
      <contour>
        <pt x="613" y="490" on="1"/>
        <pt x="613" y="461" on="0"/>
        <pt x="596" y="415" on="0"/>
        <pt x="566" y="379" on="0"/>
        <pt x="526" y="351" on="0"/>
        <pt x="502" y="339" on="1"/>
        <pt x="513" y="335" on="0"/>
        <pt x="543" y="318" on="0"/>
        <pt x="571" y="288" on="0"/>
        <pt x="590" y="241" on="0"/>
        <pt x="590" y="207" on="1"/>
        <pt x="590" y="162" on="0"/>
        <pt x="552" y="86" on="0"/>
        <pt x="477" y="31" on="0"/>
        <pt x="368" y="0" on="0"/>
        <pt x="297" y="0" on="1"/>
        <pt x="0" y="0" on="1"/>
        <pt x="135" y="635" on="1"/>
        <pt x="398" y="635" on="1"/>
        <pt x="437" y="635" on="0"/>
        <pt x="514" y="624" on="0"/>
        <pt x="575" y="592" on="0"/>
        <pt x="613" y="535" on="0"/>
      </contour>
      <contour>
        <pt x="341" y="369" on="1"/>
        <pt x="363" y="369" on="0"/>
        <pt x="394" y="395" on="0"/>
        <pt x="414" y="434" on="0"/>
        <pt x="424" y="479" on="0"/>
        <pt x="424" y="497" on="1"/>
        <pt x="424" y="526" on="0"/>
        <pt x="397" y="567" on="0"/>
        <pt x="368" y="567" on="1"/>
        <pt x="338" y="567" on="1"/>
        <pt x="295" y="369" on="1"/>
      </contour>
      <contour>
        <pt x="269" y="63" on="1"/>
        <pt x="299" y="63" on="0"/>
        <pt x="339" y="97" on="0"/>
        <pt x="365" y="147" on="0"/>
        <pt x="376" y="202" on="0"/>
        <pt x="376" y="223" on="1"/>
        <pt x="376" y="258" on="0"/>
        <pt x="347" y="299" on="0"/>
        <pt x="315" y="299" on="1"/>
        <pt x="278" y="299" on="1"/>
        <pt x="229" y="63" on="1"/>
      </contour>
    </TTGlyph>
    <TTGlyph name="C" xMin="34" yMin="-8" xMax="661" yMax="645">
      <contour>
        <pt x="564" y="54" on="1"/>
        <pt x="539" y="42" on="0"/>
        <pt x="486" y="19" on="0"/>
        <pt x="426" y="2" on="0"/>
        <pt x="355" y="-8" on="0"/>
        <pt x="313" y="-8" on="1"/>
        <pt x="179" y="-8" on="0"/>
        <pt x="34" y="112" on="0"/>
        <pt x="34" y="252" on="1"/>
        <pt x="34" y="333" on="0"/>
        <pt x="84" y="476" on="0"/>
        <pt x="182" y="583" on="0"/>
        <pt x="326" y="645" on="0"/>
        <pt x="419" y="645" on="1"/>
        <pt x="463" y="645" on="0"/>
        <pt x="536" y="633" on="0"/>
        <pt x="595" y="614" on="0"/>
        <pt x="642" y="592" on="0"/>
        <pt x="661" y="582" on="1"/>
        <pt x="625" y="396" on="1"/>
        <pt x="445" y="396" on="1"/>
        <pt x="446" y="406" on="0"/>
        <pt x="449" y="438" on="0"/>
        <pt x="451" y="471" on="0"/>
        <pt x="453" y="503" on="0"/>
        <pt x="453" y="514" on="1"/>
        <pt x="453" y="522" on="0"/>
        <pt x="451" y="543" on="0"/>
        <pt x="443" y="563" on="0"/>
        <pt x="426" y="576" on="0"/>
        <pt x="412" y="576" on="1"/>
        <pt x="386" y="576" on="0"/>
        <pt x="343" y="533" on="0"/>
        <pt x="309" y="462" on="0"/>
        <pt x="283" y="372" on="0"/>
        <pt x="266" y="279" on="0"/>
        <pt x="257" y="189" on="0"/>
        <pt x="257" y="155" on="1"/>
        <pt x="257" y="145" on="0"/>
        <pt x="259" y="115" on="0"/>
        <pt x="269" y="87" on="0"/>
        <pt x="290" y="67" on="0"/>
        <pt x="308" y="67" on="1"/>
        <pt x="339" y="67" on="0"/>
        <pt x="397" y="144" on="0"/>
        <pt x="419" y="243" on="1"/>
        <pt x="604" y="243" on="1"/>
      </contour>
    </TTGlyph>
    <TTGlyph name="Cacute" xMin="34" yMin="-8" xMax="661" yMax="839">
      <contour>
        <pt x="564" y="54" on="1"/>
        <pt x="539" y="42" on="0"/>
        <pt x="486" y="19" on="0"/>
        <pt x="426" y="2" on="0"/>
        <pt x="355" y="-8" on="0"/>
        <pt x="313" y="-8" on="1"/>
        <pt x="179" y="-8" on="0"/>
        <pt x="34" y="112" on="0"/>
        <pt x="34" y="252" on="1"/>
        <pt x="34" y="333" on="0"/>
        <pt x="84" y="476" on="0"/>
        <pt x="182" y="583" on="0"/>
        <pt x="326" y="645" on="0"/>
        <pt x="419" y="645" on="1"/>
        <pt x="463" y="645" on="0"/>
        <pt x="536" y="633" on="0"/>
        <pt x="595" y="614" on="0"/>
        <pt x="642" y="592" on="0"/>
        <pt x="661" y="582" on="1"/>
        <pt x="625" y="396" on="1"/>
        <pt x="445" y="396" on="1"/>
        <pt x="446" y="406" on="0"/>
        <pt x="449" y="438" on="0"/>
        <pt x="451" y="471" on="0"/>
        <pt x="453" y="503" on="0"/>
        <pt x="453" y="514" on="1"/>
        <pt x="453" y="522" on="0"/>
        <pt x="451" y="543" on="0"/>
        <pt x="443" y="563" on="0"/>
        <pt x="426" y="576" on="0"/>
        <pt x="412" y="576" on="1"/>
        <pt x="386" y="576" on="0"/>
        <pt x="343" y="533" on="0"/>
        <pt x="309" y="462" on="0"/>
        <pt x="283" y="372" on="0"/>
        <pt x="266" y="279" on="0"/>
        <pt x="257" y="189" on="0"/>
        <pt x="257" y="155" on="1"/>
        <pt x="257" y="145" on="0"/>
        <pt x="259" y="115" on="0"/>
        <pt x="269" y="87" on="0"/>
        <pt x="290" y="67" on="0"/>
        <pt x="308" y="67" on="1"/>
        <pt x="339" y="67" on="0"/>
        <pt x="397" y="144" on="0"/>
        <pt x="419" y="243" on="1"/>
        <pt x="604" y="243" on="1"/>
      </contour>
      <contour>
        <pt x="382" y="693" on="1"/>
        <pt x="475" y="839" on="1"/>
        <pt x="647" y="839" on="1"/>
        <pt x="468" y="693" on="1"/>
      </contour>
    </TTGlyph>
    <TTGlyph name="Ccaron" xMin="34" yMin="-8" xMax="661" yMax="839">
      <contour>
        <pt x="564" y="54" on="1"/>
        <pt x="539" y="42" on="0"/>
        <pt x="486" y="19" on="0"/>
        <pt x="426" y="2" on="0"/>
        <pt x="355" y="-8" on="0"/>
        <pt x="313" y="-8" on="1"/>
        <pt x="179" y="-8" on="0"/>
        <pt x="34" y="112" on="0"/>
        <pt x="34" y="252" on="1"/>
        <pt x="34" y="333" on="0"/>
        <pt x="84" y="476" on="0"/>
        <pt x="182" y="583" on="0"/>
        <pt x="326" y="645" on="0"/>
        <pt x="419" y="645" on="1"/>
        <pt x="463" y="645" on="0"/>
        <pt x="536" y="633" on="0"/>
        <pt x="595" y="614" on="0"/>
        <pt x="642" y="592" on="0"/>
        <pt x="661" y="582" on="1"/>
        <pt x="625" y="396" on="1"/>
        <pt x="445" y="396" on="1"/>
        <pt x="446" y="406" on="0"/>
        <pt x="449" y="438" on="0"/>
        <pt x="451" y="471" on="0"/>
        <pt x="453" y="503" on="0"/>
        <pt x="453" y="514" on="1"/>
        <pt x="453" y="522" on="0"/>
        <pt x="451" y="543" on="0"/>
        <pt x="443" y="563" on="0"/>
        <pt x="426" y="576" on="0"/>
        <pt x="412" y="576" on="1"/>
        <pt x="386" y="576" on="0"/>
        <pt x="343" y="533" on="0"/>
        <pt x="309" y="462" on="0"/>
        <pt x="283" y="372" on="0"/>
        <pt x="266" y="279" on="0"/>
        <pt x="257" y="189" on="0"/>
        <pt x="257" y="155" on="1"/>
        <pt x="257" y="145" on="0"/>
        <pt x="259" y="115" on="0"/>
        <pt x="269" y="87" on="0"/>
        <pt x="290" y="67" on="0"/>
        <pt x="308" y="67" on="1"/>
        <pt x="339" y="67" on="0"/>
        <pt x="397" y="144" on="0"/>
        <pt x="419" y="243" on="1"/>
        <pt x="604" y="243" on="1"/>
      </contour>
      <contour>
        <pt x="652" y="839" on="1"/>
        <pt x="506" y="693" on="1"/>
        <pt x="357" y="693" on="1"/>
        <pt x="274" y="839" on="1"/>
        <pt x="351" y="839" on="1"/>
        <pt x="434" y="747" on="1"/>
        <pt x="566" y="839" on="1"/>
      </contour>
    </TTGlyph>
    <TTGlyph name="Ccedilla" xMin="34" yMin="-214" xMax="661" yMax="645">
      <contour>
        <pt x="564" y="54" on="1"/>
        <pt x="517" y="31" on="0"/>
        <pt x="410" y="-5" on="0"/>
        <pt x="336" y="-7" on="1"/>
        <pt x="321" y="-68" on="1"/>
        <pt x="327" y="-66" on="0"/>
        <pt x="357" y="-54" on="0"/>
        <pt x="379" y="-54" on="1"/>
        <pt x="415" y="-54" on="0"/>
        <pt x="455" y="-87" on="0"/>
        <pt x="455" y="-117" on="1"/>
        <pt x="455" y="-143" on="0"/>
        <pt x="428" y="-180" on="0"/>
        <pt x="386" y="-203" on="0"/>
        <pt x="333" y="-214" on="0"/>
        <pt x="307" y="-214" on="1"/>
        <pt x="275" y="-214" on="0"/>
        <pt x="239" y="-197" on="0"/>
        <pt x="226" y="-184" on="1"/>
        <pt x="249" y="-154" on="1"/>
        <pt x="254" y="-161" on="0"/>
        <pt x="287" y="-173" on="0"/>
        <pt x="301" y="-173" on="1"/>
        <pt x="308" y="-173" on="0"/>
        <pt x="326" y="-169" on="0"/>
        <pt x="341" y="-158" on="0"/>
        <pt x="352" y="-140" on="0"/>
        <pt x="352" y="-126" on="1"/>
        <pt x="352" y="-113" on="0"/>
        <pt x="339" y="-100" on="0"/>
        <pt x="330" y="-100" on="1"/>
        <pt x="324" y="-100" on="0"/>
        <pt x="308" y="-108" on="0"/>
        <pt x="304" y="-119" on="1"/>
        <pt x="229" y="-119" on="1"/>
        <pt x="259" y="-5" on="1"/>
        <pt x="151" y="5" on="0"/>
        <pt x="34" y="126" on="0"/>
        <pt x="34" y="252" on="1"/>
        <pt x="34" y="333" on="0"/>
        <pt x="84" y="476" on="0"/>
        <pt x="182" y="583" on="0"/>
        <pt x="326" y="645" on="0"/>
        <pt x="419" y="645" on="1"/>
        <pt x="463" y="645" on="0"/>
        <pt x="536" y="633" on="0"/>
        <pt x="595" y="614" on="0"/>
        <pt x="642" y="592" on="0"/>
        <pt x="661" y="582" on="1"/>
        <pt x="625" y="396" on="1"/>
        <pt x="445" y="396" on="1"/>
        <pt x="446" y="406" on="0"/>
        <pt x="449" y="438" on="0"/>
        <pt x="451" y="471" on="0"/>
        <pt x="453" y="503" on="0"/>
        <pt x="453" y="514" on="1"/>
        <pt x="453" y="522" on="0"/>
        <pt x="451" y="543" on="0"/>
        <pt x="443" y="563" on="0"/>
        <pt x="426" y="576" on="0"/>
        <pt x="412" y="576" on="1"/>
        <pt x="386" y="576" on="0"/>
        <pt x="343" y="533" on="0"/>
        <pt x="309" y="462" on="0"/>
        <pt x="283" y="372" on="0"/>
        <pt x="266" y="279" on="0"/>
        <pt x="257" y="189" on="0"/>
        <pt x="257" y="155" on="1"/>
        <pt x="257" y="145" on="0"/>
        <pt x="259" y="115" on="0"/>
        <pt x="269" y="87" on="0"/>
        <pt x="290" y="67" on="0"/>
        <pt x="308" y="67" on="1"/>
        <pt x="339" y="67" on="0"/>
        <pt x="397" y="144" on="0"/>
        <pt x="419" y="243" on="1"/>
        <pt x="604" y="243" on="1"/>
      </contour>
    </TTGlyph>
    <TTGlyph name="Ccircumflex" xMin="34" yMin="-8" xMax="661" yMax="839">
      <contour>
        <pt x="564" y="54" on="1"/>
        <pt x="539" y="42" on="0"/>
        <pt x="486" y="19" on="0"/>
        <pt x="426" y="2" on="0"/>
        <pt x="355" y="-8" on="0"/>
        <pt x="313" y="-8" on="1"/>
        <pt x="179" y="-8" on="0"/>
        <pt x="34" y="112" on="0"/>
        <pt x="34" y="252" on="1"/>
        <pt x="34" y="333" on="0"/>
        <pt x="84" y="476" on="0"/>
        <pt x="182" y="583" on="0"/>
        <pt x="326" y="645" on="0"/>
        <pt x="419" y="645" on="1"/>
        <pt x="463" y="645" on="0"/>
        <pt x="536" y="633" on="0"/>
        <pt x="595" y="614" on="0"/>
        <pt x="642" y="592" on="0"/>
        <pt x="661" y="582" on="1"/>
        <pt x="625" y="396" on="1"/>
        <pt x="445" y="396" on="1"/>
        <pt x="446" y="406" on="0"/>
        <pt x="449" y="438" on="0"/>
        <pt x="451" y="471" on="0"/>
        <pt x="453" y="503" on="0"/>
        <pt x="453" y="514" on="1"/>
        <pt x="453" y="522" on="0"/>
        <pt x="451" y="543" on="0"/>
        <pt x="443" y="563" on="0"/>
        <pt x="426" y="576" on="0"/>
        <pt x="412" y="576" on="1"/>
        <pt x="386" y="576" on="0"/>
        <pt x="343" y="533" on="0"/>
        <pt x="309" y="462" on="0"/>
        <pt x="283" y="372" on="0"/>
        <pt x="266" y="279" on="0"/>
        <pt x="257" y="189" on="0"/>
        <pt x="257" y="155" on="1"/>
        <pt x="257" y="145" on="0"/>
        <pt x="259" y="115" on="0"/>
        <pt x="269" y="87" on="0"/>
        <pt x="290" y="67" on="0"/>
        <pt x="308" y="67" on="1"/>
        <pt x="339" y="67" on="0"/>
        <pt x="397" y="144" on="0"/>
        <pt x="419" y="243" on="1"/>
        <pt x="604" y="243" on="1"/>
      </contour>
      <contour>
        <pt x="232" y="693" on="1"/>
        <pt x="378" y="839" on="1"/>
        <pt x="527" y="839" on="1"/>
        <pt x="610" y="693" on="1"/>
        <pt x="534" y="693" on="1"/>
        <pt x="451" y="786" on="1"/>
        <pt x="318" y="693" on="1"/>
      </contour>
    </TTGlyph>
    <TTGlyph name="Cdotaccent" xMin="34" yMin="-8" xMax="661" yMax="843">
      <contour>
        <pt x="564" y="54" on="1"/>
        <pt x="539" y="42" on="0"/>
        <pt x="486" y="19" on="0"/>
        <pt x="426" y="2" on="0"/>
        <pt x="355" y="-8" on="0"/>
        <pt x="313" y="-8" on="1"/>
        <pt x="179" y="-8" on="0"/>
        <pt x="34" y="112" on="0"/>
        <pt x="34" y="252" on="1"/>
        <pt x="34" y="333" on="0"/>
        <pt x="84" y="476" on="0"/>
        <pt x="182" y="583" on="0"/>
        <pt x="326" y="645" on="0"/>
        <pt x="419" y="645" on="1"/>
        <pt x="463" y="645" on="0"/>
        <pt x="536" y="633" on="0"/>
        <pt x="595" y="614" on="0"/>
        <pt x="642" y="592" on="0"/>
        <pt x="661" y="582" on="1"/>
        <pt x="625" y="396" on="1"/>
        <pt x="445" y="396" on="1"/>
        <pt x="446" y="406" on="0"/>
        <pt x="449" y="438" on="0"/>
        <pt x="451" y="471" on="0"/>
        <pt x="453" y="503" on="0"/>
        <pt x="453" y="514" on="1"/>
        <pt x="453" y="522" on="0"/>
        <pt x="451" y="543" on="0"/>
        <pt x="443" y="563" on="0"/>
        <pt x="426" y="576" on="0"/>
        <pt x="412" y="576" on="1"/>
        <pt x="386" y="576" on="0"/>
        <pt x="343" y="533" on="0"/>
        <pt x="309" y="462" on="0"/>
        <pt x="283" y="372" on="0"/>
        <pt x="266" y="279" on="0"/>
        <pt x="257" y="189" on="0"/>
        <pt x="257" y="155" on="1"/>
        <pt x="257" y="145" on="0"/>
        <pt x="259" y="115" on="0"/>
        <pt x="269" y="87" on="0"/>
        <pt x="290" y="67" on="0"/>
        <pt x="308" y="67" on="1"/>
        <pt x="339" y="67" on="0"/>
        <pt x="397" y="144" on="0"/>
        <pt x="419" y="243" on="1"/>
        <pt x="604" y="243" on="1"/>
      </contour>
      <contour>
        <pt x="544" y="765" on="1"/>
        <pt x="544" y="742" on="0"/>
        <pt x="525" y="708" on="0"/>
        <pt x="494" y="684" on="0"/>
        <pt x="454" y="672" on="0"/>
        <pt x="433" y="672" on="1"/>
        <pt x="393" y="672" on="0"/>
        <pt x="339" y="710" on="0"/>
        <pt x="339" y="751" on="1"/>
        <pt x="339" y="773" on="0"/>
        <pt x="357" y="808" on="0"/>
        <pt x="388" y="831" on="0"/>
        <pt x="429" y="843" on="0"/>
        <pt x="451" y="843" on="1"/>
        <pt x="490" y="843" on="0"/>
        <pt x="544" y="805" on="0"/>
      </contour>
    </TTGlyph>
    <TTGlyph name="D" xMin="0" yMin="0" xMax="651" yMax="635">
      <contour>
        <pt x="0" y="0" on="1"/>
        <pt x="135" y="635" on="1"/>
        <pt x="404" y="635" on="1"/>
        <pt x="466" y="635" on="0"/>
        <pt x="559" y="610" on="0"/>
        <pt x="620" y="552" on="0"/>
        <pt x="651" y="458" on="0"/>
        <pt x="651" y="390" on="1"/>
        <pt x="651" y="317" on="0"/>
        <pt x="614" y="177" on="0"/>
        <pt x="528" y="67" on="0"/>
        <pt x="389" y="0" on="0"/>
        <pt x="287" y="0" on="1"/>
      </contour>
      <contour>
        <pt x="274" y="70" on="1"/>
        <pt x="307" y="70" on="0"/>
        <pt x="358" y="125" on="0"/>
        <pt x="395" y="210" on="0"/>
        <pt x="420" y="313" on="0"/>
        <pt x="435" y="409" on="0"/>
        <pt x="442" y="485" on="0"/>
        <pt x="442" y="501" on="1"/>
        <pt x="442" y="532" on="0"/>
        <pt x="417" y="567" on="0"/>
        <pt x="386" y="567" on="1"/>
        <pt x="338" y="567" on="1"/>
        <pt x="231" y="70" on="1"/>
      </contour>
    </TTGlyph>
    <TTGlyph name="Dcaron" xMin="0" yMin="0" xMax="651" yMax="839">
      <contour>
        <pt x="0" y="0" on="1"/>
        <pt x="135" y="635" on="1"/>
        <pt x="404" y="635" on="1"/>
        <pt x="466" y="635" on="0"/>
        <pt x="559" y="610" on="0"/>
        <pt x="620" y="552" on="0"/>
        <pt x="651" y="458" on="0"/>
        <pt x="651" y="390" on="1"/>
        <pt x="651" y="317" on="0"/>
        <pt x="614" y="177" on="0"/>
        <pt x="528" y="67" on="0"/>
        <pt x="389" y="0" on="0"/>
        <pt x="287" y="0" on="1"/>
      </contour>
      <contour>
        <pt x="274" y="70" on="1"/>
        <pt x="307" y="70" on="0"/>
        <pt x="358" y="125" on="0"/>
        <pt x="395" y="210" on="0"/>
        <pt x="420" y="313" on="0"/>
        <pt x="435" y="409" on="0"/>
        <pt x="442" y="485" on="0"/>
        <pt x="442" y="501" on="1"/>
        <pt x="442" y="532" on="0"/>
        <pt x="417" y="567" on="0"/>
        <pt x="386" y="567" on="1"/>
        <pt x="338" y="567" on="1"/>
        <pt x="231" y="70" on="1"/>
      </contour>
      <contour>
        <pt x="609" y="839" on="1"/>
        <pt x="463" y="693" on="1"/>
        <pt x="314" y="693" on="1"/>
        <pt x="231" y="839" on="1"/>
        <pt x="308" y="839" on="1"/>
        <pt x="391" y="747" on="1"/>
        <pt x="523" y="839" on="1"/>
      </contour>
    </TTGlyph>
    <TTGlyph name="Dcroat" xMin="6" yMin="0" xMax="662" yMax="635">
      <contour>
        <pt x="25" y="365" on="1"/>
        <pt x="88" y="365" on="1"/>
        <pt x="146" y="635" on="1"/>
        <pt x="415" y="635" on="1"/>
        <pt x="477" y="635" on="0"/>
        <pt x="570" y="610" on="0"/>
        <pt x="631" y="552" on="0"/>
        <pt x="662" y="458" on="0"/>
        <pt x="662" y="390" on="1"/>
        <pt x="662" y="317" on="0"/>
        <pt x="625" y="177" on="0"/>
        <pt x="539" y="67" on="0"/>
        <pt x="400" y="0" on="0"/>
        <pt x="298" y="0" on="1"/>
        <pt x="11" y="0" on="1"/>
        <pt x="72" y="288" on="1"/>
        <pt x="6" y="288" on="1"/>
      </contour>
      <contour>
        <pt x="285" y="70" on="1"/>
        <pt x="318" y="70" on="0"/>
        <pt x="369" y="125" on="0"/>
        <pt x="406" y="210" on="0"/>
        <pt x="431" y="313" on="0"/>
        <pt x="446" y="409" on="0"/>
        <pt x="453" y="485" on="0"/>
        <pt x="453" y="501" on="1"/>
        <pt x="453" y="532" on="0"/>
        <pt x="428" y="567" on="0"/>
        <pt x="397" y="567" on="1"/>
        <pt x="349" y="567" on="1"/>
        <pt x="305" y="365" on="1"/>
        <pt x="380" y="365" on="1"/>
        <pt x="362" y="288" on="1"/>
        <pt x="289" y="288" on="1"/>
        <pt x="242" y="70" on="1"/>
      </contour>
    </TTGlyph>
    <TTGlyph name="Ddotbelow" xMin="0" yMin="-218" xMax="651" yMax="635">
      <contour>
        <pt x="0" y="0" on="1"/>
        <pt x="135" y="635" on="1"/>
        <pt x="404" y="635" on="1"/>
        <pt x="466" y="635" on="0"/>
        <pt x="559" y="610" on="0"/>
        <pt x="620" y="552" on="0"/>
        <pt x="651" y="458" on="0"/>
        <pt x="651" y="390" on="1"/>
        <pt x="651" y="317" on="0"/>
        <pt x="614" y="177" on="0"/>
        <pt x="528" y="67" on="0"/>
        <pt x="389" y="0" on="0"/>
        <pt x="287" y="0" on="1"/>
      </contour>
      <contour>
        <pt x="274" y="70" on="1"/>
        <pt x="307" y="70" on="0"/>
        <pt x="358" y="125" on="0"/>
        <pt x="395" y="210" on="0"/>
        <pt x="420" y="313" on="0"/>
        <pt x="435" y="409" on="0"/>
        <pt x="442" y="485" on="0"/>
        <pt x="442" y="501" on="1"/>
        <pt x="442" y="532" on="0"/>
        <pt x="417" y="567" on="0"/>
        <pt x="386" y="567" on="1"/>
        <pt x="338" y="567" on="1"/>
        <pt x="231" y="70" on="1"/>
      </contour>
      <contour>
        <pt x="296" y="-144" on="1"/>
        <pt x="296" y="-162" on="0"/>
        <pt x="281" y="-190" on="0"/>
        <pt x="256" y="-208" on="0"/>
        <pt x="223" y="-218" on="0"/>
        <pt x="206" y="-218" on="1"/>
        <pt x="174" y="-218" on="0"/>
        <pt x="129" y="-188" on="0"/>
        <pt x="129" y="-154" on="1"/>
        <pt x="129" y="-118" on="0"/>
        <pt x="184" y="-81" on="0"/>
        <pt x="220" y="-81" on="1"/>
        <pt x="252" y="-81" on="0"/>
        <pt x="296" y="-111" on="0"/>
      </contour>
    </TTGlyph>
    <TTGlyph name="E" xMin="0" yMin="0" xMax="556" yMax="635">
      <contour>
        <pt x="135" y="635" on="1"/>
        <pt x="556" y="635" on="1"/>
        <pt x="540" y="559" on="1"/>
        <pt x="336" y="559" on="1"/>
        <pt x="294" y="366" on="1"/>
        <pt x="465" y="366" on="1"/>
        <pt x="449" y="291" on="1"/>
        <pt x="278" y="291" on="1"/>
        <pt x="232" y="77" on="1"/>
        <pt x="436" y="77" on="1"/>
        <pt x="421" y="0" on="1"/>
        <pt x="0" y="0" on="1"/>
      </contour>
    </TTGlyph>
    <TTGlyph name="Eacute" xMin="0" yMin="0" xMax="568" yMax="839">
      <contour>
        <pt x="135" y="635" on="1"/>
        <pt x="556" y="635" on="1"/>
        <pt x="540" y="559" on="1"/>
        <pt x="336" y="559" on="1"/>
        <pt x="294" y="366" on="1"/>
        <pt x="465" y="366" on="1"/>
        <pt x="449" y="291" on="1"/>
        <pt x="278" y="291" on="1"/>
        <pt x="232" y="77" on="1"/>
        <pt x="436" y="77" on="1"/>
        <pt x="421" y="0" on="1"/>
        <pt x="0" y="0" on="1"/>
      </contour>
      <contour>
        <pt x="303" y="693" on="1"/>
        <pt x="396" y="839" on="1"/>
        <pt x="568" y="839" on="1"/>
        <pt x="389" y="693" on="1"/>
      </contour>
    </TTGlyph>
    <TTGlyph name="Ebreve" xMin="0" yMin="0" xMax="556" yMax="854">
      <contour>
        <pt x="135" y="635" on="1"/>
        <pt x="556" y="635" on="1"/>
        <pt x="540" y="559" on="1"/>
        <pt x="336" y="559" on="1"/>
        <pt x="294" y="366" on="1"/>
        <pt x="465" y="366" on="1"/>
        <pt x="449" y="291" on="1"/>
        <pt x="278" y="291" on="1"/>
        <pt x="232" y="77" on="1"/>
        <pt x="436" y="77" on="1"/>
        <pt x="421" y="0" on="1"/>
        <pt x="0" y="0" on="1"/>
      </contour>
      <contour>
        <pt x="346" y="693" on="1"/>
        <pt x="287" y="693" on="0"/>
        <pt x="217" y="752" on="0"/>
        <pt x="207" y="818" on="1"/>
        <pt x="258" y="839" on="1"/>
        <pt x="264" y="819" on="0"/>
        <pt x="286" y="794" on="0"/>
        <pt x="313" y="780" on="0"/>
        <pt x="342" y="775" on="0"/>
        <pt x="354" y="775" on="1"/>
        <pt x="396" y="775" on="0"/>
        <pt x="473" y="819" on="0"/>
        <pt x="499" y="854" on="1"/>
        <pt x="537" y="820" on="1"/>
        <pt x="499" y="751" on="0"/>
        <pt x="403" y="693" on="0"/>
      </contour>
    </TTGlyph>
    <TTGlyph name="Ecaron" xMin="0" yMin="0" xMax="567" yMax="839">
      <contour>
        <pt x="135" y="635" on="1"/>
        <pt x="556" y="635" on="1"/>
        <pt x="540" y="559" on="1"/>
        <pt x="336" y="559" on="1"/>
        <pt x="294" y="366" on="1"/>
        <pt x="465" y="366" on="1"/>
        <pt x="449" y="291" on="1"/>
        <pt x="278" y="291" on="1"/>
        <pt x="232" y="77" on="1"/>
        <pt x="436" y="77" on="1"/>
        <pt x="421" y="0" on="1"/>
        <pt x="0" y="0" on="1"/>
      </contour>
      <contour>
        <pt x="567" y="839" on="1"/>
        <pt x="421" y="693" on="1"/>
        <pt x="272" y="693" on="1"/>
        <pt x="189" y="839" on="1"/>
        <pt x="266" y="839" on="1"/>
        <pt x="349" y="747" on="1"/>
        <pt x="481" y="839" on="1"/>
      </contour>
    </TTGlyph>
    <TTGlyph name="Ecircumflex" xMin="0" yMin="0" xMax="556" yMax="839">
      <contour>
        <pt x="135" y="635" on="1"/>
        <pt x="556" y="635" on="1"/>
        <pt x="540" y="559" on="1"/>
        <pt x="336" y="559" on="1"/>
        <pt x="294" y="366" on="1"/>
        <pt x="465" y="366" on="1"/>
        <pt x="449" y="291" on="1"/>
        <pt x="278" y="291" on="1"/>
        <pt x="232" y="77" on="1"/>
        <pt x="436" y="77" on="1"/>
        <pt x="421" y="0" on="1"/>
        <pt x="0" y="0" on="1"/>
      </contour>
      <contour>
        <pt x="175" y="693" on="1"/>
        <pt x="321" y="839" on="1"/>
        <pt x="470" y="839" on="1"/>
        <pt x="553" y="693" on="1"/>
        <pt x="477" y="693" on="1"/>
        <pt x="394" y="786" on="1"/>
        <pt x="261" y="693" on="1"/>
      </contour>
    </TTGlyph>
    <TTGlyph name="Edieresis" xMin="0" yMin="0" xMax="556" yMax="835">
      <contour>
        <pt x="135" y="635" on="1"/>
        <pt x="556" y="635" on="1"/>
        <pt x="540" y="559" on="1"/>
        <pt x="336" y="559" on="1"/>
        <pt x="294" y="366" on="1"/>
        <pt x="465" y="366" on="1"/>
        <pt x="449" y="291" on="1"/>
        <pt x="278" y="291" on="1"/>
        <pt x="232" y="77" on="1"/>
        <pt x="436" y="77" on="1"/>
        <pt x="421" y="0" on="1"/>
        <pt x="0" y="0" on="1"/>
      </contour>
      <contour>
        <pt x="254" y="835" on="1"/>
        <pt x="290" y="835" on="0"/>
        <pt x="324" y="794" on="0"/>
        <pt x="324" y="765" on="1"/>
        <pt x="324" y="733" on="0"/>
        <pt x="283" y="682" on="0"/>
        <pt x="243" y="682" on="1"/>
        <pt x="206" y="682" on="0"/>
        <pt x="172" y="723" on="0"/>
        <pt x="172" y="752" on="1"/>
        <pt x="172" y="784" on="0"/>
        <pt x="214" y="835" on="0"/>
      </contour>
      <contour>
        <pt x="466" y="835" on="1"/>
        <pt x="503" y="835" on="0"/>
        <pt x="537" y="794" on="0"/>
        <pt x="537" y="765" on="1"/>
        <pt x="537" y="733" on="0"/>
        <pt x="495" y="682" on="0"/>
        <pt x="455" y="682" on="1"/>
        <pt x="418" y="682" on="0"/>
        <pt x="384" y="723" on="0"/>
        <pt x="384" y="752" on="1"/>
        <pt x="384" y="784" on="0"/>
        <pt x="426" y="835" on="0"/>
      </contour>
    </TTGlyph>
    <TTGlyph name="Edotaccent" xMin="0" yMin="0" xMax="556" yMax="843">
      <contour>
        <pt x="135" y="635" on="1"/>
        <pt x="556" y="635" on="1"/>
        <pt x="540" y="559" on="1"/>
        <pt x="336" y="559" on="1"/>
        <pt x="294" y="366" on="1"/>
        <pt x="465" y="366" on="1"/>
        <pt x="449" y="291" on="1"/>
        <pt x="278" y="291" on="1"/>
        <pt x="232" y="77" on="1"/>
        <pt x="436" y="77" on="1"/>
        <pt x="421" y="0" on="1"/>
        <pt x="0" y="0" on="1"/>
      </contour>
      <contour>
        <pt x="465" y="765" on="1"/>
        <pt x="465" y="742" on="0"/>
        <pt x="446" y="708" on="0"/>
        <pt x="415" y="684" on="0"/>
        <pt x="375" y="672" on="0"/>
        <pt x="354" y="672" on="1"/>
        <pt x="314" y="672" on="0"/>
        <pt x="260" y="710" on="0"/>
        <pt x="260" y="751" on="1"/>
        <pt x="260" y="773" on="0"/>
        <pt x="278" y="808" on="0"/>
        <pt x="309" y="831" on="0"/>
        <pt x="350" y="843" on="0"/>
        <pt x="372" y="843" on="1"/>
        <pt x="411" y="843" on="0"/>
        <pt x="465" y="805" on="0"/>
      </contour>
    </TTGlyph>
    <TTGlyph name="Edotbelow" xMin="0" yMin="-218" xMax="556" yMax="635">
      <contour>
        <pt x="135" y="635" on="1"/>
        <pt x="556" y="635" on="1"/>
        <pt x="540" y="559" on="1"/>
        <pt x="336" y="559" on="1"/>
        <pt x="294" y="366" on="1"/>
        <pt x="465" y="366" on="1"/>
        <pt x="449" y="291" on="1"/>
        <pt x="278" y="291" on="1"/>
        <pt x="232" y="77" on="1"/>
        <pt x="436" y="77" on="1"/>
        <pt x="421" y="0" on="1"/>
        <pt x="0" y="0" on="1"/>
      </contour>
      <contour>
        <pt x="271" y="-144" on="1"/>
        <pt x="271" y="-162" on="0"/>
        <pt x="256" y="-190" on="0"/>
        <pt x="231" y="-208" on="0"/>
        <pt x="198" y="-218" on="0"/>
        <pt x="181" y="-218" on="1"/>
        <pt x="149" y="-218" on="0"/>
        <pt x="104" y="-188" on="0"/>
        <pt x="104" y="-154" on="1"/>
        <pt x="104" y="-118" on="0"/>
        <pt x="159" y="-81" on="0"/>
        <pt x="195" y="-81" on="1"/>
        <pt x="227" y="-81" on="0"/>
        <pt x="271" y="-111" on="0"/>
      </contour>
    </TTGlyph>
    <TTGlyph name="Egrave" xMin="0" yMin="0" xMax="556" yMax="839">
      <contour>
        <pt x="135" y="635" on="1"/>
        <pt x="556" y="635" on="1"/>
        <pt x="540" y="559" on="1"/>
        <pt x="336" y="559" on="1"/>
        <pt x="294" y="366" on="1"/>
        <pt x="465" y="366" on="1"/>
        <pt x="449" y="291" on="1"/>
        <pt x="278" y="291" on="1"/>
        <pt x="232" y="77" on="1"/>
        <pt x="436" y="77" on="1"/>
        <pt x="421" y="0" on="1"/>
        <pt x="0" y="0" on="1"/>
      </contour>
      <contour>
        <pt x="132" y="839" on="1"/>
        <pt x="305" y="839" on="1"/>
        <pt x="410" y="693" on="1"/>
        <pt x="317" y="693" on="1"/>
      </contour>
    </TTGlyph>
    <TTGlyph name="Emacron" xMin="0" yMin="0" xMax="556" yMax="807">
      <contour>
        <pt x="135" y="635" on="1"/>
        <pt x="556" y="635" on="1"/>
        <pt x="540" y="559" on="1"/>
        <pt x="336" y="559" on="1"/>
        <pt x="294" y="366" on="1"/>
        <pt x="465" y="366" on="1"/>
        <pt x="449" y="291" on="1"/>
        <pt x="278" y="291" on="1"/>
        <pt x="232" y="77" on="1"/>
        <pt x="436" y="77" on="1"/>
        <pt x="421" y="0" on="1"/>
        <pt x="0" y="0" on="1"/>
      </contour>
      <contour>
        <pt x="196" y="807" on="1"/>
        <pt x="551" y="807" on="1"/>
        <pt x="533" y="730" on="1"/>
        <pt x="177" y="730" on="1"/>
      </contour>
    </TTGlyph>
    <TTGlyph name="Eng" xMin="0" yMin="-168" xMax="670" yMax="635">
      <contour>
        <pt x="545" y="49" on="1"/>
        <pt x="532" y="-11" on="0"/>
        <pt x="476" y="-93" on="0"/>
        <pt x="398" y="-145" on="0"/>
        <pt x="304" y="-168" on="0"/>
        <pt x="254" y="-168" on="1"/>
        <pt x="223" y="-168" on="0"/>
        <pt x="153" y="-160" on="0"/>
        <pt x="114" y="-151" on="1"/>
        <pt x="131" y="-71" on="1"/>
        <pt x="152" y="-75" on="0"/>
        <pt x="202" y="-78" on="0"/>
        <pt x="217" y="-78" on="1"/>
        <pt x="261" y="-78" on="0"/>
        <pt x="319" y="-46" on="0"/>
        <pt x="319" y="-2" on="1"/>
        <pt x="319" y="19" on="0"/>
        <pt x="306" y="82" on="0"/>
        <pt x="297" y="111" on="1"/>
        <pt x="190" y="464" on="1"/>
        <pt x="90" y="0" on="1"/>
        <pt x="0" y="0" on="1"/>
        <pt x="135" y="635" on="1"/>
        <pt x="374" y="635" on="1"/>
        <pt x="479" y="172" on="1"/>
        <pt x="578" y="635" on="1"/>
        <pt x="670" y="635" on="1"/>
      </contour>
    </TTGlyph>
    <TTGlyph name="Eogonek" xMin="0" yMin="-204" xMax="556" yMax="635">
      <contour>
        <pt x="135" y="635" on="1"/>
        <pt x="556" y="635" on="1"/>
        <pt x="540" y="559" on="1"/>
        <pt x="336" y="559" on="1"/>
        <pt x="294" y="366" on="1"/>
        <pt x="465" y="366" on="1"/>
        <pt x="449" y="291" on="1"/>
        <pt x="278" y="291" on="1"/>
        <pt x="232" y="77" on="1"/>
        <pt x="436" y="77" on="1"/>
        <pt x="421" y="0" on="1"/>
        <pt x="300" y="0" on="1"/>
        <pt x="286" y="-9" on="0"/>
        <pt x="259" y="-30" on="0"/>
        <pt x="236" y="-55" on="0"/>
        <pt x="222" y="-84" on="0"/>
        <pt x="222" y="-100" on="1"/>
        <pt x="222" y="-120" on="0"/>
        <pt x="240" y="-138" on="0"/>
        <pt x="253" y="-138" on="1"/>
        <pt x="262" y="-138" on="0"/>
        <pt x="287" y="-127" on="0"/>
        <pt x="305" y="-112" on="1"/>
        <pt x="328" y="-154" on="1"/>
        <pt x="298" y="-179" on="0"/>
        <pt x="218" y="-204" on="0"/>
        <pt x="180" y="-204" on="1"/>
        <pt x="94" y="-204" on="0"/>
        <pt x="94" y="-130" on="1"/>
        <pt x="94" y="-105" on="0"/>
        <pt x="114" y="-64" on="0"/>
        <pt x="146" y="-32" on="0"/>
        <pt x="185" y="-8" on="0"/>
        <pt x="205" y="0" on="1"/>
        <pt x="0" y="0" on="1"/>
      </contour>
    </TTGlyph>
    <TTGlyph name="Eth" xMin="6" yMin="0" xMax="662" yMax="635">
      <contour>
        <pt x="25" y="365" on="1"/>
        <pt x="88" y="365" on="1"/>
        <pt x="146" y="635" on="1"/>
        <pt x="415" y="635" on="1"/>
        <pt x="477" y="635" on="0"/>
        <pt x="570" y="610" on="0"/>
        <pt x="631" y="552" on="0"/>
        <pt x="662" y="458" on="0"/>
        <pt x="662" y="390" on="1"/>
        <pt x="662" y="317" on="0"/>
        <pt x="625" y="177" on="0"/>
        <pt x="539" y="67" on="0"/>
        <pt x="400" y="0" on="0"/>
        <pt x="298" y="0" on="1"/>
        <pt x="11" y="0" on="1"/>
        <pt x="72" y="288" on="1"/>
        <pt x="6" y="288" on="1"/>
      </contour>
      <contour>
        <pt x="285" y="70" on="1"/>
        <pt x="318" y="70" on="0"/>
        <pt x="369" y="125" on="0"/>
        <pt x="406" y="210" on="0"/>
        <pt x="431" y="313" on="0"/>
        <pt x="446" y="409" on="0"/>
        <pt x="453" y="485" on="0"/>
        <pt x="453" y="501" on="1"/>
        <pt x="453" y="532" on="0"/>
        <pt x="428" y="567" on="0"/>
        <pt x="397" y="567" on="1"/>
        <pt x="349" y="567" on="1"/>
        <pt x="305" y="365" on="1"/>
        <pt x="380" y="365" on="1"/>
        <pt x="362" y="288" on="1"/>
        <pt x="289" y="288" on="1"/>
        <pt x="242" y="70" on="1"/>
      </contour>
    </TTGlyph>
    <TTGlyph name="Etilde" xMin="0" yMin="0" xMax="569" yMax="844">
      <contour>
        <pt x="135" y="635" on="1"/>
        <pt x="556" y="635" on="1"/>
        <pt x="540" y="559" on="1"/>
        <pt x="336" y="559" on="1"/>
        <pt x="294" y="366" on="1"/>
        <pt x="465" y="366" on="1"/>
        <pt x="449" y="291" on="1"/>
        <pt x="278" y="291" on="1"/>
        <pt x="232" y="77" on="1"/>
        <pt x="436" y="77" on="1"/>
        <pt x="421" y="0" on="1"/>
        <pt x="0" y="0" on="1"/>
      </contour>
      <contour>
        <pt x="569" y="819" on="1"/>
        <pt x="539" y="764" on="0"/>
        <pt x="479" y="710" on="0"/>
        <pt x="434" y="710" on="1"/>
        <pt x="416" y="710" on="0"/>
        <pt x="367" y="722" on="0"/>
        <pt x="316" y="735" on="0"/>
        <pt x="271" y="747" on="0"/>
        <pt x="257" y="747" on="1"/>
        <pt x="239" y="747" on="0"/>
        <pt x="201" y="723" on="0"/>
        <pt x="192" y="712" on="1"/>
        <pt x="159" y="741" on="1"/>
        <pt x="190" y="792" on="0"/>
        <pt x="253" y="844" on="0"/>
        <pt x="296" y="844" on="1"/>
        <pt x="312" y="844" on="0"/>
        <pt x="359" y="834" on="0"/>
        <pt x="408" y="821" on="0"/>
        <pt x="454" y="811" on="0"/>
        <pt x="469" y="811" on="1"/>
        <pt x="483" y="811" on="0"/>
        <pt x="522" y="830" on="0"/>
        <pt x="534" y="844" on="1"/>
      </contour>
    </TTGlyph>
    <TTGlyph name="Euro" xMin="21" yMin="-8" xMax="607" yMax="645">
      <contour>
        <pt x="75" y="429" on="1"/>
        <pt x="152" y="429" on="1"/>
        <pt x="193" y="529" on="0"/>
        <pt x="353" y="645" on="0"/>
        <pt x="479" y="645" on="1"/>
        <pt x="517" y="645" on="0"/>
        <pt x="582" y="634" on="0"/>
        <pt x="607" y="625" on="1"/>
        <pt x="581" y="561" on="1"/>
        <pt x="566" y="567" on="0"/>
        <pt x="517" y="576" on="0"/>
        <pt x="501" y="576" on="1"/>
        <pt x="478" y="576" on="0"/>
        <pt x="439" y="553" on="0"/>
        <pt x="407" y="513" on="0"/>
        <pt x="382" y="459" on="0"/>
        <pt x="372" y="429" on="1"/>
        <pt x="495" y="429" on="1"/>
        <pt x="479" y="354" on="1"/>
        <pt x="352" y="354" on="1"/>
        <pt x="347" y="330" on="0"/>
        <pt x="340" y="283" on="0"/>
        <pt x="338" y="261" on="1"/>
        <pt x="458" y="261" on="1"/>
        <pt x="442" y="186" on="1"/>
        <pt x="331" y="186" on="1"/>
        <pt x="331" y="155" on="1"/>
        <pt x="331" y="125" on="0"/>
        <pt x="339" y="89" on="0"/>
        <pt x="354" y="69" on="0"/>
        <pt x="378" y="62" on="0"/>
        <pt x="395" y="62" on="1"/>
        <pt x="413" y="62" on="0"/>
        <pt x="462" y="69" on="0"/>
        <pt x="487" y="80" on="1"/>
        <pt x="487" y="79" on="0"/>
        <pt x="497" y="62" on="0"/>
        <pt x="502" y="51" on="1"/>
        <pt x="508" y="39" on="0"/>
        <pt x="517" y="23" on="1"/>
        <pt x="485" y="8" on="0"/>
        <pt x="413" y="-8" on="0"/>
        <pt x="364" y="-8" on="1"/>
        <pt x="252" y="-8" on="0"/>
        <pt x="133" y="83" on="0"/>
        <pt x="121" y="186" on="1"/>
        <pt x="21" y="186" on="1"/>
        <pt x="38" y="261" on="1"/>
        <pt x="118" y="261" on="1"/>
        <pt x="119" y="285" on="0"/>
        <pt x="124" y="331" on="0"/>
        <pt x="129" y="354" on="1"/>
        <pt x="58" y="354" on="1"/>
      </contour>
    </TTGlyph>
    <TTGlyph name="F" xMin="0" yMin="0" xMax="556" yMax="635">
      <contour>
        <pt x="135" y="635" on="1"/>
        <pt x="556" y="635" on="1"/>
        <pt x="540" y="559" on="1"/>
        <pt x="335" y="559" on="1"/>
        <pt x="296" y="376" on="1"/>
        <pt x="467" y="376" on="1"/>
        <pt x="451" y="299" on="1"/>
        <pt x="280" y="299" on="1"/>
        <pt x="216" y="0" on="1"/>
        <pt x="0" y="0" on="1"/>
      </contour>
    </TTGlyph>
    <TTGlyph name="G" xMin="35" yMin="-8" xMax="652" yMax="645">
      <contour>
        <pt x="355" y="290" on="1"/>
        <pt x="614" y="290" on="1"/>
        <pt x="556" y="0" on="1"/>
        <pt x="438" y="0" on="1"/>
        <pt x="419" y="64" on="1"/>
        <pt x="415" y="64" on="1"/>
        <pt x="389" y="34" on="0"/>
        <pt x="318" y="-8" on="0"/>
        <pt x="261" y="-8" on="1"/>
        <pt x="217" y="-8" on="0"/>
        <pt x="136" y="21" on="0"/>
        <pt x="73" y="84" on="0"/>
        <pt x="35" y="186" on="0"/>
        <pt x="35" y="258" on="1"/>
        <pt x="35" y="336" on="0"/>
        <pt x="83" y="476" on="0"/>
        <pt x="179" y="583" on="0"/>
        <pt x="323" y="645" on="0"/>
        <pt x="419" y="645" on="1"/>
        <pt x="493" y="645" on="0"/>
        <pt x="603" y="611" on="0"/>
        <pt x="652" y="590" on="1"/>
        <pt x="614" y="396" on="1"/>
        <pt x="445" y="396" on="1"/>
        <pt x="446" y="407" on="0"/>
        <pt x="450" y="437" on="0"/>
        <pt x="452" y="470" on="0"/>
        <pt x="454" y="502" on="0"/>
        <pt x="454" y="514" on="1"/>
        <pt x="454" y="522" on="0"/>
        <pt x="452" y="543" on="0"/>
        <pt x="444" y="563" on="0"/>
        <pt x="428" y="576" on="0"/>
        <pt x="413" y="576" on="1"/>
        <pt x="387" y="576" on="0"/>
        <pt x="344" y="533" on="0"/>
        <pt x="310" y="462" on="0"/>
        <pt x="285" y="372" on="0"/>
        <pt x="268" y="279" on="0"/>
        <pt x="259" y="190" on="0"/>
        <pt x="259" y="157" on="1"/>
        <pt x="259" y="147" on="0"/>
        <pt x="261" y="117" on="0"/>
        <pt x="272" y="88" on="0"/>
        <pt x="293" y="67" on="0"/>
        <pt x="313" y="67" on="1"/>
        <pt x="346" y="67" on="0"/>
        <pt x="408" y="139" on="0"/>
        <pt x="424" y="223" on="1"/>
        <pt x="340" y="223" on="1"/>
      </contour>
    </TTGlyph>
    <TTGlyph name="Gbreve" xMin="35" yMin="-8" xMax="652" yMax="854">
      <contour>
        <pt x="355" y="290" on="1"/>
        <pt x="614" y="290" on="1"/>
        <pt x="556" y="0" on="1"/>
        <pt x="438" y="0" on="1"/>
        <pt x="419" y="64" on="1"/>
        <pt x="415" y="64" on="1"/>
        <pt x="389" y="34" on="0"/>
        <pt x="318" y="-8" on="0"/>
        <pt x="261" y="-8" on="1"/>
        <pt x="217" y="-8" on="0"/>
        <pt x="136" y="21" on="0"/>
        <pt x="73" y="84" on="0"/>
        <pt x="35" y="186" on="0"/>
        <pt x="35" y="258" on="1"/>
        <pt x="35" y="336" on="0"/>
        <pt x="83" y="476" on="0"/>
        <pt x="179" y="583" on="0"/>
        <pt x="323" y="645" on="0"/>
        <pt x="419" y="645" on="1"/>
        <pt x="493" y="645" on="0"/>
        <pt x="603" y="611" on="0"/>
        <pt x="652" y="590" on="1"/>
        <pt x="614" y="396" on="1"/>
        <pt x="445" y="396" on="1"/>
        <pt x="446" y="407" on="0"/>
        <pt x="450" y="437" on="0"/>
        <pt x="452" y="470" on="0"/>
        <pt x="454" y="502" on="0"/>
        <pt x="454" y="514" on="1"/>
        <pt x="454" y="522" on="0"/>
        <pt x="452" y="543" on="0"/>
        <pt x="444" y="563" on="0"/>
        <pt x="428" y="576" on="0"/>
        <pt x="413" y="576" on="1"/>
        <pt x="387" y="576" on="0"/>
        <pt x="344" y="533" on="0"/>
        <pt x="310" y="462" on="0"/>
        <pt x="285" y="372" on="0"/>
        <pt x="268" y="279" on="0"/>
        <pt x="259" y="190" on="0"/>
        <pt x="259" y="157" on="1"/>
        <pt x="259" y="147" on="0"/>
        <pt x="261" y="117" on="0"/>
        <pt x="272" y="88" on="0"/>
        <pt x="293" y="67" on="0"/>
        <pt x="313" y="67" on="1"/>
        <pt x="346" y="67" on="0"/>
        <pt x="408" y="139" on="0"/>
        <pt x="424" y="223" on="1"/>
        <pt x="340" y="223" on="1"/>
      </contour>
      <contour>
        <pt x="438" y="693" on="1"/>
        <pt x="379" y="693" on="0"/>
        <pt x="309" y="752" on="0"/>
        <pt x="299" y="818" on="1"/>
        <pt x="350" y="839" on="1"/>
        <pt x="356" y="819" on="0"/>
        <pt x="378" y="794" on="0"/>
        <pt x="405" y="780" on="0"/>
        <pt x="434" y="775" on="0"/>
        <pt x="446" y="775" on="1"/>
        <pt x="488" y="775" on="0"/>
        <pt x="565" y="819" on="0"/>
        <pt x="591" y="854" on="1"/>
        <pt x="629" y="820" on="1"/>
        <pt x="591" y="751" on="0"/>
        <pt x="495" y="693" on="0"/>
      </contour>
    </TTGlyph>
    <TTGlyph name="Gcircumflex" xMin="35" yMin="-8" xMax="652" yMax="839">
      <contour>
        <pt x="355" y="290" on="1"/>
        <pt x="614" y="290" on="1"/>
        <pt x="556" y="0" on="1"/>
        <pt x="438" y="0" on="1"/>
        <pt x="419" y="64" on="1"/>
        <pt x="415" y="64" on="1"/>
        <pt x="389" y="34" on="0"/>
        <pt x="318" y="-8" on="0"/>
        <pt x="261" y="-8" on="1"/>
        <pt x="217" y="-8" on="0"/>
        <pt x="136" y="21" on="0"/>
        <pt x="73" y="84" on="0"/>
        <pt x="35" y="186" on="0"/>
        <pt x="35" y="258" on="1"/>
        <pt x="35" y="336" on="0"/>
        <pt x="83" y="476" on="0"/>
        <pt x="179" y="583" on="0"/>
        <pt x="323" y="645" on="0"/>
        <pt x="419" y="645" on="1"/>
        <pt x="493" y="645" on="0"/>
        <pt x="603" y="611" on="0"/>
        <pt x="652" y="590" on="1"/>
        <pt x="614" y="396" on="1"/>
        <pt x="445" y="396" on="1"/>
        <pt x="446" y="407" on="0"/>
        <pt x="450" y="437" on="0"/>
        <pt x="452" y="470" on="0"/>
        <pt x="454" y="502" on="0"/>
        <pt x="454" y="514" on="1"/>
        <pt x="454" y="522" on="0"/>
        <pt x="452" y="543" on="0"/>
        <pt x="444" y="563" on="0"/>
        <pt x="428" y="576" on="0"/>
        <pt x="413" y="576" on="1"/>
        <pt x="387" y="576" on="0"/>
        <pt x="344" y="533" on="0"/>
        <pt x="310" y="462" on="0"/>
        <pt x="285" y="372" on="0"/>
        <pt x="268" y="279" on="0"/>
        <pt x="259" y="190" on="0"/>
        <pt x="259" y="157" on="1"/>
        <pt x="259" y="147" on="0"/>
        <pt x="261" y="117" on="0"/>
        <pt x="272" y="88" on="0"/>
        <pt x="293" y="67" on="0"/>
        <pt x="313" y="67" on="1"/>
        <pt x="346" y="67" on="0"/>
        <pt x="408" y="139" on="0"/>
        <pt x="424" y="223" on="1"/>
        <pt x="340" y="223" on="1"/>
      </contour>
      <contour>
        <pt x="243" y="693" on="1"/>
        <pt x="389" y="839" on="1"/>
        <pt x="538" y="839" on="1"/>
        <pt x="621" y="693" on="1"/>
        <pt x="545" y="693" on="1"/>
        <pt x="462" y="786" on="1"/>
        <pt x="329" y="693" on="1"/>
      </contour>
    </TTGlyph>
    <TTGlyph name="Gcommaaccent" xMin="35" yMin="-284" xMax="652" yMax="645">
      <contour>
        <pt x="355" y="290" on="1"/>
        <pt x="614" y="290" on="1"/>
        <pt x="556" y="0" on="1"/>
        <pt x="438" y="0" on="1"/>
        <pt x="419" y="64" on="1"/>
        <pt x="415" y="64" on="1"/>
        <pt x="389" y="34" on="0"/>
        <pt x="318" y="-8" on="0"/>
        <pt x="261" y="-8" on="1"/>
        <pt x="217" y="-8" on="0"/>
        <pt x="136" y="21" on="0"/>
        <pt x="73" y="84" on="0"/>
        <pt x="35" y="186" on="0"/>
        <pt x="35" y="258" on="1"/>
        <pt x="35" y="336" on="0"/>
        <pt x="83" y="476" on="0"/>
        <pt x="179" y="583" on="0"/>
        <pt x="323" y="645" on="0"/>
        <pt x="419" y="645" on="1"/>
        <pt x="493" y="645" on="0"/>
        <pt x="603" y="611" on="0"/>
        <pt x="652" y="590" on="1"/>
        <pt x="614" y="396" on="1"/>
        <pt x="445" y="396" on="1"/>
        <pt x="446" y="407" on="0"/>
        <pt x="450" y="437" on="0"/>
        <pt x="452" y="470" on="0"/>
        <pt x="454" y="502" on="0"/>
        <pt x="454" y="514" on="1"/>
        <pt x="454" y="522" on="0"/>
        <pt x="452" y="543" on="0"/>
        <pt x="444" y="563" on="0"/>
        <pt x="428" y="576" on="0"/>
        <pt x="413" y="576" on="1"/>
        <pt x="387" y="576" on="0"/>
        <pt x="344" y="533" on="0"/>
        <pt x="310" y="462" on="0"/>
        <pt x="285" y="372" on="0"/>
        <pt x="268" y="279" on="0"/>
        <pt x="259" y="190" on="0"/>
        <pt x="259" y="157" on="1"/>
        <pt x="259" y="147" on="0"/>
        <pt x="261" y="117" on="0"/>
        <pt x="272" y="88" on="0"/>
        <pt x="293" y="67" on="0"/>
        <pt x="313" y="67" on="1"/>
        <pt x="346" y="67" on="0"/>
        <pt x="408" y="139" on="0"/>
        <pt x="424" y="223" on="1"/>
        <pt x="340" y="223" on="1"/>
      </contour>
      <contour>
        <pt x="375" y="-127" on="1"/>
        <pt x="375" y="-153" on="0"/>
        <pt x="350" y="-201" on="0"/>
        <pt x="310" y="-242" on="0"/>
        <pt x="262" y="-274" on="0"/>
        <pt x="238" y="-284" on="1"/>
        <pt x="217" y="-254" on="1"/>
        <pt x="242" y="-235" on="0"/>
        <pt x="269" y="-203" on="0"/>
        <pt x="269" y="-187" on="1"/>
        <pt x="269" y="-162" on="0"/>
        <pt x="229" y="-135" on="1"/>
        <pt x="229" y="-100" on="0"/>
        <pt x="277" y="-62" on="0"/>
        <pt x="309" y="-62" on="1"/>
        <pt x="338" y="-62" on="0"/>
        <pt x="375" y="-94" on="0"/>
      </contour>
    </TTGlyph>
    <TTGlyph name="Gdotaccent" xMin="35" yMin="-8" xMax="652" yMax="843">
      <contour>
        <pt x="355" y="290" on="1"/>
        <pt x="614" y="290" on="1"/>
        <pt x="556" y="0" on="1"/>
        <pt x="438" y="0" on="1"/>
        <pt x="419" y="64" on="1"/>
        <pt x="415" y="64" on="1"/>
        <pt x="389" y="34" on="0"/>
        <pt x="318" y="-8" on="0"/>
        <pt x="261" y="-8" on="1"/>
        <pt x="217" y="-8" on="0"/>
        <pt x="136" y="21" on="0"/>
        <pt x="73" y="84" on="0"/>
        <pt x="35" y="186" on="0"/>
        <pt x="35" y="258" on="1"/>
        <pt x="35" y="336" on="0"/>
        <pt x="83" y="476" on="0"/>
        <pt x="179" y="583" on="0"/>
        <pt x="323" y="645" on="0"/>
        <pt x="419" y="645" on="1"/>
        <pt x="493" y="645" on="0"/>
        <pt x="603" y="611" on="0"/>
        <pt x="652" y="590" on="1"/>
        <pt x="614" y="396" on="1"/>
        <pt x="445" y="396" on="1"/>
        <pt x="446" y="407" on="0"/>
        <pt x="450" y="437" on="0"/>
        <pt x="452" y="470" on="0"/>
        <pt x="454" y="502" on="0"/>
        <pt x="454" y="514" on="1"/>
        <pt x="454" y="522" on="0"/>
        <pt x="452" y="543" on="0"/>
        <pt x="444" y="563" on="0"/>
        <pt x="428" y="576" on="0"/>
        <pt x="413" y="576" on="1"/>
        <pt x="387" y="576" on="0"/>
        <pt x="344" y="533" on="0"/>
        <pt x="310" y="462" on="0"/>
        <pt x="285" y="372" on="0"/>
        <pt x="268" y="279" on="0"/>
        <pt x="259" y="190" on="0"/>
        <pt x="259" y="157" on="1"/>
        <pt x="259" y="147" on="0"/>
        <pt x="261" y="117" on="0"/>
        <pt x="272" y="88" on="0"/>
        <pt x="293" y="67" on="0"/>
        <pt x="313" y="67" on="1"/>
        <pt x="346" y="67" on="0"/>
        <pt x="408" y="139" on="0"/>
        <pt x="424" y="223" on="1"/>
        <pt x="340" y="223" on="1"/>
      </contour>
      <contour>
        <pt x="533" y="765" on="1"/>
        <pt x="533" y="742" on="0"/>
        <pt x="514" y="708" on="0"/>
        <pt x="483" y="684" on="0"/>
        <pt x="443" y="672" on="0"/>
        <pt x="422" y="672" on="1"/>
        <pt x="382" y="672" on="0"/>
        <pt x="328" y="710" on="0"/>
        <pt x="328" y="751" on="1"/>
        <pt x="328" y="773" on="0"/>
        <pt x="346" y="808" on="0"/>
        <pt x="377" y="831" on="0"/>
        <pt x="418" y="843" on="0"/>
        <pt x="440" y="843" on="1"/>
        <pt x="479" y="843" on="0"/>
        <pt x="533" y="805" on="0"/>
      </contour>
    </TTGlyph>
    <TTGlyph name="H" xMin="0" yMin="0" xMax="692" yMax="635">
      <contour>
        <pt x="555" y="0" on="1"/>
        <pt x="339" y="0" on="1"/>
        <pt x="399" y="283" on="1"/>
        <pt x="276" y="283" on="1"/>
        <pt x="216" y="0" on="1"/>
        <pt x="0" y="0" on="1"/>
        <pt x="135" y="635" on="1"/>
        <pt x="352" y="635" on="1"/>
        <pt x="293" y="359" on="1"/>
        <pt x="415" y="359" on="1"/>
        <pt x="474" y="635" on="1"/>
        <pt x="692" y="635" on="1"/>
      </contour>
    </TTGlyph>
    <TTGlyph name="Hbar" xMin="19" yMin="0" xMax="769" yMax="635">
      <contour>
        <pt x="686" y="523" on="1"/>
        <pt x="769" y="523" on="1"/>
        <pt x="751" y="446" on="1"/>
        <pt x="670" y="446" on="1"/>
        <pt x="574" y="0" on="1"/>
        <pt x="358" y="0" on="1"/>
        <pt x="418" y="283" on="1"/>
        <pt x="295" y="283" on="1"/>
        <pt x="235" y="0" on="1"/>
        <pt x="19" y="0" on="1"/>
        <pt x="114" y="446" on="1"/>
        <pt x="30" y="446" on="1"/>
        <pt x="49" y="523" on="1"/>
        <pt x="130" y="523" on="1"/>
        <pt x="154" y="635" on="1"/>
        <pt x="371" y="635" on="1"/>
        <pt x="347" y="523" on="1"/>
        <pt x="469" y="523" on="1"/>
        <pt x="493" y="635" on="1"/>
        <pt x="711" y="635" on="1"/>
      </contour>
      <contour>
        <pt x="434" y="359" on="1"/>
        <pt x="452" y="446" on="1"/>
        <pt x="330" y="446" on="1"/>
        <pt x="312" y="359" on="1"/>
      </contour>
    </TTGlyph>
    <TTGlyph name="Hcircumflex" xMin="0" yMin="0" xMax="692" yMax="839">
      <contour>
        <pt x="555" y="0" on="1"/>
        <pt x="339" y="0" on="1"/>
        <pt x="399" y="283" on="1"/>
        <pt x="276" y="283" on="1"/>
        <pt x="216" y="0" on="1"/>
        <pt x="0" y="0" on="1"/>
        <pt x="135" y="635" on="1"/>
        <pt x="352" y="635" on="1"/>
        <pt x="293" y="359" on="1"/>
        <pt x="415" y="359" on="1"/>
        <pt x="474" y="635" on="1"/>
        <pt x="692" y="635" on="1"/>
      </contour>
      <contour>
        <pt x="233" y="693" on="1"/>
        <pt x="379" y="839" on="1"/>
        <pt x="528" y="839" on="1"/>
        <pt x="611" y="693" on="1"/>
        <pt x="535" y="693" on="1"/>
        <pt x="452" y="786" on="1"/>
        <pt x="319" y="693" on="1"/>
      </contour>
    </TTGlyph>
    <TTGlyph name="Hdotbelow" xMin="0" yMin="-218" xMax="692" yMax="635">
      <contour>
        <pt x="555" y="0" on="1"/>
        <pt x="339" y="0" on="1"/>
        <pt x="399" y="283" on="1"/>
        <pt x="276" y="283" on="1"/>
        <pt x="216" y="0" on="1"/>
        <pt x="0" y="0" on="1"/>
        <pt x="135" y="635" on="1"/>
        <pt x="352" y="635" on="1"/>
        <pt x="293" y="359" on="1"/>
        <pt x="415" y="359" on="1"/>
        <pt x="474" y="635" on="1"/>
        <pt x="692" y="635" on="1"/>
      </contour>
      <contour>
        <pt x="326" y="-144" on="1"/>
        <pt x="326" y="-162" on="0"/>
        <pt x="311" y="-190" on="0"/>
        <pt x="286" y="-208" on="0"/>
        <pt x="253" y="-218" on="0"/>
        <pt x="236" y="-218" on="1"/>
        <pt x="204" y="-218" on="0"/>
        <pt x="159" y="-188" on="0"/>
        <pt x="159" y="-154" on="1"/>
        <pt x="159" y="-118" on="0"/>
        <pt x="214" y="-81" on="0"/>
        <pt x="250" y="-81" on="1"/>
        <pt x="282" y="-81" on="0"/>
        <pt x="326" y="-111" on="0"/>
      </contour>
    </TTGlyph>
    <TTGlyph name="I" xMin="0" yMin="0" xMax="352" yMax="635">
      <contour>
        <pt x="216" y="0" on="1"/>
        <pt x="0" y="0" on="1"/>
        <pt x="135" y="635" on="1"/>
        <pt x="352" y="635" on="1"/>
      </contour>
    </TTGlyph>
    <TTGlyph name="IJ" xMin="0" yMin="-9" xMax="942" yMax="635">
      <contour>
        <pt x="216" y="0" on="1"/>
        <pt x="0" y="0" on="1"/>
        <pt x="135" y="635" on="1"/>
        <pt x="352" y="635" on="1"/>
      </contour>
      <contour>
        <pt x="336" y="235" on="1"/>
        <pt x="524" y="235" on="1"/>
        <pt x="524" y="232" on="0"/>
        <pt x="519" y="209" on="0"/>
        <pt x="513" y="177" on="0"/>
        <pt x="508" y="139" on="0"/>
        <pt x="508" y="123" on="1"/>
        <pt x="508" y="113" on="0"/>
        <pt x="512" y="91" on="0"/>
        <pt x="522" y="72" on="0"/>
        <pt x="541" y="59" on="0"/>
        <pt x="555" y="59" on="1"/>
        <pt x="581" y="59" on="0"/>
        <pt x="612" y="102" on="0"/>
        <pt x="624" y="159" on="1"/>
        <pt x="725" y="635" on="1"/>
        <pt x="942" y="635" on="1"/>
        <pt x="844" y="176" on="1"/>
        <pt x="831" y="117" on="0"/>
        <pt x="767" y="44" on="0"/>
        <pt x="684" y="4" on="0"/>
        <pt x="590" y="-9" on="0"/>
        <pt x="547" y="-9" on="1"/>
        <pt x="497" y="-9" on="0"/>
        <pt x="425" y="4" on="0"/>
        <pt x="370" y="28" on="0"/>
        <pt x="326" y="63" on="0"/>
        <pt x="304" y="84" on="1"/>
      </contour>
    </TTGlyph>
    <TTGlyph name="Iacute" xMin="0" yMin="0" xMax="455" yMax="839">
      <contour>
        <pt x="216" y="0" on="1"/>
        <pt x="0" y="0" on="1"/>
        <pt x="135" y="635" on="1"/>
        <pt x="352" y="635" on="1"/>
      </contour>
      <contour>
        <pt x="190" y="693" on="1"/>
        <pt x="283" y="839" on="1"/>
        <pt x="455" y="839" on="1"/>
        <pt x="276" y="693" on="1"/>
      </contour>
    </TTGlyph>
    <TTGlyph name="Ibreve" xMin="0" yMin="0" xMax="449" yMax="854">
      <contour>
        <pt x="216" y="0" on="1"/>
        <pt x="0" y="0" on="1"/>
        <pt x="135" y="635" on="1"/>
        <pt x="352" y="635" on="1"/>
      </contour>
      <contour>
        <pt x="258" y="693" on="1"/>
        <pt x="199" y="693" on="0"/>
        <pt x="129" y="752" on="0"/>
        <pt x="119" y="818" on="1"/>
        <pt x="170" y="839" on="1"/>
        <pt x="176" y="819" on="0"/>
        <pt x="198" y="794" on="0"/>
        <pt x="225" y="780" on="0"/>
        <pt x="254" y="775" on="0"/>
        <pt x="266" y="775" on="1"/>
        <pt x="308" y="775" on="0"/>
        <pt x="385" y="819" on="0"/>
        <pt x="411" y="854" on="1"/>
        <pt x="449" y="820" on="1"/>
        <pt x="411" y="751" on="0"/>
        <pt x="315" y="693" on="0"/>
      </contour>
    </TTGlyph>
    <TTGlyph name="Icircumflex" xMin="0" yMin="0" xMax="440" yMax="839">
      <contour>
        <pt x="216" y="0" on="1"/>
        <pt x="0" y="0" on="1"/>
        <pt x="135" y="635" on="1"/>
        <pt x="352" y="635" on="1"/>
      </contour>
      <contour>
        <pt x="62" y="693" on="1"/>
        <pt x="208" y="839" on="1"/>
        <pt x="357" y="839" on="1"/>
        <pt x="440" y="693" on="1"/>
        <pt x="364" y="693" on="1"/>
        <pt x="281" y="786" on="1"/>
        <pt x="148" y="693" on="1"/>
      </contour>
    </TTGlyph>
    <TTGlyph name="Idieresis" xMin="0" yMin="0" xMax="445" yMax="835">
      <contour>
        <pt x="216" y="0" on="1"/>
        <pt x="0" y="0" on="1"/>
        <pt x="135" y="635" on="1"/>
        <pt x="352" y="635" on="1"/>
      </contour>
      <contour>
        <pt x="162" y="835" on="1"/>
        <pt x="198" y="835" on="0"/>
        <pt x="232" y="794" on="0"/>
        <pt x="232" y="765" on="1"/>
        <pt x="232" y="733" on="0"/>
        <pt x="191" y="682" on="0"/>
        <pt x="151" y="682" on="1"/>
        <pt x="114" y="682" on="0"/>
        <pt x="80" y="723" on="0"/>
        <pt x="80" y="752" on="1"/>
        <pt x="80" y="784" on="0"/>
        <pt x="122" y="835" on="0"/>
      </contour>
      <contour>
        <pt x="374" y="835" on="1"/>
        <pt x="411" y="835" on="0"/>
        <pt x="445" y="794" on="0"/>
        <pt x="445" y="765" on="1"/>
        <pt x="445" y="733" on="0"/>
        <pt x="403" y="682" on="0"/>
        <pt x="363" y="682" on="1"/>
        <pt x="326" y="682" on="0"/>
        <pt x="292" y="723" on="0"/>
        <pt x="292" y="752" on="1"/>
        <pt x="292" y="784" on="0"/>
        <pt x="334" y="835" on="0"/>
      </contour>
    </TTGlyph>
    <TTGlyph name="Idotaccent" xMin="0" yMin="0" xMax="352" yMax="843">
      <contour>
        <pt x="216" y="0" on="1"/>
        <pt x="0" y="0" on="1"/>
        <pt x="135" y="635" on="1"/>
        <pt x="352" y="635" on="1"/>
      </contour>
      <contour>
        <pt x="352" y="765" on="1"/>
        <pt x="352" y="742" on="0"/>
        <pt x="333" y="708" on="0"/>
        <pt x="302" y="684" on="0"/>
        <pt x="262" y="672" on="0"/>
        <pt x="241" y="672" on="1"/>
        <pt x="201" y="672" on="0"/>
        <pt x="147" y="710" on="0"/>
        <pt x="147" y="751" on="1"/>
        <pt x="147" y="773" on="0"/>
        <pt x="165" y="808" on="0"/>
        <pt x="196" y="831" on="0"/>
        <pt x="237" y="843" on="0"/>
        <pt x="259" y="843" on="1"/>
        <pt x="298" y="843" on="0"/>
        <pt x="352" y="805" on="0"/>
      </contour>
    </TTGlyph>
    <TTGlyph name="Idotbelow" xMin="-4" yMin="-218" xMax="352" yMax="635">
      <contour>
        <pt x="216" y="0" on="1"/>
        <pt x="0" y="0" on="1"/>
        <pt x="135" y="635" on="1"/>
        <pt x="352" y="635" on="1"/>
      </contour>
      <contour>
        <pt x="163" y="-144" on="1"/>
        <pt x="163" y="-162" on="0"/>
        <pt x="148" y="-190" on="0"/>
        <pt x="123" y="-208" on="0"/>
        <pt x="90" y="-218" on="0"/>
        <pt x="73" y="-218" on="1"/>
        <pt x="41" y="-218" on="0"/>
        <pt x="-4" y="-188" on="0"/>
        <pt x="-4" y="-154" on="1"/>
        <pt x="-4" y="-118" on="0"/>
        <pt x="51" y="-81" on="0"/>
        <pt x="87" y="-81" on="1"/>
        <pt x="119" y="-81" on="0"/>
        <pt x="163" y="-111" on="0"/>
      </contour>
    </TTGlyph>
    <TTGlyph name="Igrave" xMin="0" yMin="0" xMax="352" yMax="839">
      <contour>
        <pt x="216" y="0" on="1"/>
        <pt x="0" y="0" on="1"/>
        <pt x="135" y="635" on="1"/>
        <pt x="352" y="635" on="1"/>
      </contour>
      <contour>
        <pt x="19" y="839" on="1"/>
        <pt x="192" y="839" on="1"/>
        <pt x="297" y="693" on="1"/>
        <pt x="204" y="693" on="1"/>
      </contour>
    </TTGlyph>
    <TTGlyph name="Imacron" xMin="0" yMin="0" xMax="458" yMax="807">
      <contour>
        <pt x="216" y="0" on="1"/>
        <pt x="0" y="0" on="1"/>
        <pt x="135" y="635" on="1"/>
        <pt x="352" y="635" on="1"/>
      </contour>
      <contour>
        <pt x="103" y="807" on="1"/>
        <pt x="458" y="807" on="1"/>
        <pt x="440" y="730" on="1"/>
        <pt x="84" y="730" on="1"/>
      </contour>
    </TTGlyph>
    <TTGlyph name="Iogonek" xMin="-48" yMin="-204" xMax="352" yMax="635">
      <contour>
        <pt x="216" y="0" on="1"/>
        <pt x="158" y="0" on="1"/>
        <pt x="144" y="-9" on="0"/>
        <pt x="117" y="-30" on="0"/>
        <pt x="94" y="-55" on="0"/>
        <pt x="80" y="-84" on="0"/>
        <pt x="80" y="-100" on="1"/>
        <pt x="80" y="-120" on="0"/>
        <pt x="98" y="-138" on="0"/>
        <pt x="111" y="-138" on="1"/>
        <pt x="120" y="-138" on="0"/>
        <pt x="145" y="-127" on="0"/>
        <pt x="163" y="-112" on="1"/>
        <pt x="186" y="-154" on="1"/>
        <pt x="156" y="-179" on="0"/>
        <pt x="76" y="-204" on="0"/>
        <pt x="38" y="-204" on="1"/>
        <pt x="-48" y="-204" on="0"/>
        <pt x="-48" y="-130" on="1"/>
        <pt x="-48" y="-105" on="0"/>
        <pt x="-28" y="-64" on="0"/>
        <pt x="4" y="-32" on="0"/>
        <pt x="43" y="-8" on="0"/>
        <pt x="63" y="0" on="1"/>
        <pt x="0" y="0" on="1"/>
        <pt x="135" y="635" on="1"/>
        <pt x="352" y="635" on="1"/>
      </contour>
    </TTGlyph>
    <TTGlyph name="Itilde" xMin="0" yMin="0" xMax="489" yMax="844">
      <contour>
        <pt x="216" y="0" on="1"/>
        <pt x="0" y="0" on="1"/>
        <pt x="135" y="635" on="1"/>
        <pt x="352" y="635" on="1"/>
      </contour>
      <contour>
        <pt x="489" y="819" on="1"/>
        <pt x="459" y="764" on="0"/>
        <pt x="399" y="710" on="0"/>
        <pt x="354" y="710" on="1"/>
        <pt x="336" y="710" on="0"/>
        <pt x="287" y="722" on="0"/>
        <pt x="236" y="735" on="0"/>
        <pt x="191" y="747" on="0"/>
        <pt x="177" y="747" on="1"/>
        <pt x="159" y="747" on="0"/>
        <pt x="121" y="723" on="0"/>
        <pt x="112" y="712" on="1"/>
        <pt x="79" y="741" on="1"/>
        <pt x="110" y="792" on="0"/>
        <pt x="173" y="844" on="0"/>
        <pt x="216" y="844" on="1"/>
        <pt x="232" y="844" on="0"/>
        <pt x="279" y="834" on="0"/>
        <pt x="328" y="821" on="0"/>
        <pt x="374" y="811" on="0"/>
        <pt x="389" y="811" on="1"/>
        <pt x="403" y="811" on="0"/>
        <pt x="442" y="830" on="0"/>
        <pt x="454" y="844" on="1"/>
      </contour>
    </TTGlyph>
    <TTGlyph name="J" xMin="-18" yMin="-9" xMax="620" yMax="635">
      <contour>
        <pt x="14" y="235" on="1"/>
        <pt x="202" y="235" on="1"/>
        <pt x="202" y="232" on="0"/>
        <pt x="197" y="209" on="0"/>
        <pt x="191" y="177" on="0"/>
        <pt x="186" y="139" on="0"/>
        <pt x="186" y="123" on="1"/>
        <pt x="186" y="113" on="0"/>
        <pt x="190" y="91" on="0"/>
        <pt x="200" y="72" on="0"/>
        <pt x="219" y="59" on="0"/>
        <pt x="233" y="59" on="1"/>
        <pt x="259" y="59" on="0"/>
        <pt x="290" y="102" on="0"/>
        <pt x="302" y="159" on="1"/>
        <pt x="403" y="635" on="1"/>
        <pt x="620" y="635" on="1"/>
        <pt x="522" y="176" on="1"/>
        <pt x="509" y="117" on="0"/>
        <pt x="445" y="44" on="0"/>
        <pt x="362" y="4" on="0"/>
        <pt x="268" y="-9" on="0"/>
        <pt x="225" y="-9" on="1"/>
        <pt x="175" y="-9" on="0"/>
        <pt x="103" y="4" on="0"/>
        <pt x="48" y="28" on="0"/>
        <pt x="4" y="63" on="0"/>
        <pt x="-18" y="84" on="1"/>
      </contour>
    </TTGlyph>
    <TTGlyph name="Jcircumflex" xMin="-18" yMin="-9" xMax="706" yMax="839">
      <contour>
        <pt x="14" y="235" on="1"/>
        <pt x="202" y="235" on="1"/>
        <pt x="202" y="232" on="0"/>
        <pt x="197" y="209" on="0"/>
        <pt x="191" y="177" on="0"/>
        <pt x="186" y="139" on="0"/>
        <pt x="186" y="123" on="1"/>
        <pt x="186" y="113" on="0"/>
        <pt x="190" y="91" on="0"/>
        <pt x="200" y="72" on="0"/>
        <pt x="219" y="59" on="0"/>
        <pt x="233" y="59" on="1"/>
        <pt x="259" y="59" on="0"/>
        <pt x="290" y="102" on="0"/>
        <pt x="302" y="159" on="1"/>
        <pt x="403" y="635" on="1"/>
        <pt x="620" y="635" on="1"/>
        <pt x="522" y="176" on="1"/>
        <pt x="509" y="117" on="0"/>
        <pt x="445" y="44" on="0"/>
        <pt x="362" y="4" on="0"/>
        <pt x="268" y="-9" on="0"/>
        <pt x="225" y="-9" on="1"/>
        <pt x="175" y="-9" on="0"/>
        <pt x="103" y="4" on="0"/>
        <pt x="48" y="28" on="0"/>
        <pt x="4" y="63" on="0"/>
        <pt x="-18" y="84" on="1"/>
      </contour>
      <contour>
        <pt x="328" y="693" on="1"/>
        <pt x="474" y="839" on="1"/>
        <pt x="623" y="839" on="1"/>
        <pt x="706" y="693" on="1"/>
        <pt x="630" y="693" on="1"/>
        <pt x="547" y="786" on="1"/>
        <pt x="414" y="693" on="1"/>
      </contour>
    </TTGlyph>
    <TTGlyph name="K" xMin="0" yMin="0" xMax="653" yMax="636">
      <contour>
        <pt x="293" y="359" on="1"/>
        <pt x="540" y="636" on="1"/>
        <pt x="653" y="636" on="1"/>
        <pt x="429" y="393" on="1"/>
        <pt x="581" y="0" on="1"/>
        <pt x="363" y="0" on="1"/>
        <pt x="275" y="279" on="1"/>
        <pt x="216" y="0" on="1"/>
        <pt x="0" y="0" on="1"/>
        <pt x="135" y="635" on="1"/>
        <pt x="352" y="635" on="1"/>
      </contour>
    </TTGlyph>
    <TTGlyph name="Kcommaaccent" xMin="0" yMin="-284" xMax="653" yMax="636">
      <contour>
        <pt x="293" y="359" on="1"/>
        <pt x="540" y="636" on="1"/>
        <pt x="653" y="636" on="1"/>
        <pt x="429" y="393" on="1"/>
        <pt x="581" y="0" on="1"/>
        <pt x="363" y="0" on="1"/>
        <pt x="275" y="279" on="1"/>
        <pt x="216" y="0" on="1"/>
        <pt x="0" y="0" on="1"/>
        <pt x="135" y="635" on="1"/>
        <pt x="352" y="635" on="1"/>
      </contour>
      <contour>
        <pt x="333" y="-127" on="1"/>
        <pt x="333" y="-153" on="0"/>
        <pt x="308" y="-201" on="0"/>
        <pt x="268" y="-242" on="0"/>
        <pt x="220" y="-274" on="0"/>
        <pt x="196" y="-284" on="1"/>
        <pt x="175" y="-254" on="1"/>
        <pt x="200" y="-235" on="0"/>
        <pt x="227" y="-203" on="0"/>
        <pt x="227" y="-187" on="1"/>
        <pt x="227" y="-162" on="0"/>
        <pt x="187" y="-135" on="1"/>
        <pt x="187" y="-100" on="0"/>
        <pt x="235" y="-62" on="0"/>
        <pt x="267" y="-62" on="1"/>
        <pt x="296" y="-62" on="0"/>
        <pt x="333" y="-94" on="0"/>
      </contour>
    </TTGlyph>
    <TTGlyph name="L" xMin="0" yMin="0" xMax="437" yMax="635">
      <contour>
        <pt x="135" y="635" on="1"/>
        <pt x="352" y="635" on="1"/>
        <pt x="234" y="84" on="1"/>
        <pt x="437" y="84" on="1"/>
        <pt x="420" y="0" on="1"/>
        <pt x="0" y="0" on="1"/>
      </contour>
    </TTGlyph>
    <TTGlyph name="Lacute" xMin="0" yMin="0" xMax="474" yMax="839">
      <contour>
        <pt x="135" y="635" on="1"/>
        <pt x="352" y="635" on="1"/>
        <pt x="234" y="84" on="1"/>
        <pt x="437" y="84" on="1"/>
        <pt x="420" y="0" on="1"/>
        <pt x="0" y="0" on="1"/>
      </contour>
      <contour>
        <pt x="209" y="693" on="1"/>
        <pt x="302" y="839" on="1"/>
        <pt x="474" y="839" on="1"/>
        <pt x="295" y="693" on="1"/>
      </contour>
    </TTGlyph>
    <TTGlyph name="Lcaron" xMin="0" yMin="0" xMax="485" yMax="839">
      <contour>
        <pt x="135" y="635" on="1"/>
        <pt x="352" y="635" on="1"/>
        <pt x="234" y="84" on="1"/>
        <pt x="437" y="84" on="1"/>
        <pt x="420" y="0" on="1"/>
        <pt x="0" y="0" on="1"/>
      </contour>
      <contour>
        <pt x="485" y="839" on="1"/>
        <pt x="339" y="693" on="1"/>
        <pt x="190" y="693" on="1"/>
        <pt x="107" y="839" on="1"/>
        <pt x="184" y="839" on="1"/>
        <pt x="267" y="747" on="1"/>
        <pt x="399" y="839" on="1"/>
      </contour>
    </TTGlyph>
    <TTGlyph name="Lcommaaccent" xMin="0" yMin="-284" xMax="437" yMax="635">
      <contour>
        <pt x="135" y="635" on="1"/>
        <pt x="352" y="635" on="1"/>
        <pt x="234" y="84" on="1"/>
        <pt x="437" y="84" on="1"/>
        <pt x="420" y="0" on="1"/>
        <pt x="0" y="0" on="1"/>
      </contour>
      <contour>
        <pt x="264" y="-127" on="1"/>
        <pt x="264" y="-153" on="0"/>
        <pt x="239" y="-201" on="0"/>
        <pt x="199" y="-242" on="0"/>
        <pt x="151" y="-274" on="0"/>
        <pt x="127" y="-284" on="1"/>
        <pt x="106" y="-254" on="1"/>
        <pt x="131" y="-235" on="0"/>
        <pt x="158" y="-203" on="0"/>
        <pt x="158" y="-187" on="1"/>
        <pt x="158" y="-162" on="0"/>
        <pt x="118" y="-135" on="1"/>
        <pt x="118" y="-100" on="0"/>
        <pt x="166" y="-62" on="0"/>
        <pt x="198" y="-62" on="1"/>
        <pt x="227" y="-62" on="0"/>
        <pt x="264" y="-94" on="0"/>
      </contour>
    </TTGlyph>
    <TTGlyph name="Ldot" xMin="0" yMin="0" xMax="516" yMax="635">
      <contour>
        <pt x="135" y="635" on="1"/>
        <pt x="352" y="635" on="1"/>
        <pt x="234" y="84" on="1"/>
        <pt x="437" y="84" on="1"/>
        <pt x="420" y="0" on="1"/>
        <pt x="0" y="0" on="1"/>
      </contour>
      <contour>
        <pt x="516" y="311" on="1"/>
        <pt x="516" y="288" on="0"/>
        <pt x="497" y="254" on="0"/>
        <pt x="466" y="230" on="0"/>
        <pt x="426" y="218" on="0"/>
        <pt x="405" y="218" on="1"/>
        <pt x="365" y="218" on="0"/>
        <pt x="311" y="256" on="0"/>
        <pt x="311" y="297" on="1"/>
        <pt x="311" y="319" on="0"/>
        <pt x="329" y="354" on="0"/>
        <pt x="360" y="377" on="0"/>
        <pt x="401" y="389" on="0"/>
        <pt x="423" y="389" on="1"/>
        <pt x="462" y="389" on="0"/>
        <pt x="516" y="351" on="0"/>
      </contour>
    </TTGlyph>
    <TTGlyph name="Lslash" xMin="-8" yMin="0" xMax="470" yMax="635">
      <contour>
        <pt x="8" y="338" on="1"/>
        <pt x="109" y="356" on="1"/>
        <pt x="168" y="635" on="1"/>
        <pt x="385" y="635" on="1"/>
        <pt x="334" y="397" on="1"/>
        <pt x="433" y="415" on="1"/>
        <pt x="412" y="318" on="1"/>
        <pt x="313" y="300" on="1"/>
        <pt x="267" y="84" on="1"/>
        <pt x="470" y="84" on="1"/>
        <pt x="453" y="0" on="1"/>
        <pt x="33" y="0" on="1"/>
        <pt x="88" y="260" on="1"/>
        <pt x="-8" y="243" on="1"/>
      </contour>
    </TTGlyph>
    <TTGlyph name="M" xMin="0" yMin="0" xMax="870" yMax="635">
      <contour>
        <pt x="734" y="0" on="1"/>
        <pt x="512" y="0" on="1"/>
        <pt x="604" y="432" on="1"/>
        <pt x="367" y="0" on="1"/>
        <pt x="231" y="0" on="1"/>
        <pt x="186" y="447" on="1"/>
        <pt x="90" y="0" on="1"/>
        <pt x="0" y="0" on="1"/>
        <pt x="135" y="635" on="1"/>
        <pt x="390" y="635" on="1"/>
        <pt x="421" y="277" on="1"/>
        <pt x="613" y="635" on="1"/>
        <pt x="870" y="635" on="1"/>
      </contour>
    </TTGlyph>
    <TTGlyph name="N" xMin="0" yMin="0" xMax="670" yMax="635">
      <contour>
        <pt x="533" y="0" on="1"/>
        <pt x="299" y="0" on="1"/>
        <pt x="188" y="459" on="1"/>
        <pt x="90" y="0" on="1"/>
        <pt x="0" y="0" on="1"/>
        <pt x="135" y="635" on="1"/>
        <pt x="374" y="635" on="1"/>
        <pt x="479" y="170" on="1"/>
        <pt x="578" y="635" on="1"/>
        <pt x="670" y="635" on="1"/>
      </contour>
    </TTGlyph>
    <TTGlyph name="Nacute" xMin="0" yMin="0" xMax="670" yMax="839">
      <contour>
        <pt x="533" y="0" on="1"/>
        <pt x="299" y="0" on="1"/>
        <pt x="188" y="459" on="1"/>
        <pt x="90" y="0" on="1"/>
        <pt x="0" y="0" on="1"/>
        <pt x="135" y="635" on="1"/>
        <pt x="374" y="635" on="1"/>
        <pt x="479" y="170" on="1"/>
        <pt x="578" y="635" on="1"/>
        <pt x="670" y="635" on="1"/>
      </contour>
      <contour>
        <pt x="366" y="693" on="1"/>
        <pt x="459" y="839" on="1"/>
        <pt x="631" y="839" on="1"/>
        <pt x="452" y="693" on="1"/>
      </contour>
    </TTGlyph>
    <TTGlyph name="Ncaron" xMin="0" yMin="0" xMax="670" yMax="839">
      <contour>
        <pt x="533" y="0" on="1"/>
        <pt x="299" y="0" on="1"/>
        <pt x="188" y="459" on="1"/>
        <pt x="90" y="0" on="1"/>
        <pt x="0" y="0" on="1"/>
        <pt x="135" y="635" on="1"/>
        <pt x="374" y="635" on="1"/>
        <pt x="479" y="170" on="1"/>
        <pt x="578" y="635" on="1"/>
        <pt x="670" y="635" on="1"/>
      </contour>
      <contour>
        <pt x="616" y="839" on="1"/>
        <pt x="470" y="693" on="1"/>
        <pt x="321" y="693" on="1"/>
        <pt x="238" y="839" on="1"/>
        <pt x="315" y="839" on="1"/>
        <pt x="398" y="747" on="1"/>
        <pt x="530" y="839" on="1"/>
      </contour>
    </TTGlyph>
    <TTGlyph name="Ncommaaccent" xMin="0" yMin="-284" xMax="670" yMax="635">
      <contour>
        <pt x="533" y="0" on="1"/>
        <pt x="299" y="0" on="1"/>
        <pt x="188" y="459" on="1"/>
        <pt x="90" y="0" on="1"/>
        <pt x="0" y="0" on="1"/>
        <pt x="135" y="635" on="1"/>
        <pt x="374" y="635" on="1"/>
        <pt x="479" y="170" on="1"/>
        <pt x="578" y="635" on="1"/>
        <pt x="670" y="635" on="1"/>
      </contour>
      <contour>
        <pt x="334" y="-127" on="1"/>
        <pt x="334" y="-153" on="0"/>
        <pt x="309" y="-201" on="0"/>
        <pt x="269" y="-242" on="0"/>
        <pt x="221" y="-274" on="0"/>
        <pt x="197" y="-284" on="1"/>
        <pt x="176" y="-254" on="1"/>
        <pt x="201" y="-235" on="0"/>
        <pt x="228" y="-203" on="0"/>
        <pt x="228" y="-187" on="1"/>
        <pt x="228" y="-162" on="0"/>
        <pt x="188" y="-135" on="1"/>
        <pt x="188" y="-100" on="0"/>
        <pt x="236" y="-62" on="0"/>
        <pt x="268" y="-62" on="1"/>
        <pt x="297" y="-62" on="0"/>
        <pt x="334" y="-94" on="0"/>
      </contour>
    </TTGlyph>
    <TTGlyph name="Ndotaccent" xMin="0" yMin="0" xMax="670" yMax="843">
      <contour>
        <pt x="533" y="0" on="1"/>
        <pt x="299" y="0" on="1"/>
        <pt x="188" y="459" on="1"/>
        <pt x="90" y="0" on="1"/>
        <pt x="0" y="0" on="1"/>
        <pt x="135" y="635" on="1"/>
        <pt x="374" y="635" on="1"/>
        <pt x="479" y="170" on="1"/>
        <pt x="578" y="635" on="1"/>
        <pt x="670" y="635" on="1"/>
      </contour>
      <contour>
        <pt x="541" y="765" on="1"/>
        <pt x="541" y="742" on="0"/>
        <pt x="522" y="708" on="0"/>
        <pt x="491" y="684" on="0"/>
        <pt x="451" y="672" on="0"/>
        <pt x="430" y="672" on="1"/>
        <pt x="390" y="672" on="0"/>
        <pt x="336" y="710" on="0"/>
        <pt x="336" y="751" on="1"/>
        <pt x="336" y="773" on="0"/>
        <pt x="354" y="808" on="0"/>
        <pt x="385" y="831" on="0"/>
        <pt x="426" y="843" on="0"/>
        <pt x="448" y="843" on="1"/>
        <pt x="487" y="843" on="0"/>
        <pt x="541" y="805" on="0"/>
      </contour>
    </TTGlyph>
    <TTGlyph name="Ntilde" xMin="0" yMin="0" xMax="670" yMax="844">
      <contour>
        <pt x="533" y="0" on="1"/>
        <pt x="299" y="0" on="1"/>
        <pt x="188" y="459" on="1"/>
        <pt x="90" y="0" on="1"/>
        <pt x="0" y="0" on="1"/>
        <pt x="135" y="635" on="1"/>
        <pt x="374" y="635" on="1"/>
        <pt x="479" y="170" on="1"/>
        <pt x="578" y="635" on="1"/>
        <pt x="670" y="635" on="1"/>
      </contour>
      <contour>
        <pt x="644" y="819" on="1"/>
        <pt x="614" y="764" on="0"/>
        <pt x="554" y="710" on="0"/>
        <pt x="509" y="710" on="1"/>
        <pt x="491" y="710" on="0"/>
        <pt x="442" y="722" on="0"/>
        <pt x="391" y="735" on="0"/>
        <pt x="346" y="747" on="0"/>
        <pt x="332" y="747" on="1"/>
        <pt x="314" y="747" on="0"/>
        <pt x="276" y="723" on="0"/>
        <pt x="267" y="712" on="1"/>
        <pt x="234" y="741" on="1"/>
        <pt x="265" y="792" on="0"/>
        <pt x="328" y="844" on="0"/>
        <pt x="371" y="844" on="1"/>
        <pt x="387" y="844" on="0"/>
        <pt x="434" y="834" on="0"/>
        <pt x="483" y="821" on="0"/>
        <pt x="529" y="811" on="0"/>
        <pt x="544" y="811" on="1"/>
        <pt x="558" y="811" on="0"/>
        <pt x="597" y="830" on="0"/>
        <pt x="609" y="844" on="1"/>
      </contour>
    </TTGlyph>
    <TTGlyph name="O" xMin="35" yMin="-8" xMax="677" yMax="645">
      <contour>
        <pt x="411" y="645" on="1"/>
        <pt x="497" y="645" on="0"/>
        <pt x="604" y="601" on="0"/>
        <pt x="635" y="555" on="1"/>
        <pt x="655" y="524" on="0"/>
        <pt x="677" y="446" on="0"/>
        <pt x="677" y="395" on="1"/>
        <pt x="677" y="351" on="0"/>
        <pt x="661" y="263" on="0"/>
        <pt x="632" y="182" on="0"/>
        <pt x="591" y="111" on="0"/>
        <pt x="566" y="84" on="1"/>
        <pt x="519" y="33" on="0"/>
        <pt x="396" y="-8" on="0"/>
        <pt x="306" y="-8" on="1"/>
        <pt x="219" y="-8" on="0"/>
        <pt x="113" y="28" on="0"/>
        <pt x="82" y="68" on="1"/>
        <pt x="60" y="96" on="0"/>
        <pt x="35" y="182" on="0"/>
        <pt x="35" y="247" on="1"/>
        <pt x="35" y="358" on="0"/>
        <pt x="114" y="533" on="0"/>
        <pt x="187" y="584" on="1"/>
        <pt x="231" y="615" on="0"/>
        <pt x="339" y="645" on="0"/>
      </contour>
      <contour>
        <pt x="298" y="62" on="1"/>
        <pt x="321" y="62" on="0"/>
        <pt x="362" y="103" on="0"/>
        <pt x="397" y="172" on="0"/>
        <pt x="426" y="260" on="0"/>
        <pt x="446" y="354" on="0"/>
        <pt x="457" y="447" on="0"/>
        <pt x="457" y="485" on="1"/>
        <pt x="457" y="537" on="0"/>
        <pt x="436" y="576" on="0"/>
        <pt x="416" y="576" on="1"/>
        <pt x="393" y="576" on="0"/>
        <pt x="351" y="536" on="0"/>
        <pt x="314" y="469" on="0"/>
        <pt x="285" y="382" on="0"/>
        <pt x="264" y="290" on="0"/>
        <pt x="253" y="200" on="0"/>
        <pt x="253" y="162" on="1"/>
        <pt x="253" y="105" on="0"/>
        <pt x="278" y="62" on="0"/>
      </contour>
    </TTGlyph>
    <TTGlyph name="OE" xMin="34" yMin="-8" xMax="927" yMax="640">
      <contour>
        <pt x="412" y="640" on="1"/>
        <pt x="444" y="640" on="0"/>
        <pt x="490" y="639" on="0"/>
        <pt x="508" y="635" on="1"/>
        <pt x="927" y="635" on="1"/>
        <pt x="911" y="559" on="1"/>
        <pt x="707" y="559" on="1"/>
        <pt x="665" y="366" on="1"/>
        <pt x="836" y="366" on="1"/>
        <pt x="820" y="291" on="1"/>
        <pt x="649" y="291" on="1"/>
        <pt x="603" y="77" on="1"/>
        <pt x="807" y="77" on="1"/>
        <pt x="792" y="0" on="1"/>
        <pt x="406" y="0" on="1"/>
        <pt x="383" y="-4" on="0"/>
        <pt x="332" y="-8" on="0"/>
        <pt x="304" y="-8" on="1"/>
        <pt x="218" y="-8" on="0"/>
        <pt x="112" y="28" on="0"/>
        <pt x="81" y="68" on="1"/>
        <pt x="34" y="127" on="0"/>
        <pt x="34" y="245" on="1"/>
        <pt x="34" y="352" on="0"/>
        <pt x="113" y="527" on="0"/>
        <pt x="185" y="577" on="1"/>
        <pt x="230" y="608" on="0"/>
        <pt x="340" y="640" on="0"/>
      </contour>
      <contour>
        <pt x="297" y="62" on="1"/>
        <pt x="320" y="62" on="0"/>
        <pt x="361" y="103" on="0"/>
        <pt x="396" y="171" on="0"/>
        <pt x="425" y="259" on="0"/>
        <pt x="445" y="351" on="0"/>
        <pt x="456" y="442" on="0"/>
        <pt x="456" y="480" on="1"/>
        <pt x="456" y="531" on="0"/>
        <pt x="435" y="570" on="0"/>
        <pt x="415" y="570" on="1"/>
        <pt x="392" y="570" on="0"/>
        <pt x="350" y="530" on="0"/>
        <pt x="313" y="464" on="0"/>
        <pt x="284" y="378" on="0"/>
        <pt x="263" y="287" on="0"/>
        <pt x="252" y="198" on="0"/>
        <pt x="252" y="161" on="1"/>
        <pt x="252" y="105" on="0"/>
        <pt x="277" y="62" on="0"/>
      </contour>
    </TTGlyph>
    <TTGlyph name="Oacute" xMin="35" yMin="-8" xMax="677" yMax="839">
      <contour>
        <pt x="411" y="645" on="1"/>
        <pt x="497" y="645" on="0"/>
        <pt x="604" y="601" on="0"/>
        <pt x="635" y="555" on="1"/>
        <pt x="655" y="524" on="0"/>
        <pt x="677" y="446" on="0"/>
        <pt x="677" y="395" on="1"/>
        <pt x="677" y="351" on="0"/>
        <pt x="661" y="263" on="0"/>
        <pt x="632" y="182" on="0"/>
        <pt x="591" y="111" on="0"/>
        <pt x="566" y="84" on="1"/>
        <pt x="519" y="33" on="0"/>
        <pt x="396" y="-8" on="0"/>
        <pt x="306" y="-8" on="1"/>
        <pt x="219" y="-8" on="0"/>
        <pt x="113" y="28" on="0"/>
        <pt x="82" y="68" on="1"/>
        <pt x="60" y="96" on="0"/>
        <pt x="35" y="182" on="0"/>
        <pt x="35" y="247" on="1"/>
        <pt x="35" y="358" on="0"/>
        <pt x="114" y="533" on="0"/>
        <pt x="187" y="584" on="1"/>
        <pt x="231" y="615" on="0"/>
        <pt x="339" y="645" on="0"/>
      </contour>
      <contour>
        <pt x="298" y="62" on="1"/>
        <pt x="321" y="62" on="0"/>
        <pt x="362" y="103" on="0"/>
        <pt x="397" y="172" on="0"/>
        <pt x="426" y="260" on="0"/>
        <pt x="446" y="354" on="0"/>
        <pt x="457" y="447" on="0"/>
        <pt x="457" y="485" on="1"/>
        <pt x="457" y="537" on="0"/>
        <pt x="436" y="576" on="0"/>
        <pt x="416" y="576" on="1"/>
        <pt x="393" y="576" on="0"/>
        <pt x="351" y="536" on="0"/>
        <pt x="314" y="469" on="0"/>
        <pt x="285" y="382" on="0"/>
        <pt x="264" y="290" on="0"/>
        <pt x="253" y="200" on="0"/>
        <pt x="253" y="162" on="1"/>
        <pt x="253" y="105" on="0"/>
        <pt x="278" y="62" on="0"/>
      </contour>
      <contour>
        <pt x="386" y="693" on="1"/>
        <pt x="479" y="839" on="1"/>
        <pt x="651" y="839" on="1"/>
        <pt x="472" y="693" on="1"/>
      </contour>
    </TTGlyph>
    <TTGlyph name="Obreve" xMin="35" yMin="-8" xMax="677" yMax="854">
      <contour>
        <pt x="411" y="645" on="1"/>
        <pt x="497" y="645" on="0"/>
        <pt x="604" y="601" on="0"/>
        <pt x="635" y="555" on="1"/>
        <pt x="655" y="524" on="0"/>
        <pt x="677" y="446" on="0"/>
        <pt x="677" y="395" on="1"/>
        <pt x="677" y="351" on="0"/>
        <pt x="661" y="263" on="0"/>
        <pt x="632" y="182" on="0"/>
        <pt x="591" y="111" on="0"/>
        <pt x="566" y="84" on="1"/>
        <pt x="519" y="33" on="0"/>
        <pt x="396" y="-8" on="0"/>
        <pt x="306" y="-8" on="1"/>
        <pt x="219" y="-8" on="0"/>
        <pt x="113" y="28" on="0"/>
        <pt x="82" y="68" on="1"/>
        <pt x="60" y="96" on="0"/>
        <pt x="35" y="182" on="0"/>
        <pt x="35" y="247" on="1"/>
        <pt x="35" y="358" on="0"/>
        <pt x="114" y="533" on="0"/>
        <pt x="187" y="584" on="1"/>
        <pt x="231" y="615" on="0"/>
        <pt x="339" y="645" on="0"/>
      </contour>
      <contour>
        <pt x="298" y="62" on="1"/>
        <pt x="321" y="62" on="0"/>
        <pt x="362" y="103" on="0"/>
        <pt x="397" y="172" on="0"/>
        <pt x="426" y="260" on="0"/>
        <pt x="446" y="354" on="0"/>
        <pt x="457" y="447" on="0"/>
        <pt x="457" y="485" on="1"/>
        <pt x="457" y="537" on="0"/>
        <pt x="436" y="576" on="0"/>
        <pt x="416" y="576" on="1"/>
        <pt x="393" y="576" on="0"/>
        <pt x="351" y="536" on="0"/>
        <pt x="314" y="469" on="0"/>
        <pt x="285" y="382" on="0"/>
        <pt x="264" y="290" on="0"/>
        <pt x="253" y="200" on="0"/>
        <pt x="253" y="162" on="1"/>
        <pt x="253" y="105" on="0"/>
        <pt x="278" y="62" on="0"/>
      </contour>
      <contour>
        <pt x="434" y="693" on="1"/>
        <pt x="375" y="693" on="0"/>
        <pt x="305" y="752" on="0"/>
        <pt x="295" y="818" on="1"/>
        <pt x="346" y="839" on="1"/>
        <pt x="352" y="819" on="0"/>
        <pt x="374" y="794" on="0"/>
        <pt x="401" y="780" on="0"/>
        <pt x="430" y="775" on="0"/>
        <pt x="442" y="775" on="1"/>
        <pt x="484" y="775" on="0"/>
        <pt x="561" y="819" on="0"/>
        <pt x="587" y="854" on="1"/>
        <pt x="625" y="820" on="1"/>
        <pt x="587" y="751" on="0"/>
        <pt x="491" y="693" on="0"/>
      </contour>
    </TTGlyph>
    <TTGlyph name="Ocircumflex" xMin="35" yMin="-8" xMax="677" yMax="839">
      <contour>
        <pt x="411" y="645" on="1"/>
        <pt x="497" y="645" on="0"/>
        <pt x="604" y="601" on="0"/>
        <pt x="635" y="555" on="1"/>
        <pt x="655" y="524" on="0"/>
        <pt x="677" y="446" on="0"/>
        <pt x="677" y="395" on="1"/>
        <pt x="677" y="351" on="0"/>
        <pt x="661" y="263" on="0"/>
        <pt x="632" y="182" on="0"/>
        <pt x="591" y="111" on="0"/>
        <pt x="566" y="84" on="1"/>
        <pt x="519" y="33" on="0"/>
        <pt x="396" y="-8" on="0"/>
        <pt x="306" y="-8" on="1"/>
        <pt x="219" y="-8" on="0"/>
        <pt x="113" y="28" on="0"/>
        <pt x="82" y="68" on="1"/>
        <pt x="60" y="96" on="0"/>
        <pt x="35" y="182" on="0"/>
        <pt x="35" y="247" on="1"/>
        <pt x="35" y="358" on="0"/>
        <pt x="114" y="533" on="0"/>
        <pt x="187" y="584" on="1"/>
        <pt x="231" y="615" on="0"/>
        <pt x="339" y="645" on="0"/>
      </contour>
      <contour>
        <pt x="298" y="62" on="1"/>
        <pt x="321" y="62" on="0"/>
        <pt x="362" y="103" on="0"/>
        <pt x="397" y="172" on="0"/>
        <pt x="426" y="260" on="0"/>
        <pt x="446" y="354" on="0"/>
        <pt x="457" y="447" on="0"/>
        <pt x="457" y="485" on="1"/>
        <pt x="457" y="537" on="0"/>
        <pt x="436" y="576" on="0"/>
        <pt x="416" y="576" on="1"/>
        <pt x="393" y="576" on="0"/>
        <pt x="351" y="536" on="0"/>
        <pt x="314" y="469" on="0"/>
        <pt x="285" y="382" on="0"/>
        <pt x="264" y="290" on="0"/>
        <pt x="253" y="200" on="0"/>
        <pt x="253" y="162" on="1"/>
        <pt x="253" y="105" on="0"/>
        <pt x="278" y="62" on="0"/>
      </contour>
      <contour>
        <pt x="258" y="693" on="1"/>
        <pt x="404" y="839" on="1"/>
        <pt x="553" y="839" on="1"/>
        <pt x="636" y="693" on="1"/>
        <pt x="560" y="693" on="1"/>
        <pt x="477" y="786" on="1"/>
        <pt x="344" y="693" on="1"/>
      </contour>
    </TTGlyph>
    <TTGlyph name="Odieresis" xMin="35" yMin="-8" xMax="677" yMax="835">
      <contour>
        <pt x="411" y="645" on="1"/>
        <pt x="497" y="645" on="0"/>
        <pt x="604" y="601" on="0"/>
        <pt x="635" y="555" on="1"/>
        <pt x="655" y="524" on="0"/>
        <pt x="677" y="446" on="0"/>
        <pt x="677" y="395" on="1"/>
        <pt x="677" y="351" on="0"/>
        <pt x="661" y="263" on="0"/>
        <pt x="632" y="182" on="0"/>
        <pt x="591" y="111" on="0"/>
        <pt x="566" y="84" on="1"/>
        <pt x="519" y="33" on="0"/>
        <pt x="396" y="-8" on="0"/>
        <pt x="306" y="-8" on="1"/>
        <pt x="219" y="-8" on="0"/>
        <pt x="113" y="28" on="0"/>
        <pt x="82" y="68" on="1"/>
        <pt x="60" y="96" on="0"/>
        <pt x="35" y="182" on="0"/>
        <pt x="35" y="247" on="1"/>
        <pt x="35" y="358" on="0"/>
        <pt x="114" y="533" on="0"/>
        <pt x="187" y="584" on="1"/>
        <pt x="231" y="615" on="0"/>
        <pt x="339" y="645" on="0"/>
      </contour>
      <contour>
        <pt x="298" y="62" on="1"/>
        <pt x="321" y="62" on="0"/>
        <pt x="362" y="103" on="0"/>
        <pt x="397" y="172" on="0"/>
        <pt x="426" y="260" on="0"/>
        <pt x="446" y="354" on="0"/>
        <pt x="457" y="447" on="0"/>
        <pt x="457" y="485" on="1"/>
        <pt x="457" y="537" on="0"/>
        <pt x="436" y="576" on="0"/>
        <pt x="416" y="576" on="1"/>
        <pt x="393" y="576" on="0"/>
        <pt x="351" y="536" on="0"/>
        <pt x="314" y="469" on="0"/>
        <pt x="285" y="382" on="0"/>
        <pt x="264" y="290" on="0"/>
        <pt x="253" y="200" on="0"/>
        <pt x="253" y="162" on="1"/>
        <pt x="253" y="105" on="0"/>
        <pt x="278" y="62" on="0"/>
      </contour>
      <contour>
        <pt x="343" y="835" on="1"/>
        <pt x="379" y="835" on="0"/>
        <pt x="413" y="794" on="0"/>
        <pt x="413" y="765" on="1"/>
        <pt x="413" y="733" on="0"/>
        <pt x="372" y="682" on="0"/>
        <pt x="332" y="682" on="1"/>
        <pt x="295" y="682" on="0"/>
        <pt x="261" y="723" on="0"/>
        <pt x="261" y="752" on="1"/>
        <pt x="261" y="784" on="0"/>
        <pt x="303" y="835" on="0"/>
      </contour>
      <contour>
        <pt x="555" y="835" on="1"/>
        <pt x="592" y="835" on="0"/>
        <pt x="626" y="794" on="0"/>
        <pt x="626" y="765" on="1"/>
        <pt x="626" y="733" on="0"/>
        <pt x="584" y="682" on="0"/>
        <pt x="544" y="682" on="1"/>
        <pt x="507" y="682" on="0"/>
        <pt x="473" y="723" on="0"/>
        <pt x="473" y="752" on="1"/>
        <pt x="473" y="784" on="0"/>
        <pt x="515" y="835" on="0"/>
      </contour>
    </TTGlyph>
    <TTGlyph name="Odotbelow" xMin="35" yMin="-218" xMax="677" yMax="645">
      <contour>
        <pt x="411" y="645" on="1"/>
        <pt x="497" y="645" on="0"/>
        <pt x="604" y="601" on="0"/>
        <pt x="635" y="555" on="1"/>
        <pt x="655" y="524" on="0"/>
        <pt x="677" y="446" on="0"/>
        <pt x="677" y="395" on="1"/>
        <pt x="677" y="351" on="0"/>
        <pt x="661" y="263" on="0"/>
        <pt x="632" y="182" on="0"/>
        <pt x="591" y="111" on="0"/>
        <pt x="566" y="84" on="1"/>
        <pt x="519" y="33" on="0"/>
        <pt x="396" y="-8" on="0"/>
        <pt x="306" y="-8" on="1"/>
        <pt x="219" y="-8" on="0"/>
        <pt x="113" y="28" on="0"/>
        <pt x="82" y="68" on="1"/>
        <pt x="60" y="96" on="0"/>
        <pt x="35" y="182" on="0"/>
        <pt x="35" y="247" on="1"/>
        <pt x="35" y="358" on="0"/>
        <pt x="114" y="533" on="0"/>
        <pt x="187" y="584" on="1"/>
        <pt x="231" y="615" on="0"/>
        <pt x="339" y="645" on="0"/>
      </contour>
      <contour>
        <pt x="298" y="62" on="1"/>
        <pt x="321" y="62" on="0"/>
        <pt x="362" y="103" on="0"/>
        <pt x="397" y="172" on="0"/>
        <pt x="426" y="260" on="0"/>
        <pt x="446" y="354" on="0"/>
        <pt x="457" y="447" on="0"/>
        <pt x="457" y="485" on="1"/>
        <pt x="457" y="537" on="0"/>
        <pt x="436" y="576" on="0"/>
        <pt x="416" y="576" on="1"/>
        <pt x="393" y="576" on="0"/>
        <pt x="351" y="536" on="0"/>
        <pt x="314" y="469" on="0"/>
        <pt x="285" y="382" on="0"/>
        <pt x="264" y="290" on="0"/>
        <pt x="253" y="200" on="0"/>
        <pt x="253" y="162" on="1"/>
        <pt x="253" y="105" on="0"/>
        <pt x="278" y="62" on="0"/>
      </contour>
      <contour>
        <pt x="340" y="-144" on="1"/>
        <pt x="340" y="-162" on="0"/>
        <pt x="325" y="-190" on="0"/>
        <pt x="300" y="-208" on="0"/>
        <pt x="267" y="-218" on="0"/>
        <pt x="250" y="-218" on="1"/>
        <pt x="218" y="-218" on="0"/>
        <pt x="173" y="-188" on="0"/>
        <pt x="173" y="-154" on="1"/>
        <pt x="173" y="-118" on="0"/>
        <pt x="228" y="-81" on="0"/>
        <pt x="264" y="-81" on="1"/>
        <pt x="296" y="-81" on="0"/>
        <pt x="340" y="-111" on="0"/>
      </contour>
    </TTGlyph>
    <TTGlyph name="Ograve" xMin="35" yMin="-8" xMax="677" yMax="839">
      <contour>
        <pt x="411" y="645" on="1"/>
        <pt x="497" y="645" on="0"/>
        <pt x="604" y="601" on="0"/>
        <pt x="635" y="555" on="1"/>
        <pt x="655" y="524" on="0"/>
        <pt x="677" y="446" on="0"/>
        <pt x="677" y="395" on="1"/>
        <pt x="677" y="351" on="0"/>
        <pt x="661" y="263" on="0"/>
        <pt x="632" y="182" on="0"/>
        <pt x="591" y="111" on="0"/>
        <pt x="566" y="84" on="1"/>
        <pt x="519" y="33" on="0"/>
        <pt x="396" y="-8" on="0"/>
        <pt x="306" y="-8" on="1"/>
        <pt x="219" y="-8" on="0"/>
        <pt x="113" y="28" on="0"/>
        <pt x="82" y="68" on="1"/>
        <pt x="60" y="96" on="0"/>
        <pt x="35" y="182" on="0"/>
        <pt x="35" y="247" on="1"/>
        <pt x="35" y="358" on="0"/>
        <pt x="114" y="533" on="0"/>
        <pt x="187" y="584" on="1"/>
        <pt x="231" y="615" on="0"/>
        <pt x="339" y="645" on="0"/>
      </contour>
      <contour>
        <pt x="298" y="62" on="1"/>
        <pt x="321" y="62" on="0"/>
        <pt x="362" y="103" on="0"/>
        <pt x="397" y="172" on="0"/>
        <pt x="426" y="260" on="0"/>
        <pt x="446" y="354" on="0"/>
        <pt x="457" y="447" on="0"/>
        <pt x="457" y="485" on="1"/>
        <pt x="457" y="537" on="0"/>
        <pt x="436" y="576" on="0"/>
        <pt x="416" y="576" on="1"/>
        <pt x="393" y="576" on="0"/>
        <pt x="351" y="536" on="0"/>
        <pt x="314" y="469" on="0"/>
        <pt x="285" y="382" on="0"/>
        <pt x="264" y="290" on="0"/>
        <pt x="253" y="200" on="0"/>
        <pt x="253" y="162" on="1"/>
        <pt x="253" y="105" on="0"/>
        <pt x="278" y="62" on="0"/>
      </contour>
      <contour>
        <pt x="215" y="839" on="1"/>
        <pt x="388" y="839" on="1"/>
        <pt x="493" y="693" on="1"/>
        <pt x="400" y="693" on="1"/>
      </contour>
    </TTGlyph>
    <TTGlyph name="Ohungarumlaut" xMin="35" yMin="-8" xMax="787" yMax="839">
      <contour>
        <pt x="411" y="645" on="1"/>
        <pt x="497" y="645" on="0"/>
        <pt x="604" y="601" on="0"/>
        <pt x="635" y="555" on="1"/>
        <pt x="655" y="524" on="0"/>
        <pt x="677" y="446" on="0"/>
        <pt x="677" y="395" on="1"/>
        <pt x="677" y="351" on="0"/>
        <pt x="661" y="263" on="0"/>
        <pt x="632" y="182" on="0"/>
        <pt x="591" y="111" on="0"/>
        <pt x="566" y="84" on="1"/>
        <pt x="519" y="33" on="0"/>
        <pt x="396" y="-8" on="0"/>
        <pt x="306" y="-8" on="1"/>
        <pt x="219" y="-8" on="0"/>
        <pt x="113" y="28" on="0"/>
        <pt x="82" y="68" on="1"/>
        <pt x="60" y="96" on="0"/>
        <pt x="35" y="182" on="0"/>
        <pt x="35" y="247" on="1"/>
        <pt x="35" y="358" on="0"/>
        <pt x="114" y="533" on="0"/>
        <pt x="187" y="584" on="1"/>
        <pt x="231" y="615" on="0"/>
        <pt x="339" y="645" on="0"/>
      </contour>
      <contour>
        <pt x="298" y="62" on="1"/>
        <pt x="321" y="62" on="0"/>
        <pt x="362" y="103" on="0"/>
        <pt x="397" y="172" on="0"/>
        <pt x="426" y="260" on="0"/>
        <pt x="446" y="354" on="0"/>
        <pt x="457" y="447" on="0"/>
        <pt x="457" y="485" on="1"/>
        <pt x="457" y="537" on="0"/>
        <pt x="436" y="576" on="0"/>
        <pt x="416" y="576" on="1"/>
        <pt x="393" y="576" on="0"/>
        <pt x="351" y="536" on="0"/>
        <pt x="314" y="469" on="0"/>
        <pt x="285" y="382" on="0"/>
        <pt x="264" y="290" on="0"/>
        <pt x="253" y="200" on="0"/>
        <pt x="253" y="162" on="1"/>
        <pt x="253" y="105" on="0"/>
        <pt x="278" y="62" on="0"/>
      </contour>
      <contour>
        <pt x="269" y="693" on="1"/>
        <pt x="382" y="839" on="1"/>
        <pt x="554" y="839" on="1"/>
        <pt x="355" y="693" on="1"/>
      </contour>
      <contour>
        <pt x="502" y="693" on="1"/>
        <pt x="615" y="839" on="1"/>
        <pt x="787" y="839" on="1"/>
        <pt x="588" y="693" on="1"/>
      </contour>
    </TTGlyph>
    <TTGlyph name="Omacron" xMin="35" yMin="-8" xMax="677" yMax="807">
      <contour>
        <pt x="411" y="645" on="1"/>
        <pt x="497" y="645" on="0"/>
        <pt x="604" y="601" on="0"/>
        <pt x="635" y="555" on="1"/>
        <pt x="655" y="524" on="0"/>
        <pt x="677" y="446" on="0"/>
        <pt x="677" y="395" on="1"/>
        <pt x="677" y="351" on="0"/>
        <pt x="661" y="263" on="0"/>
        <pt x="632" y="182" on="0"/>
        <pt x="591" y="111" on="0"/>
        <pt x="566" y="84" on="1"/>
        <pt x="519" y="33" on="0"/>
        <pt x="396" y="-8" on="0"/>
        <pt x="306" y="-8" on="1"/>
        <pt x="219" y="-8" on="0"/>
        <pt x="113" y="28" on="0"/>
        <pt x="82" y="68" on="1"/>
        <pt x="60" y="96" on="0"/>
        <pt x="35" y="182" on="0"/>
        <pt x="35" y="247" on="1"/>
        <pt x="35" y="358" on="0"/>
        <pt x="114" y="533" on="0"/>
        <pt x="187" y="584" on="1"/>
        <pt x="231" y="615" on="0"/>
        <pt x="339" y="645" on="0"/>
      </contour>
      <contour>
        <pt x="298" y="62" on="1"/>
        <pt x="321" y="62" on="0"/>
        <pt x="362" y="103" on="0"/>
        <pt x="397" y="172" on="0"/>
        <pt x="426" y="260" on="0"/>
        <pt x="446" y="354" on="0"/>
        <pt x="457" y="447" on="0"/>
        <pt x="457" y="485" on="1"/>
        <pt x="457" y="537" on="0"/>
        <pt x="436" y="576" on="0"/>
        <pt x="416" y="576" on="1"/>
        <pt x="393" y="576" on="0"/>
        <pt x="351" y="536" on="0"/>
        <pt x="314" y="469" on="0"/>
        <pt x="285" y="382" on="0"/>
        <pt x="264" y="290" on="0"/>
        <pt x="253" y="200" on="0"/>
        <pt x="253" y="162" on="1"/>
        <pt x="253" y="105" on="0"/>
        <pt x="278" y="62" on="0"/>
      </contour>
      <contour>
        <pt x="279" y="807" on="1"/>
        <pt x="634" y="807" on="1"/>
        <pt x="616" y="730" on="1"/>
        <pt x="260" y="730" on="1"/>
      </contour>
    </TTGlyph>
    <TTGlyph name="Oogonek" xMin="35" yMin="-204" xMax="677" yMax="645">
      <contour>
        <pt x="411" y="645" on="1"/>
        <pt x="497" y="645" on="0"/>
        <pt x="604" y="601" on="0"/>
        <pt x="635" y="555" on="1"/>
        <pt x="655" y="524" on="0"/>
        <pt x="677" y="446" on="0"/>
        <pt x="677" y="395" on="1"/>
        <pt x="677" y="351" on="0"/>
        <pt x="661" y="263" on="0"/>
        <pt x="632" y="182" on="0"/>
        <pt x="591" y="111" on="0"/>
        <pt x="566" y="84" on="1"/>
        <pt x="521" y="34" on="0"/>
        <pt x="402" y="-7" on="0"/>
        <pt x="318" y="-8" on="1"/>
        <pt x="293" y="-25" on="0"/>
        <pt x="252" y="-71" on="0"/>
        <pt x="252" y="-100" on="1"/>
        <pt x="252" y="-120" on="0"/>
        <pt x="270" y="-138" on="0"/>
        <pt x="283" y="-138" on="1"/>
        <pt x="292" y="-138" on="0"/>
        <pt x="317" y="-127" on="0"/>
        <pt x="335" y="-112" on="1"/>
        <pt x="358" y="-154" on="1"/>
        <pt x="328" y="-179" on="0"/>
        <pt x="248" y="-204" on="0"/>
        <pt x="210" y="-204" on="1"/>
        <pt x="124" y="-204" on="0"/>
        <pt x="124" y="-130" on="1"/>
        <pt x="124" y="-106" on="0"/>
        <pt x="142" y="-66" on="0"/>
        <pt x="172" y="-35" on="0"/>
        <pt x="209" y="-12" on="0"/>
        <pt x="228" y="-3" on="1"/>
        <pt x="175" y="3" on="0"/>
        <pt x="105" y="38" on="0"/>
        <pt x="82" y="68" on="1"/>
        <pt x="60" y="96" on="0"/>
        <pt x="35" y="182" on="0"/>
        <pt x="35" y="247" on="1"/>
        <pt x="35" y="358" on="0"/>
        <pt x="114" y="533" on="0"/>
        <pt x="187" y="584" on="1"/>
        <pt x="231" y="615" on="0"/>
        <pt x="339" y="645" on="0"/>
      </contour>
      <contour>
        <pt x="298" y="62" on="1"/>
        <pt x="321" y="62" on="0"/>
        <pt x="362" y="103" on="0"/>
        <pt x="397" y="172" on="0"/>
        <pt x="426" y="260" on="0"/>
        <pt x="446" y="354" on="0"/>
        <pt x="457" y="447" on="0"/>
        <pt x="457" y="485" on="1"/>
        <pt x="457" y="537" on="0"/>
        <pt x="436" y="576" on="0"/>
        <pt x="416" y="576" on="1"/>
        <pt x="393" y="576" on="0"/>
        <pt x="351" y="536" on="0"/>
        <pt x="314" y="469" on="0"/>
        <pt x="285" y="382" on="0"/>
        <pt x="264" y="290" on="0"/>
        <pt x="253" y="200" on="0"/>
        <pt x="253" y="162" on="1"/>
        <pt x="253" y="105" on="0"/>
        <pt x="278" y="62" on="0"/>
      </contour>
    </TTGlyph>
    <TTGlyph name="Oslash" xMin="35" yMin="-25" xMax="677" yMax="657">
      <contour>
        <pt x="411" y="645" on="1"/>
        <pt x="511" y="645" on="0"/>
        <pt x="570" y="614" on="1"/>
        <pt x="608" y="657" on="1"/>
        <pt x="655" y="617" on="1"/>
        <pt x="619" y="575" on="1"/>
        <pt x="648" y="546" on="0"/>
        <pt x="677" y="452" on="0"/>
        <pt x="677" y="395" on="1"/>
        <pt x="677" y="351" on="0"/>
        <pt x="661" y="263" on="0"/>
        <pt x="632" y="182" on="0"/>
        <pt x="591" y="111" on="0"/>
        <pt x="566" y="84" on="1"/>
        <pt x="519" y="33" on="0"/>
        <pt x="396" y="-8" on="0"/>
        <pt x="306" y="-8" on="1"/>
        <pt x="199" y="-8" on="0"/>
        <pt x="140" y="20" on="1"/>
        <pt x="101" y="-25" on="1"/>
        <pt x="44" y="19" on="1"/>
        <pt x="84" y="64" on="1"/>
        <pt x="82" y="68" on="1"/>
        <pt x="60" y="96" on="0"/>
        <pt x="35" y="182" on="0"/>
        <pt x="35" y="247" on="1"/>
        <pt x="35" y="335" on="0"/>
        <pt x="83" y="482" on="0"/>
        <pt x="178" y="587" on="0"/>
        <pt x="319" y="645" on="0"/>
      </contour>
      <contour>
        <pt x="298" y="62" on="1"/>
        <pt x="325" y="62" on="0"/>
        <pt x="373" y="119" on="0"/>
        <pt x="412" y="210" on="0"/>
        <pt x="440" y="322" on="0"/>
        <pt x="448" y="377" on="1"/>
        <pt x="253" y="151" on="1"/>
        <pt x="254" y="100" on="0"/>
        <pt x="278" y="62" on="0"/>
      </contour>
      <contour>
        <pt x="416" y="576" on="1"/>
        <pt x="388" y="576" on="0"/>
        <pt x="339" y="519" on="0"/>
        <pt x="298" y="429" on="0"/>
        <pt x="269" y="318" on="0"/>
        <pt x="261" y="264" on="1"/>
        <pt x="457" y="486" on="1"/>
        <pt x="457" y="537" on="0"/>
        <pt x="436" y="576" on="0"/>
      </contour>
    </TTGlyph>
    <TTGlyph name="Oslashacute" xMin="35" yMin="-25" xMax="677" yMax="839">
      <contour>
        <pt x="376" y="693" on="1"/>
        <pt x="469" y="839" on="1"/>
        <pt x="641" y="839" on="1"/>
        <pt x="462" y="693" on="1"/>
      </contour>
      <contour>
        <pt x="411" y="645" on="1"/>
        <pt x="511" y="645" on="0"/>
        <pt x="570" y="614" on="1"/>
        <pt x="608" y="657" on="1"/>
        <pt x="655" y="617" on="1"/>
        <pt x="619" y="575" on="1"/>
        <pt x="648" y="546" on="0"/>
        <pt x="677" y="452" on="0"/>
        <pt x="677" y="395" on="1"/>
        <pt x="677" y="351" on="0"/>
        <pt x="661" y="263" on="0"/>
        <pt x="632" y="182" on="0"/>
        <pt x="591" y="111" on="0"/>
        <pt x="566" y="84" on="1"/>
        <pt x="519" y="33" on="0"/>
        <pt x="396" y="-8" on="0"/>
        <pt x="306" y="-8" on="1"/>
        <pt x="199" y="-8" on="0"/>
        <pt x="140" y="20" on="1"/>
        <pt x="101" y="-25" on="1"/>
        <pt x="44" y="19" on="1"/>
        <pt x="84" y="64" on="1"/>
        <pt x="82" y="68" on="1"/>
        <pt x="60" y="96" on="0"/>
        <pt x="35" y="182" on="0"/>
        <pt x="35" y="247" on="1"/>
        <pt x="35" y="335" on="0"/>
        <pt x="83" y="482" on="0"/>
        <pt x="178" y="587" on="0"/>
        <pt x="319" y="645" on="0"/>
      </contour>
      <contour>
        <pt x="298" y="62" on="1"/>
        <pt x="325" y="62" on="0"/>
        <pt x="373" y="119" on="0"/>
        <pt x="412" y="210" on="0"/>
        <pt x="440" y="322" on="0"/>
        <pt x="448" y="377" on="1"/>
        <pt x="253" y="151" on="1"/>
        <pt x="254" y="100" on="0"/>
        <pt x="278" y="62" on="0"/>
      </contour>
      <contour>
        <pt x="416" y="576" on="1"/>
        <pt x="388" y="576" on="0"/>
        <pt x="339" y="519" on="0"/>
        <pt x="298" y="429" on="0"/>
        <pt x="269" y="318" on="0"/>
        <pt x="261" y="264" on="1"/>
        <pt x="457" y="486" on="1"/>
        <pt x="457" y="537" on="0"/>
        <pt x="436" y="576" on="0"/>
      </contour>
    </TTGlyph>
    <TTGlyph name="Otilde" xMin="35" yMin="-8" xMax="677" yMax="844">
      <contour>
        <pt x="411" y="645" on="1"/>
        <pt x="497" y="645" on="0"/>
        <pt x="604" y="601" on="0"/>
        <pt x="635" y="555" on="1"/>
        <pt x="655" y="524" on="0"/>
        <pt x="677" y="446" on="0"/>
        <pt x="677" y="395" on="1"/>
        <pt x="677" y="351" on="0"/>
        <pt x="661" y="263" on="0"/>
        <pt x="632" y="182" on="0"/>
        <pt x="591" y="111" on="0"/>
        <pt x="566" y="84" on="1"/>
        <pt x="519" y="33" on="0"/>
        <pt x="396" y="-8" on="0"/>
        <pt x="306" y="-8" on="1"/>
        <pt x="219" y="-8" on="0"/>
        <pt x="113" y="28" on="0"/>
        <pt x="82" y="68" on="1"/>
        <pt x="60" y="96" on="0"/>
        <pt x="35" y="182" on="0"/>
        <pt x="35" y="247" on="1"/>
        <pt x="35" y="358" on="0"/>
        <pt x="114" y="533" on="0"/>
        <pt x="187" y="584" on="1"/>
        <pt x="231" y="615" on="0"/>
        <pt x="339" y="645" on="0"/>
      </contour>
      <contour>
        <pt x="298" y="62" on="1"/>
        <pt x="321" y="62" on="0"/>
        <pt x="362" y="103" on="0"/>
        <pt x="397" y="172" on="0"/>
        <pt x="426" y="260" on="0"/>
        <pt x="446" y="354" on="0"/>
        <pt x="457" y="447" on="0"/>
        <pt x="457" y="485" on="1"/>
        <pt x="457" y="537" on="0"/>
        <pt x="436" y="576" on="0"/>
        <pt x="416" y="576" on="1"/>
        <pt x="393" y="576" on="0"/>
        <pt x="351" y="536" on="0"/>
        <pt x="314" y="469" on="0"/>
        <pt x="285" y="382" on="0"/>
        <pt x="264" y="290" on="0"/>
        <pt x="253" y="200" on="0"/>
        <pt x="253" y="162" on="1"/>
        <pt x="253" y="105" on="0"/>
        <pt x="278" y="62" on="0"/>
      </contour>
      <contour>
        <pt x="657" y="819" on="1"/>
        <pt x="627" y="764" on="0"/>
        <pt x="567" y="710" on="0"/>
        <pt x="522" y="710" on="1"/>
        <pt x="504" y="710" on="0"/>
        <pt x="455" y="722" on="0"/>
        <pt x="404" y="735" on="0"/>
        <pt x="359" y="747" on="0"/>
        <pt x="345" y="747" on="1"/>
        <pt x="327" y="747" on="0"/>
        <pt x="289" y="723" on="0"/>
        <pt x="280" y="712" on="1"/>
        <pt x="247" y="741" on="1"/>
        <pt x="278" y="792" on="0"/>
        <pt x="341" y="844" on="0"/>
        <pt x="384" y="844" on="1"/>
        <pt x="400" y="844" on="0"/>
        <pt x="447" y="834" on="0"/>
        <pt x="496" y="821" on="0"/>
        <pt x="542" y="811" on="0"/>
        <pt x="557" y="811" on="1"/>
        <pt x="571" y="811" on="0"/>
        <pt x="610" y="830" on="0"/>
        <pt x="622" y="844" on="1"/>
      </contour>
    </TTGlyph>
    <TTGlyph name="P" xMin="0" yMin="0" xMax="623" yMax="635">
      <contour>
        <pt x="321" y="274" on="1"/>
        <pt x="351" y="274" on="0"/>
        <pt x="392" y="324" on="0"/>
        <pt x="419" y="396" on="0"/>
        <pt x="431" y="474" on="0"/>
        <pt x="431" y="503" on="1"/>
        <pt x="431" y="530" on="0"/>
        <pt x="413" y="567" on="0"/>
        <pt x="383" y="567" on="1"/>
        <pt x="338" y="567" on="1"/>
        <pt x="275" y="274" on="1"/>
      </contour>
      <contour>
        <pt x="261" y="210" on="1"/>
        <pt x="216" y="0" on="1"/>
        <pt x="0" y="0" on="1"/>
        <pt x="135" y="635" on="1"/>
        <pt x="366" y="635" on="1"/>
        <pt x="423" y="635" on="0"/>
        <pt x="517" y="623" on="0"/>
        <pt x="585" y="587" on="0"/>
        <pt x="623" y="520" on="0"/>
        <pt x="623" y="464" on="1"/>
        <pt x="623" y="412" on="0"/>
        <pt x="590" y="319" on="0"/>
        <pt x="517" y="250" on="0"/>
        <pt x="401" y="210" on="0"/>
        <pt x="318" y="210" on="1"/>
      </contour>
    </TTGlyph>
    <TTGlyph name="Q" xMin="35" yMin="-184" xMax="677" yMax="645">
      <contour>
        <pt x="411" y="645" on="1"/>
        <pt x="497" y="645" on="0"/>
        <pt x="604" y="601" on="0"/>
        <pt x="635" y="555" on="1"/>
        <pt x="655" y="524" on="0"/>
        <pt x="677" y="446" on="0"/>
        <pt x="677" y="395" on="1"/>
        <pt x="677" y="351" on="0"/>
        <pt x="661" y="263" on="0"/>
        <pt x="632" y="182" on="0"/>
        <pt x="591" y="111" on="0"/>
        <pt x="566" y="84" on="1"/>
        <pt x="506" y="18" on="0"/>
        <pt x="413" y="0" on="1"/>
        <pt x="439" y="-26" on="0"/>
        <pt x="507" y="-59" on="0"/>
        <pt x="543" y="-67" on="1"/>
        <pt x="498" y="-100" on="0"/>
        <pt x="463" y="-126" on="1"/>
        <pt x="448" y="-137" on="0"/>
        <pt x="419" y="-158" on="0"/>
        <pt x="397" y="-175" on="0"/>
        <pt x="382" y="-184" on="0"/>
        <pt x="382" y="-184" on="1"/>
        <pt x="350" y="-164" on="0"/>
        <pt x="303" y="-116" on="0"/>
        <pt x="270" y="-67" on="0"/>
        <pt x="249" y="-22" on="0"/>
        <pt x="243" y="-5" on="1"/>
        <pt x="184" y="0" on="0"/>
        <pt x="107" y="36" on="0"/>
        <pt x="82" y="68" on="1"/>
        <pt x="60" y="96" on="0"/>
        <pt x="35" y="182" on="0"/>
        <pt x="35" y="247" on="1"/>
        <pt x="35" y="358" on="0"/>
        <pt x="114" y="533" on="0"/>
        <pt x="187" y="584" on="1"/>
        <pt x="231" y="615" on="0"/>
        <pt x="339" y="645" on="0"/>
      </contour>
      <contour>
        <pt x="298" y="62" on="1"/>
        <pt x="321" y="62" on="0"/>
        <pt x="362" y="103" on="0"/>
        <pt x="397" y="172" on="0"/>
        <pt x="426" y="260" on="0"/>
        <pt x="446" y="354" on="0"/>
        <pt x="457" y="447" on="0"/>
        <pt x="457" y="485" on="1"/>
        <pt x="457" y="537" on="0"/>
        <pt x="436" y="576" on="0"/>
        <pt x="416" y="576" on="1"/>
        <pt x="393" y="576" on="0"/>
        <pt x="351" y="536" on="0"/>
        <pt x="314" y="469" on="0"/>
        <pt x="285" y="382" on="0"/>
        <pt x="264" y="290" on="0"/>
        <pt x="253" y="200" on="0"/>
        <pt x="253" y="162" on="1"/>
        <pt x="253" y="105" on="0"/>
        <pt x="278" y="62" on="0"/>
      </contour>
    </TTGlyph>
    <TTGlyph name="R" xMin="0" yMin="0" xMax="623" yMax="635">
      <contour>
        <pt x="623" y="484" on="1"/>
        <pt x="623" y="425" on="0"/>
        <pt x="557" y="325" on="0"/>
        <pt x="481" y="299" on="1"/>
        <pt x="597" y="0" on="1"/>
        <pt x="374" y="0" on="1"/>
        <pt x="286" y="277" on="1"/>
        <pt x="275" y="277" on="1"/>
        <pt x="216" y="0" on="1"/>
        <pt x="0" y="0" on="1"/>
        <pt x="135" y="635" on="1"/>
        <pt x="398" y="635" on="1"/>
        <pt x="444" y="635" on="0"/>
        <pt x="526" y="624" on="0"/>
        <pt x="587" y="591" on="0"/>
        <pt x="623" y="532" on="0"/>
      </contour>
      <contour>
        <pt x="335" y="341" on="1"/>
        <pt x="361" y="341" on="0"/>
        <pt x="398" y="376" on="0"/>
        <pt x="421" y="426" on="0"/>
        <pt x="431" y="483" on="0"/>
        <pt x="431" y="504" on="1"/>
        <pt x="431" y="530" on="0"/>
        <pt x="413" y="567" on="0"/>
        <pt x="383" y="567" on="1"/>
        <pt x="338" y="567" on="1"/>
        <pt x="288" y="341" on="1"/>
      </contour>
    </TTGlyph>
    <TTGlyph name="Racute" xMin="0" yMin="0" xMax="623" yMax="839">
      <contour>
        <pt x="623" y="484" on="1"/>
        <pt x="623" y="425" on="0"/>
        <pt x="557" y="325" on="0"/>
        <pt x="481" y="299" on="1"/>
        <pt x="597" y="0" on="1"/>
        <pt x="374" y="0" on="1"/>
        <pt x="286" y="277" on="1"/>
        <pt x="275" y="277" on="1"/>
        <pt x="216" y="0" on="1"/>
        <pt x="0" y="0" on="1"/>
        <pt x="135" y="635" on="1"/>
        <pt x="398" y="635" on="1"/>
        <pt x="444" y="635" on="0"/>
        <pt x="526" y="624" on="0"/>
        <pt x="587" y="591" on="0"/>
        <pt x="623" y="532" on="0"/>
      </contour>
      <contour>
        <pt x="335" y="341" on="1"/>
        <pt x="361" y="341" on="0"/>
        <pt x="398" y="376" on="0"/>
        <pt x="421" y="426" on="0"/>
        <pt x="431" y="483" on="0"/>
        <pt x="431" y="504" on="1"/>
        <pt x="431" y="530" on="0"/>
        <pt x="413" y="567" on="0"/>
        <pt x="383" y="567" on="1"/>
        <pt x="338" y="567" on="1"/>
        <pt x="288" y="341" on="1"/>
      </contour>
      <contour>
        <pt x="323" y="693" on="1"/>
        <pt x="416" y="839" on="1"/>
        <pt x="588" y="839" on="1"/>
        <pt x="409" y="693" on="1"/>
      </contour>
    </TTGlyph>
    <TTGlyph name="Rcaron" xMin="0" yMin="0" xMax="623" yMax="839">
      <contour>
        <pt x="623" y="484" on="1"/>
        <pt x="623" y="425" on="0"/>
        <pt x="557" y="325" on="0"/>
        <pt x="481" y="299" on="1"/>
        <pt x="597" y="0" on="1"/>
        <pt x="374" y="0" on="1"/>
        <pt x="286" y="277" on="1"/>
        <pt x="275" y="277" on="1"/>
        <pt x="216" y="0" on="1"/>
        <pt x="0" y="0" on="1"/>
        <pt x="135" y="635" on="1"/>
        <pt x="398" y="635" on="1"/>
        <pt x="444" y="635" on="0"/>
        <pt x="526" y="624" on="0"/>
        <pt x="587" y="591" on="0"/>
        <pt x="623" y="532" on="0"/>
      </contour>
      <contour>
        <pt x="335" y="341" on="1"/>
        <pt x="361" y="341" on="0"/>
        <pt x="398" y="376" on="0"/>
        <pt x="421" y="426" on="0"/>
        <pt x="431" y="483" on="0"/>
        <pt x="431" y="504" on="1"/>
        <pt x="431" y="530" on="0"/>
        <pt x="413" y="567" on="0"/>
        <pt x="383" y="567" on="1"/>
        <pt x="338" y="567" on="1"/>
        <pt x="288" y="341" on="1"/>
      </contour>
      <contour>
        <pt x="597" y="839" on="1"/>
        <pt x="451" y="693" on="1"/>
        <pt x="302" y="693" on="1"/>
        <pt x="219" y="839" on="1"/>
        <pt x="296" y="839" on="1"/>
        <pt x="379" y="747" on="1"/>
        <pt x="511" y="839" on="1"/>
      </contour>
    </TTGlyph>
    <TTGlyph name="Rcommaaccent" xMin="0" yMin="-284" xMax="623" yMax="635">
      <contour>
        <pt x="623" y="484" on="1"/>
        <pt x="623" y="425" on="0"/>
        <pt x="557" y="325" on="0"/>
        <pt x="481" y="299" on="1"/>
        <pt x="597" y="0" on="1"/>
        <pt x="374" y="0" on="1"/>
        <pt x="286" y="277" on="1"/>
        <pt x="275" y="277" on="1"/>
        <pt x="216" y="0" on="1"/>
        <pt x="0" y="0" on="1"/>
        <pt x="135" y="635" on="1"/>
        <pt x="398" y="635" on="1"/>
        <pt x="444" y="635" on="0"/>
        <pt x="526" y="624" on="0"/>
        <pt x="587" y="591" on="0"/>
        <pt x="623" y="532" on="0"/>
      </contour>
      <contour>
        <pt x="335" y="341" on="1"/>
        <pt x="361" y="341" on="0"/>
        <pt x="398" y="376" on="0"/>
        <pt x="421" y="426" on="0"/>
        <pt x="431" y="483" on="0"/>
        <pt x="431" y="504" on="1"/>
        <pt x="431" y="530" on="0"/>
        <pt x="413" y="567" on="0"/>
        <pt x="383" y="567" on="1"/>
        <pt x="338" y="567" on="1"/>
        <pt x="288" y="341" on="1"/>
      </contour>
      <contour>
        <pt x="341" y="-127" on="1"/>
        <pt x="341" y="-153" on="0"/>
        <pt x="316" y="-201" on="0"/>
        <pt x="276" y="-242" on="0"/>
        <pt x="228" y="-274" on="0"/>
        <pt x="204" y="-284" on="1"/>
        <pt x="183" y="-254" on="1"/>
        <pt x="208" y="-235" on="0"/>
        <pt x="235" y="-203" on="0"/>
        <pt x="235" y="-187" on="1"/>
        <pt x="235" y="-162" on="0"/>
        <pt x="195" y="-135" on="1"/>
        <pt x="195" y="-100" on="0"/>
        <pt x="243" y="-62" on="0"/>
        <pt x="275" y="-62" on="1"/>
        <pt x="304" y="-62" on="0"/>
        <pt x="341" y="-94" on="0"/>
      </contour>
    </TTGlyph>
    <TTGlyph name="Rdotbelow" xMin="0" yMin="-218" xMax="623" yMax="635">
      <contour>
        <pt x="623" y="484" on="1"/>
        <pt x="623" y="425" on="0"/>
        <pt x="557" y="325" on="0"/>
        <pt x="481" y="299" on="1"/>
        <pt x="597" y="0" on="1"/>
        <pt x="374" y="0" on="1"/>
        <pt x="286" y="277" on="1"/>
        <pt x="275" y="277" on="1"/>
        <pt x="216" y="0" on="1"/>
        <pt x="0" y="0" on="1"/>
        <pt x="135" y="635" on="1"/>
        <pt x="398" y="635" on="1"/>
        <pt x="444" y="635" on="0"/>
        <pt x="526" y="624" on="0"/>
        <pt x="587" y="591" on="0"/>
        <pt x="623" y="532" on="0"/>
      </contour>
      <contour>
        <pt x="335" y="341" on="1"/>
        <pt x="361" y="341" on="0"/>
        <pt x="398" y="376" on="0"/>
        <pt x="421" y="426" on="0"/>
        <pt x="431" y="483" on="0"/>
        <pt x="431" y="504" on="1"/>
        <pt x="431" y="530" on="0"/>
        <pt x="413" y="567" on="0"/>
        <pt x="383" y="567" on="1"/>
        <pt x="338" y="567" on="1"/>
        <pt x="288" y="341" on="1"/>
      </contour>
      <contour>
        <pt x="351" y="-144" on="1"/>
        <pt x="351" y="-162" on="0"/>
        <pt x="336" y="-190" on="0"/>
        <pt x="311" y="-208" on="0"/>
        <pt x="278" y="-218" on="0"/>
        <pt x="261" y="-218" on="1"/>
        <pt x="229" y="-218" on="0"/>
        <pt x="184" y="-188" on="0"/>
        <pt x="184" y="-154" on="1"/>
        <pt x="184" y="-118" on="0"/>
        <pt x="239" y="-81" on="0"/>
        <pt x="275" y="-81" on="1"/>
        <pt x="307" y="-81" on="0"/>
        <pt x="351" y="-111" on="0"/>
      </contour>
    </TTGlyph>
    <TTGlyph name="S" xMin="-7" yMin="-8" xMax="597" yMax="645">
      <contour>
        <pt x="394" y="451" on="1"/>
        <pt x="397" y="466" on="0"/>
        <pt x="397" y="492" on="1"/>
        <pt x="397" y="507" on="0"/>
        <pt x="393" y="536" on="0"/>
        <pt x="383" y="559" on="0"/>
        <pt x="363" y="572" on="0"/>
        <pt x="347" y="572" on="1"/>
        <pt x="329" y="572" on="0"/>
        <pt x="299" y="556" on="0"/>
        <pt x="276" y="531" on="0"/>
        <pt x="263" y="498" on="0"/>
        <pt x="263" y="480" on="1"/>
        <pt x="263" y="454" on="0"/>
        <pt x="290" y="426" on="0"/>
        <pt x="334" y="408" on="0"/>
        <pt x="390" y="396" on="0"/>
        <pt x="420" y="388" on="1"/>
        <pt x="445" y="381" on="0"/>
        <pt x="495" y="359" on="0"/>
        <pt x="534" y="322" on="0"/>
        <pt x="558" y="263" on="0"/>
        <pt x="558" y="219" on="1"/>
        <pt x="558" y="156" on="0"/>
        <pt x="508" y="70" on="0"/>
        <pt x="420" y="16" on="0"/>
        <pt x="299" y="-8" on="0"/>
        <pt x="228" y="-8" on="1"/>
        <pt x="156" y="-8" on="0"/>
        <pt x="65" y="11" on="0"/>
        <pt x="39" y="22" on="1"/>
        <pt x="8" y="35" on="0"/>
        <pt x="-7" y="52" on="1"/>
        <pt x="27" y="189" on="1"/>
        <pt x="203" y="189" on="1"/>
        <pt x="202" y="180" on="0"/>
        <pt x="200" y="149" on="0"/>
        <pt x="200" y="140" on="1"/>
        <pt x="200" y="128" on="0"/>
        <pt x="206" y="102" on="0"/>
        <pt x="219" y="80" on="0"/>
        <pt x="243" y="66" on="0"/>
        <pt x="261" y="66" on="1"/>
        <pt x="281" y="66" on="0"/>
        <pt x="312" y="84" on="0"/>
        <pt x="333" y="111" on="0"/>
        <pt x="344" y="144" on="0"/>
        <pt x="344" y="160" on="1"/>
        <pt x="344" y="182" on="0"/>
        <pt x="323" y="212" on="0"/>
        <pt x="287" y="233" on="0"/>
        <pt x="240" y="248" on="0"/>
        <pt x="215" y="256" on="1"/>
        <pt x="191" y="263" on="0"/>
        <pt x="138" y="283" on="0"/>
        <pt x="94" y="319" on="0"/>
        <pt x="65" y="374" on="0"/>
        <pt x="65" y="417" on="1"/>
        <pt x="65" y="481" on="0"/>
        <pt x="130" y="568" on="0"/>
        <pt x="229" y="622" on="0"/>
        <pt x="347" y="645" on="0"/>
        <pt x="400" y="645" on="1"/>
        <pt x="470" y="645" on="0"/>
        <pt x="571" y="612" on="0"/>
        <pt x="597" y="590" on="1"/>
        <pt x="560" y="451" on="1"/>
      </contour>
    </TTGlyph>
    <TTGlyph name="Sacute" xMin="-7" yMin="-8" xMax="625" yMax="839">
      <contour>
        <pt x="394" y="451" on="1"/>
        <pt x="397" y="466" on="0"/>
        <pt x="397" y="492" on="1"/>
        <pt x="397" y="507" on="0"/>
        <pt x="393" y="536" on="0"/>
        <pt x="383" y="559" on="0"/>
        <pt x="363" y="572" on="0"/>
        <pt x="347" y="572" on="1"/>
        <pt x="329" y="572" on="0"/>
        <pt x="299" y="556" on="0"/>
        <pt x="276" y="531" on="0"/>
        <pt x="263" y="498" on="0"/>
        <pt x="263" y="480" on="1"/>
        <pt x="263" y="454" on="0"/>
        <pt x="290" y="426" on="0"/>
        <pt x="334" y="408" on="0"/>
        <pt x="390" y="396" on="0"/>
        <pt x="420" y="388" on="1"/>
        <pt x="445" y="381" on="0"/>
        <pt x="495" y="359" on="0"/>
        <pt x="534" y="322" on="0"/>
        <pt x="558" y="263" on="0"/>
        <pt x="558" y="219" on="1"/>
        <pt x="558" y="156" on="0"/>
        <pt x="508" y="70" on="0"/>
        <pt x="420" y="16" on="0"/>
        <pt x="299" y="-8" on="0"/>
        <pt x="228" y="-8" on="1"/>
        <pt x="156" y="-8" on="0"/>
        <pt x="65" y="11" on="0"/>
        <pt x="39" y="22" on="1"/>
        <pt x="8" y="35" on="0"/>
        <pt x="-7" y="52" on="1"/>
        <pt x="27" y="189" on="1"/>
        <pt x="203" y="189" on="1"/>
        <pt x="202" y="180" on="0"/>
        <pt x="200" y="149" on="0"/>
        <pt x="200" y="140" on="1"/>
        <pt x="200" y="128" on="0"/>
        <pt x="206" y="102" on="0"/>
        <pt x="219" y="80" on="0"/>
        <pt x="243" y="66" on="0"/>
        <pt x="261" y="66" on="1"/>
        <pt x="281" y="66" on="0"/>
        <pt x="312" y="84" on="0"/>
        <pt x="333" y="111" on="0"/>
        <pt x="344" y="144" on="0"/>
        <pt x="344" y="160" on="1"/>
        <pt x="344" y="182" on="0"/>
        <pt x="323" y="212" on="0"/>
        <pt x="287" y="233" on="0"/>
        <pt x="240" y="248" on="0"/>
        <pt x="215" y="256" on="1"/>
        <pt x="191" y="263" on="0"/>
        <pt x="138" y="283" on="0"/>
        <pt x="94" y="319" on="0"/>
        <pt x="65" y="374" on="0"/>
        <pt x="65" y="417" on="1"/>
        <pt x="65" y="481" on="0"/>
        <pt x="130" y="568" on="0"/>
        <pt x="229" y="622" on="0"/>
        <pt x="347" y="645" on="0"/>
        <pt x="400" y="645" on="1"/>
        <pt x="470" y="645" on="0"/>
        <pt x="571" y="612" on="0"/>
        <pt x="597" y="590" on="1"/>
        <pt x="560" y="451" on="1"/>
      </contour>
      <contour>
        <pt x="360" y="693" on="1"/>
        <pt x="453" y="839" on="1"/>
        <pt x="625" y="839" on="1"/>
        <pt x="446" y="693" on="1"/>
      </contour>
    </TTGlyph>
    <TTGlyph name="Scaron" xMin="-7" yMin="-8" xMax="610" yMax="839">
      <contour>
        <pt x="394" y="451" on="1"/>
        <pt x="397" y="466" on="0"/>
        <pt x="397" y="492" on="1"/>
        <pt x="397" y="507" on="0"/>
        <pt x="393" y="536" on="0"/>
        <pt x="383" y="559" on="0"/>
        <pt x="363" y="572" on="0"/>
        <pt x="347" y="572" on="1"/>
        <pt x="329" y="572" on="0"/>
        <pt x="299" y="556" on="0"/>
        <pt x="276" y="531" on="0"/>
        <pt x="263" y="498" on="0"/>
        <pt x="263" y="480" on="1"/>
        <pt x="263" y="454" on="0"/>
        <pt x="290" y="426" on="0"/>
        <pt x="334" y="408" on="0"/>
        <pt x="390" y="396" on="0"/>
        <pt x="420" y="388" on="1"/>
        <pt x="445" y="381" on="0"/>
        <pt x="495" y="359" on="0"/>
        <pt x="534" y="322" on="0"/>
        <pt x="558" y="263" on="0"/>
        <pt x="558" y="219" on="1"/>
        <pt x="558" y="156" on="0"/>
        <pt x="508" y="70" on="0"/>
        <pt x="420" y="16" on="0"/>
        <pt x="299" y="-8" on="0"/>
        <pt x="228" y="-8" on="1"/>
        <pt x="156" y="-8" on="0"/>
        <pt x="65" y="11" on="0"/>
        <pt x="39" y="22" on="1"/>
        <pt x="8" y="35" on="0"/>
        <pt x="-7" y="52" on="1"/>
        <pt x="27" y="189" on="1"/>
        <pt x="203" y="189" on="1"/>
        <pt x="202" y="180" on="0"/>
        <pt x="200" y="149" on="0"/>
        <pt x="200" y="140" on="1"/>
        <pt x="200" y="128" on="0"/>
        <pt x="206" y="102" on="0"/>
        <pt x="219" y="80" on="0"/>
        <pt x="243" y="66" on="0"/>
        <pt x="261" y="66" on="1"/>
        <pt x="281" y="66" on="0"/>
        <pt x="312" y="84" on="0"/>
        <pt x="333" y="111" on="0"/>
        <pt x="344" y="144" on="0"/>
        <pt x="344" y="160" on="1"/>
        <pt x="344" y="182" on="0"/>
        <pt x="323" y="212" on="0"/>
        <pt x="287" y="233" on="0"/>
        <pt x="240" y="248" on="0"/>
        <pt x="215" y="256" on="1"/>
        <pt x="191" y="263" on="0"/>
        <pt x="138" y="283" on="0"/>
        <pt x="94" y="319" on="0"/>
        <pt x="65" y="374" on="0"/>
        <pt x="65" y="417" on="1"/>
        <pt x="65" y="481" on="0"/>
        <pt x="130" y="568" on="0"/>
        <pt x="229" y="622" on="0"/>
        <pt x="347" y="645" on="0"/>
        <pt x="400" y="645" on="1"/>
        <pt x="470" y="645" on="0"/>
        <pt x="571" y="612" on="0"/>
        <pt x="597" y="590" on="1"/>
        <pt x="560" y="451" on="1"/>
      </contour>
      <contour>
        <pt x="610" y="839" on="1"/>
        <pt x="464" y="693" on="1"/>
        <pt x="315" y="693" on="1"/>
        <pt x="232" y="839" on="1"/>
        <pt x="309" y="839" on="1"/>
        <pt x="392" y="747" on="1"/>
        <pt x="524" y="839" on="1"/>
      </contour>
    </TTGlyph>
    <TTGlyph name="Schwa" xMin="14" yMin="-8" xMax="635" yMax="645">
      <contour>
        <pt x="14" y="177" on="1"/>
        <pt x="14" y="197" on="0"/>
        <pt x="19" y="241" on="0"/>
        <pt x="29" y="284" on="0"/>
        <pt x="44" y="325" on="0"/>
        <pt x="53" y="341" on="1"/>
        <pt x="406" y="341" on="1"/>
        <pt x="412" y="381" on="0"/>
        <pt x="418" y="454" on="0"/>
        <pt x="418" y="483" on="1"/>
        <pt x="418" y="496" on="0"/>
        <pt x="416" y="529" on="0"/>
        <pt x="408" y="557" on="0"/>
        <pt x="392" y="576" on="0"/>
        <pt x="379" y="576" on="1"/>
        <pt x="365" y="576" on="0"/>
        <pt x="330" y="553" on="0"/>
        <pt x="296" y="511" on="0"/>
        <pt x="267" y="454" on="0"/>
        <pt x="259" y="420" on="1"/>
        <pt x="85" y="420" on="1"/>
        <pt x="118" y="576" on="1"/>
        <pt x="166" y="613" on="0"/>
        <pt x="284" y="645" on="0"/>
        <pt x="365" y="645" on="1"/>
        <pt x="429" y="645" on="0"/>
        <pt x="530" y="623" on="0"/>
        <pt x="599" y="565" on="0"/>
        <pt x="635" y="465" on="0"/>
        <pt x="635" y="387" on="1"/>
        <pt x="635" y="314" on="0"/>
        <pt x="599" y="173" on="0"/>
        <pt x="512" y="61" on="0"/>
        <pt x="366" y="-8" on="0"/>
        <pt x="256" y="-8" on="1"/>
        <pt x="137" y="-8" on="0"/>
        <pt x="14" y="80" on="0"/>
      </contour>
      <contour>
        <pt x="220" y="146" on="1"/>
        <pt x="220" y="96" on="0"/>
        <pt x="249" y="62" on="0"/>
        <pt x="268" y="62" on="1"/>
        <pt x="291" y="62" on="0"/>
        <pt x="330" y="97" on="0"/>
        <pt x="361" y="156" on="0"/>
        <pt x="385" y="232" on="0"/>
        <pt x="394" y="274" on="1"/>
        <pt x="230" y="274" on="1"/>
        <pt x="227" y="250" on="0"/>
        <pt x="225" y="227" on="1"/>
        <pt x="223" y="207" on="0"/>
        <pt x="220" y="163" on="0"/>
      </contour>
    </TTGlyph>
    <TTGlyph name="Scircumflex" xMin="-7" yMin="-8" xMax="610" yMax="839">
      <contour>
        <pt x="394" y="451" on="1"/>
        <pt x="397" y="466" on="0"/>
        <pt x="397" y="492" on="1"/>
        <pt x="397" y="507" on="0"/>
        <pt x="393" y="536" on="0"/>
        <pt x="383" y="559" on="0"/>
        <pt x="363" y="572" on="0"/>
        <pt x="347" y="572" on="1"/>
        <pt x="329" y="572" on="0"/>
        <pt x="299" y="556" on="0"/>
        <pt x="276" y="531" on="0"/>
        <pt x="263" y="498" on="0"/>
        <pt x="263" y="480" on="1"/>
        <pt x="263" y="454" on="0"/>
        <pt x="290" y="426" on="0"/>
        <pt x="334" y="408" on="0"/>
        <pt x="390" y="396" on="0"/>
        <pt x="420" y="388" on="1"/>
        <pt x="445" y="381" on="0"/>
        <pt x="495" y="359" on="0"/>
        <pt x="534" y="322" on="0"/>
        <pt x="558" y="263" on="0"/>
        <pt x="558" y="219" on="1"/>
        <pt x="558" y="156" on="0"/>
        <pt x="508" y="70" on="0"/>
        <pt x="420" y="16" on="0"/>
        <pt x="299" y="-8" on="0"/>
        <pt x="228" y="-8" on="1"/>
        <pt x="156" y="-8" on="0"/>
        <pt x="65" y="11" on="0"/>
        <pt x="39" y="22" on="1"/>
        <pt x="8" y="35" on="0"/>
        <pt x="-7" y="52" on="1"/>
        <pt x="27" y="189" on="1"/>
        <pt x="203" y="189" on="1"/>
        <pt x="202" y="180" on="0"/>
        <pt x="200" y="149" on="0"/>
        <pt x="200" y="140" on="1"/>
        <pt x="200" y="128" on="0"/>
        <pt x="206" y="102" on="0"/>
        <pt x="219" y="80" on="0"/>
        <pt x="243" y="66" on="0"/>
        <pt x="261" y="66" on="1"/>
        <pt x="281" y="66" on="0"/>
        <pt x="312" y="84" on="0"/>
        <pt x="333" y="111" on="0"/>
        <pt x="344" y="144" on="0"/>
        <pt x="344" y="160" on="1"/>
        <pt x="344" y="182" on="0"/>
        <pt x="323" y="212" on="0"/>
        <pt x="287" y="233" on="0"/>
        <pt x="240" y="248" on="0"/>
        <pt x="215" y="256" on="1"/>
        <pt x="191" y="263" on="0"/>
        <pt x="138" y="283" on="0"/>
        <pt x="94" y="319" on="0"/>
        <pt x="65" y="374" on="0"/>
        <pt x="65" y="417" on="1"/>
        <pt x="65" y="481" on="0"/>
        <pt x="130" y="568" on="0"/>
        <pt x="229" y="622" on="0"/>
        <pt x="347" y="645" on="0"/>
        <pt x="400" y="645" on="1"/>
        <pt x="470" y="645" on="0"/>
        <pt x="571" y="612" on="0"/>
        <pt x="597" y="590" on="1"/>
        <pt x="560" y="451" on="1"/>
      </contour>
      <contour>
        <pt x="232" y="693" on="1"/>
        <pt x="378" y="839" on="1"/>
        <pt x="527" y="839" on="1"/>
        <pt x="610" y="693" on="1"/>
        <pt x="534" y="693" on="1"/>
        <pt x="451" y="786" on="1"/>
        <pt x="318" y="693" on="1"/>
      </contour>
    </TTGlyph>
    <TTGlyph name="Sdotbelow" xMin="-7" yMin="-218" xMax="597" yMax="645">
      <contour>
        <pt x="394" y="451" on="1"/>
        <pt x="397" y="466" on="0"/>
        <pt x="397" y="492" on="1"/>
        <pt x="397" y="507" on="0"/>
        <pt x="393" y="536" on="0"/>
        <pt x="383" y="559" on="0"/>
        <pt x="363" y="572" on="0"/>
        <pt x="347" y="572" on="1"/>
        <pt x="329" y="572" on="0"/>
        <pt x="299" y="556" on="0"/>
        <pt x="276" y="531" on="0"/>
        <pt x="263" y="498" on="0"/>
        <pt x="263" y="480" on="1"/>
        <pt x="263" y="454" on="0"/>
        <pt x="290" y="426" on="0"/>
        <pt x="334" y="408" on="0"/>
        <pt x="390" y="396" on="0"/>
        <pt x="420" y="388" on="1"/>
        <pt x="445" y="381" on="0"/>
        <pt x="495" y="359" on="0"/>
        <pt x="534" y="322" on="0"/>
        <pt x="558" y="263" on="0"/>
        <pt x="558" y="219" on="1"/>
        <pt x="558" y="156" on="0"/>
        <pt x="508" y="70" on="0"/>
        <pt x="420" y="16" on="0"/>
        <pt x="299" y="-8" on="0"/>
        <pt x="228" y="-8" on="1"/>
        <pt x="156" y="-8" on="0"/>
        <pt x="65" y="11" on="0"/>
        <pt x="39" y="22" on="1"/>
        <pt x="8" y="35" on="0"/>
        <pt x="-7" y="52" on="1"/>
        <pt x="27" y="189" on="1"/>
        <pt x="203" y="189" on="1"/>
        <pt x="202" y="180" on="0"/>
        <pt x="200" y="149" on="0"/>
        <pt x="200" y="140" on="1"/>
        <pt x="200" y="128" on="0"/>
        <pt x="206" y="102" on="0"/>
        <pt x="219" y="80" on="0"/>
        <pt x="243" y="66" on="0"/>
        <pt x="261" y="66" on="1"/>
        <pt x="281" y="66" on="0"/>
        <pt x="312" y="84" on="0"/>
        <pt x="333" y="111" on="0"/>
        <pt x="344" y="144" on="0"/>
        <pt x="344" y="160" on="1"/>
        <pt x="344" y="182" on="0"/>
        <pt x="323" y="212" on="0"/>
        <pt x="287" y="233" on="0"/>
        <pt x="240" y="248" on="0"/>
        <pt x="215" y="256" on="1"/>
        <pt x="191" y="263" on="0"/>
        <pt x="138" y="283" on="0"/>
        <pt x="94" y="319" on="0"/>
        <pt x="65" y="374" on="0"/>
        <pt x="65" y="417" on="1"/>
        <pt x="65" y="481" on="0"/>
        <pt x="130" y="568" on="0"/>
        <pt x="229" y="622" on="0"/>
        <pt x="347" y="645" on="0"/>
        <pt x="400" y="645" on="1"/>
        <pt x="470" y="645" on="0"/>
        <pt x="571" y="612" on="0"/>
        <pt x="597" y="590" on="1"/>
        <pt x="560" y="451" on="1"/>
      </contour>
      <contour>
        <pt x="292" y="-144" on="1"/>
        <pt x="292" y="-162" on="0"/>
        <pt x="277" y="-190" on="0"/>
        <pt x="252" y="-208" on="0"/>
        <pt x="219" y="-218" on="0"/>
        <pt x="202" y="-218" on="1"/>
        <pt x="170" y="-218" on="0"/>
        <pt x="125" y="-188" on="0"/>
        <pt x="125" y="-154" on="1"/>
        <pt x="125" y="-118" on="0"/>
        <pt x="180" y="-81" on="0"/>
        <pt x="216" y="-81" on="1"/>
        <pt x="248" y="-81" on="0"/>
        <pt x="292" y="-111" on="0"/>
      </contour>
    </TTGlyph>
    <TTGlyph name="T" xMin="73" yMin="0" xMax="626" yMax="635">
      <contour>
        <pt x="609" y="559" on="1"/>
        <pt x="448" y="559" on="1"/>
        <pt x="329" y="0" on="1"/>
        <pt x="113" y="0" on="1"/>
        <pt x="232" y="559" on="1"/>
        <pt x="73" y="559" on="1"/>
        <pt x="91" y="635" on="1"/>
        <pt x="626" y="635" on="1"/>
      </contour>
    </TTGlyph>
    <TTGlyph name="Tbar" xMin="75" yMin="0" xMax="628" yMax="635">
      <contour>
        <pt x="129" y="382" on="1"/>
        <pt x="196" y="382" on="1"/>
        <pt x="234" y="559" on="1"/>
        <pt x="75" y="559" on="1"/>
        <pt x="93" y="635" on="1"/>
        <pt x="628" y="635" on="1"/>
        <pt x="611" y="559" on="1"/>
        <pt x="450" y="559" on="1"/>
        <pt x="412" y="382" on="1"/>
        <pt x="484" y="382" on="1"/>
        <pt x="466" y="305" on="1"/>
        <pt x="396" y="305" on="1"/>
        <pt x="331" y="0" on="1"/>
        <pt x="115" y="0" on="1"/>
        <pt x="180" y="305" on="1"/>
        <pt x="110" y="305" on="1"/>
      </contour>
    </TTGlyph>
    <TTGlyph name="Tcaron" xMin="73" yMin="0" xMax="626" yMax="839">
      <contour>
        <pt x="609" y="559" on="1"/>
        <pt x="448" y="559" on="1"/>
        <pt x="329" y="0" on="1"/>
        <pt x="113" y="0" on="1"/>
        <pt x="232" y="559" on="1"/>
        <pt x="73" y="559" on="1"/>
        <pt x="91" y="635" on="1"/>
        <pt x="626" y="635" on="1"/>
      </contour>
      <contour>
        <pt x="597" y="839" on="1"/>
        <pt x="451" y="693" on="1"/>
        <pt x="302" y="693" on="1"/>
        <pt x="219" y="839" on="1"/>
        <pt x="296" y="839" on="1"/>
        <pt x="379" y="747" on="1"/>
        <pt x="511" y="839" on="1"/>
      </contour>
    </TTGlyph>
    <TTGlyph name="Tdotbelow" xMin="73" yMin="-218" xMax="626" yMax="635">
      <contour>
        <pt x="609" y="559" on="1"/>
        <pt x="448" y="559" on="1"/>
        <pt x="329" y="0" on="1"/>
        <pt x="113" y="0" on="1"/>
        <pt x="232" y="559" on="1"/>
        <pt x="73" y="559" on="1"/>
        <pt x="91" y="635" on="1"/>
        <pt x="626" y="635" on="1"/>
      </contour>
      <contour>
        <pt x="275" y="-144" on="1"/>
        <pt x="275" y="-162" on="0"/>
        <pt x="260" y="-190" on="0"/>
        <pt x="235" y="-208" on="0"/>
        <pt x="202" y="-218" on="0"/>
        <pt x="185" y="-218" on="1"/>
        <pt x="153" y="-218" on="0"/>
        <pt x="108" y="-188" on="0"/>
        <pt x="108" y="-154" on="1"/>
        <pt x="108" y="-118" on="0"/>
        <pt x="163" y="-81" on="0"/>
        <pt x="199" y="-81" on="1"/>
        <pt x="231" y="-81" on="0"/>
        <pt x="275" y="-111" on="0"/>
      </contour>
    </TTGlyph>
    <TTGlyph name="Thorn" xMin="0" yMin="0" xMax="599" yMax="635">
      <contour>
        <pt x="329" y="526" on="1"/>
        <pt x="391" y="526" on="0"/>
        <pt x="491" y="514" on="0"/>
        <pt x="561" y="478" on="0"/>
        <pt x="599" y="410" on="0"/>
        <pt x="599" y="353" on="1"/>
        <pt x="599" y="302" on="0"/>
        <pt x="566" y="210" on="0"/>
        <pt x="493" y="141" on="0"/>
        <pt x="377" y="101" on="0"/>
        <pt x="294" y="101" on="1"/>
        <pt x="238" y="101" on="1"/>
        <pt x="216" y="0" on="1"/>
        <pt x="0" y="0" on="1"/>
        <pt x="135" y="635" on="1"/>
        <pt x="352" y="635" on="1"/>
      </contour>
      <contour>
        <pt x="315" y="458" on="1"/>
        <pt x="252" y="165" on="1"/>
        <pt x="297" y="165" on="1"/>
        <pt x="327" y="165" on="0"/>
        <pt x="368" y="215" on="0"/>
        <pt x="395" y="287" on="0"/>
        <pt x="407" y="365" on="0"/>
        <pt x="407" y="393" on="1"/>
        <pt x="407" y="421" on="0"/>
        <pt x="389" y="458" on="0"/>
        <pt x="359" y="458" on="1"/>
      </contour>
    </TTGlyph>
    <TTGlyph name="U" xMin="35" yMin="-8" xMax="661" yMax="635">
      <contour>
        <pt x="267" y="227" on="1"/>
        <pt x="262" y="205" on="0"/>
        <pt x="256" y="173" on="0"/>
        <pt x="256" y="159" on="1"/>
        <pt x="256" y="124" on="0"/>
        <pt x="305" y="82" on="0"/>
        <pt x="353" y="82" on="1"/>
        <pt x="388" y="82" on="0"/>
        <pt x="433" y="106" on="0"/>
        <pt x="462" y="146" on="0"/>
        <pt x="479" y="198" on="0"/>
        <pt x="485" y="227" on="1"/>
        <pt x="570" y="635" on="1"/>
        <pt x="661" y="635" on="1"/>
        <pt x="574" y="225" on="1"/>
        <pt x="564" y="177" on="0"/>
        <pt x="526" y="93" on="0"/>
        <pt x="455" y="29" on="0"/>
        <pt x="343" y="-8" on="0"/>
        <pt x="260" y="-8" on="1"/>
        <pt x="145" y="-8" on="0"/>
        <pt x="35" y="67" on="0"/>
        <pt x="35" y="145" on="1"/>
        <pt x="35" y="180" on="0"/>
        <pt x="53" y="288" on="0"/>
        <pt x="67" y="351" on="1"/>
        <pt x="128" y="635" on="1"/>
        <pt x="355" y="635" on="1"/>
      </contour>
    </TTGlyph>
    <TTGlyph name="Uacute" xMin="35" yMin="-8" xMax="661" yMax="839">
      <contour>
        <pt x="267" y="227" on="1"/>
        <pt x="262" y="205" on="0"/>
        <pt x="256" y="173" on="0"/>
        <pt x="256" y="159" on="1"/>
        <pt x="256" y="124" on="0"/>
        <pt x="305" y="82" on="0"/>
        <pt x="353" y="82" on="1"/>
        <pt x="388" y="82" on="0"/>
        <pt x="433" y="106" on="0"/>
        <pt x="462" y="146" on="0"/>
        <pt x="479" y="198" on="0"/>
        <pt x="485" y="227" on="1"/>
        <pt x="570" y="635" on="1"/>
        <pt x="661" y="635" on="1"/>
        <pt x="574" y="225" on="1"/>
        <pt x="564" y="177" on="0"/>
        <pt x="526" y="93" on="0"/>
        <pt x="455" y="29" on="0"/>
        <pt x="343" y="-8" on="0"/>
        <pt x="260" y="-8" on="1"/>
        <pt x="145" y="-8" on="0"/>
        <pt x="35" y="67" on="0"/>
        <pt x="35" y="145" on="1"/>
        <pt x="35" y="180" on="0"/>
        <pt x="53" y="288" on="0"/>
        <pt x="67" y="351" on="1"/>
        <pt x="128" y="635" on="1"/>
        <pt x="355" y="635" on="1"/>
      </contour>
      <contour>
        <pt x="389" y="693" on="1"/>
        <pt x="482" y="839" on="1"/>
        <pt x="654" y="839" on="1"/>
        <pt x="475" y="693" on="1"/>
      </contour>
    </TTGlyph>
    <TTGlyph name="Ubreve" xMin="35" yMin="-8" xMax="661" yMax="854">
      <contour>
        <pt x="267" y="227" on="1"/>
        <pt x="262" y="205" on="0"/>
        <pt x="256" y="173" on="0"/>
        <pt x="256" y="159" on="1"/>
        <pt x="256" y="124" on="0"/>
        <pt x="305" y="82" on="0"/>
        <pt x="353" y="82" on="1"/>
        <pt x="388" y="82" on="0"/>
        <pt x="433" y="106" on="0"/>
        <pt x="462" y="146" on="0"/>
        <pt x="479" y="198" on="0"/>
        <pt x="485" y="227" on="1"/>
        <pt x="570" y="635" on="1"/>
        <pt x="661" y="635" on="1"/>
        <pt x="574" y="225" on="1"/>
        <pt x="564" y="177" on="0"/>
        <pt x="526" y="93" on="0"/>
        <pt x="455" y="29" on="0"/>
        <pt x="343" y="-8" on="0"/>
        <pt x="260" y="-8" on="1"/>
        <pt x="145" y="-8" on="0"/>
        <pt x="35" y="67" on="0"/>
        <pt x="35" y="145" on="1"/>
        <pt x="35" y="180" on="0"/>
        <pt x="53" y="288" on="0"/>
        <pt x="67" y="351" on="1"/>
        <pt x="128" y="635" on="1"/>
        <pt x="355" y="635" on="1"/>
      </contour>
      <contour>
        <pt x="427" y="693" on="1"/>
        <pt x="368" y="693" on="0"/>
        <pt x="298" y="752" on="0"/>
        <pt x="288" y="818" on="1"/>
        <pt x="339" y="839" on="1"/>
        <pt x="345" y="819" on="0"/>
        <pt x="367" y="794" on="0"/>
        <pt x="394" y="780" on="0"/>
        <pt x="423" y="775" on="0"/>
        <pt x="435" y="775" on="1"/>
        <pt x="477" y="775" on="0"/>
        <pt x="554" y="819" on="0"/>
        <pt x="580" y="854" on="1"/>
        <pt x="618" y="820" on="1"/>
        <pt x="580" y="751" on="0"/>
        <pt x="484" y="693" on="0"/>
      </contour>
    </TTGlyph>
    <TTGlyph name="Ucircumflex" xMin="35" yMin="-8" xMax="661" yMax="839">
      <contour>
        <pt x="267" y="227" on="1"/>
        <pt x="262" y="205" on="0"/>
        <pt x="256" y="173" on="0"/>
        <pt x="256" y="159" on="1"/>
        <pt x="256" y="124" on="0"/>
        <pt x="305" y="82" on="0"/>
        <pt x="353" y="82" on="1"/>
        <pt x="388" y="82" on="0"/>
        <pt x="433" y="106" on="0"/>
        <pt x="462" y="146" on="0"/>
        <pt x="479" y="198" on="0"/>
        <pt x="485" y="227" on="1"/>
        <pt x="570" y="635" on="1"/>
        <pt x="661" y="635" on="1"/>
        <pt x="574" y="225" on="1"/>
        <pt x="564" y="177" on="0"/>
        <pt x="526" y="93" on="0"/>
        <pt x="455" y="29" on="0"/>
        <pt x="343" y="-8" on="0"/>
        <pt x="260" y="-8" on="1"/>
        <pt x="145" y="-8" on="0"/>
        <pt x="35" y="67" on="0"/>
        <pt x="35" y="145" on="1"/>
        <pt x="35" y="180" on="0"/>
        <pt x="53" y="288" on="0"/>
        <pt x="67" y="351" on="1"/>
        <pt x="128" y="635" on="1"/>
        <pt x="355" y="635" on="1"/>
      </contour>
      <contour>
        <pt x="241" y="693" on="1"/>
        <pt x="387" y="839" on="1"/>
        <pt x="536" y="839" on="1"/>
        <pt x="619" y="693" on="1"/>
        <pt x="543" y="693" on="1"/>
        <pt x="460" y="786" on="1"/>
        <pt x="327" y="693" on="1"/>
      </contour>
    </TTGlyph>
    <TTGlyph name="Udieresis" xMin="35" yMin="-8" xMax="661" yMax="835">
      <contour>
        <pt x="267" y="227" on="1"/>
        <pt x="262" y="205" on="0"/>
        <pt x="256" y="173" on="0"/>
        <pt x="256" y="159" on="1"/>
        <pt x="256" y="124" on="0"/>
        <pt x="305" y="82" on="0"/>
        <pt x="353" y="82" on="1"/>
        <pt x="388" y="82" on="0"/>
        <pt x="433" y="106" on="0"/>
        <pt x="462" y="146" on="0"/>
        <pt x="479" y="198" on="0"/>
        <pt x="485" y="227" on="1"/>
        <pt x="570" y="635" on="1"/>
        <pt x="661" y="635" on="1"/>
        <pt x="574" y="225" on="1"/>
        <pt x="564" y="177" on="0"/>
        <pt x="526" y="93" on="0"/>
        <pt x="455" y="29" on="0"/>
        <pt x="343" y="-8" on="0"/>
        <pt x="260" y="-8" on="1"/>
        <pt x="145" y="-8" on="0"/>
        <pt x="35" y="67" on="0"/>
        <pt x="35" y="145" on="1"/>
        <pt x="35" y="180" on="0"/>
        <pt x="53" y="288" on="0"/>
        <pt x="67" y="351" on="1"/>
        <pt x="128" y="635" on="1"/>
        <pt x="355" y="635" on="1"/>
      </contour>
      <contour>
        <pt x="353" y="835" on="1"/>
        <pt x="389" y="835" on="0"/>
        <pt x="423" y="794" on="0"/>
        <pt x="423" y="765" on="1"/>
        <pt x="423" y="733" on="0"/>
        <pt x="382" y="682" on="0"/>
        <pt x="342" y="682" on="1"/>
        <pt x="305" y="682" on="0"/>
        <pt x="271" y="723" on="0"/>
        <pt x="271" y="752" on="1"/>
        <pt x="271" y="784" on="0"/>
        <pt x="313" y="835" on="0"/>
      </contour>
      <contour>
        <pt x="565" y="835" on="1"/>
        <pt x="602" y="835" on="0"/>
        <pt x="636" y="794" on="0"/>
        <pt x="636" y="765" on="1"/>
        <pt x="636" y="733" on="0"/>
        <pt x="594" y="682" on="0"/>
        <pt x="554" y="682" on="1"/>
        <pt x="517" y="682" on="0"/>
        <pt x="483" y="723" on="0"/>
        <pt x="483" y="752" on="1"/>
        <pt x="483" y="784" on="0"/>
        <pt x="525" y="835" on="0"/>
      </contour>
    </TTGlyph>
    <TTGlyph name="Udotbelow" xMin="35" yMin="-218" xMax="661" yMax="635">
      <contour>
        <pt x="267" y="227" on="1"/>
        <pt x="262" y="205" on="0"/>
        <pt x="256" y="173" on="0"/>
        <pt x="256" y="159" on="1"/>
        <pt x="256" y="124" on="0"/>
        <pt x="305" y="82" on="0"/>
        <pt x="353" y="82" on="1"/>
        <pt x="388" y="82" on="0"/>
        <pt x="433" y="106" on="0"/>
        <pt x="462" y="146" on="0"/>
        <pt x="479" y="198" on="0"/>
        <pt x="485" y="227" on="1"/>
        <pt x="570" y="635" on="1"/>
        <pt x="661" y="635" on="1"/>
        <pt x="574" y="225" on="1"/>
        <pt x="564" y="177" on="0"/>
        <pt x="526" y="93" on="0"/>
        <pt x="455" y="29" on="0"/>
        <pt x="343" y="-8" on="0"/>
        <pt x="260" y="-8" on="1"/>
        <pt x="145" y="-8" on="0"/>
        <pt x="35" y="67" on="0"/>
        <pt x="35" y="145" on="1"/>
        <pt x="35" y="180" on="0"/>
        <pt x="53" y="288" on="0"/>
        <pt x="67" y="351" on="1"/>
        <pt x="128" y="635" on="1"/>
        <pt x="355" y="635" on="1"/>
      </contour>
      <contour>
        <pt x="331" y="-144" on="1"/>
        <pt x="331" y="-162" on="0"/>
        <pt x="316" y="-190" on="0"/>
        <pt x="291" y="-208" on="0"/>
        <pt x="258" y="-218" on="0"/>
        <pt x="241" y="-218" on="1"/>
        <pt x="209" y="-218" on="0"/>
        <pt x="164" y="-188" on="0"/>
        <pt x="164" y="-154" on="1"/>
        <pt x="164" y="-118" on="0"/>
        <pt x="219" y="-81" on="0"/>
        <pt x="255" y="-81" on="1"/>
        <pt x="287" y="-81" on="0"/>
        <pt x="331" y="-111" on="0"/>
      </contour>
    </TTGlyph>
    <TTGlyph name="Ugrave" xMin="35" yMin="-8" xMax="661" yMax="839">
      <contour>
        <pt x="267" y="227" on="1"/>
        <pt x="262" y="205" on="0"/>
        <pt x="256" y="173" on="0"/>
        <pt x="256" y="159" on="1"/>
        <pt x="256" y="124" on="0"/>
        <pt x="305" y="82" on="0"/>
        <pt x="353" y="82" on="1"/>
        <pt x="388" y="82" on="0"/>
        <pt x="433" y="106" on="0"/>
        <pt x="462" y="146" on="0"/>
        <pt x="479" y="198" on="0"/>
        <pt x="485" y="227" on="1"/>
        <pt x="570" y="635" on="1"/>
        <pt x="661" y="635" on="1"/>
        <pt x="574" y="225" on="1"/>
        <pt x="564" y="177" on="0"/>
        <pt x="526" y="93" on="0"/>
        <pt x="455" y="29" on="0"/>
        <pt x="343" y="-8" on="0"/>
        <pt x="260" y="-8" on="1"/>
        <pt x="145" y="-8" on="0"/>
        <pt x="35" y="67" on="0"/>
        <pt x="35" y="145" on="1"/>
        <pt x="35" y="180" on="0"/>
        <pt x="53" y="288" on="0"/>
        <pt x="67" y="351" on="1"/>
        <pt x="128" y="635" on="1"/>
        <pt x="355" y="635" on="1"/>
      </contour>
      <contour>
        <pt x="218" y="839" on="1"/>
        <pt x="391" y="839" on="1"/>
        <pt x="496" y="693" on="1"/>
        <pt x="403" y="693" on="1"/>
      </contour>
    </TTGlyph>
    <TTGlyph name="Uhungarumlaut" xMin="35" yMin="-8" xMax="770" yMax="839">
      <contour>
        <pt x="267" y="227" on="1"/>
        <pt x="262" y="205" on="0"/>
        <pt x="256" y="173" on="0"/>
        <pt x="256" y="159" on="1"/>
        <pt x="256" y="124" on="0"/>
        <pt x="305" y="82" on="0"/>
        <pt x="353" y="82" on="1"/>
        <pt x="388" y="82" on="0"/>
        <pt x="433" y="106" on="0"/>
        <pt x="462" y="146" on="0"/>
        <pt x="479" y="198" on="0"/>
        <pt x="485" y="227" on="1"/>
        <pt x="570" y="635" on="1"/>
        <pt x="661" y="635" on="1"/>
        <pt x="574" y="225" on="1"/>
        <pt x="564" y="177" on="0"/>
        <pt x="526" y="93" on="0"/>
        <pt x="455" y="29" on="0"/>
        <pt x="343" y="-8" on="0"/>
        <pt x="260" y="-8" on="1"/>
        <pt x="145" y="-8" on="0"/>
        <pt x="35" y="67" on="0"/>
        <pt x="35" y="145" on="1"/>
        <pt x="35" y="180" on="0"/>
        <pt x="53" y="288" on="0"/>
        <pt x="67" y="351" on="1"/>
        <pt x="128" y="635" on="1"/>
        <pt x="355" y="635" on="1"/>
      </contour>
      <contour>
        <pt x="252" y="693" on="1"/>
        <pt x="365" y="839" on="1"/>
        <pt x="537" y="839" on="1"/>
        <pt x="338" y="693" on="1"/>
      </contour>
      <contour>
        <pt x="485" y="693" on="1"/>
        <pt x="598" y="839" on="1"/>
        <pt x="770" y="839" on="1"/>
        <pt x="571" y="693" on="1"/>
      </contour>
    </TTGlyph>
    <TTGlyph name="Umacron" xMin="35" yMin="-8" xMax="661" yMax="807">
      <contour>
        <pt x="267" y="227" on="1"/>
        <pt x="262" y="205" on="0"/>
        <pt x="256" y="173" on="0"/>
        <pt x="256" y="159" on="1"/>
        <pt x="256" y="124" on="0"/>
        <pt x="305" y="82" on="0"/>
        <pt x="353" y="82" on="1"/>
        <pt x="388" y="82" on="0"/>
        <pt x="433" y="106" on="0"/>
        <pt x="462" y="146" on="0"/>
        <pt x="479" y="198" on="0"/>
        <pt x="485" y="227" on="1"/>
        <pt x="570" y="635" on="1"/>
        <pt x="661" y="635" on="1"/>
        <pt x="574" y="225" on="1"/>
        <pt x="564" y="177" on="0"/>
        <pt x="526" y="93" on="0"/>
        <pt x="455" y="29" on="0"/>
        <pt x="343" y="-8" on="0"/>
        <pt x="260" y="-8" on="1"/>
        <pt x="145" y="-8" on="0"/>
        <pt x="35" y="67" on="0"/>
        <pt x="35" y="145" on="1"/>
        <pt x="35" y="180" on="0"/>
        <pt x="53" y="288" on="0"/>
        <pt x="67" y="351" on="1"/>
        <pt x="128" y="635" on="1"/>
        <pt x="355" y="635" on="1"/>
      </contour>
      <contour>
        <pt x="282" y="807" on="1"/>
        <pt x="637" y="807" on="1"/>
        <pt x="619" y="730" on="1"/>
        <pt x="263" y="730" on="1"/>
      </contour>
    </TTGlyph>
    <TTGlyph name="Uogonek" xMin="35" yMin="-204" xMax="661" yMax="635">
      <contour>
        <pt x="267" y="227" on="1"/>
        <pt x="262" y="205" on="0"/>
        <pt x="256" y="173" on="0"/>
        <pt x="256" y="159" on="1"/>
        <pt x="256" y="124" on="0"/>
        <pt x="305" y="82" on="0"/>
        <pt x="353" y="82" on="1"/>
        <pt x="388" y="82" on="0"/>
        <pt x="433" y="106" on="0"/>
        <pt x="462" y="146" on="0"/>
        <pt x="479" y="198" on="0"/>
        <pt x="485" y="227" on="1"/>
        <pt x="570" y="635" on="1"/>
        <pt x="661" y="635" on="1"/>
        <pt x="574" y="225" on="1"/>
        <pt x="565" y="181" on="0"/>
        <pt x="530" y="101" on="0"/>
        <pt x="469" y="39" on="0"/>
        <pt x="374" y="-1" on="0"/>
        <pt x="304" y="-6" on="1"/>
        <pt x="278" y="-23" on="0"/>
        <pt x="235" y="-71" on="0"/>
        <pt x="235" y="-100" on="1"/>
        <pt x="235" y="-120" on="0"/>
        <pt x="253" y="-138" on="0"/>
        <pt x="266" y="-138" on="1"/>
        <pt x="275" y="-138" on="0"/>
        <pt x="300" y="-127" on="0"/>
        <pt x="318" y="-112" on="1"/>
        <pt x="341" y="-154" on="1"/>
        <pt x="311" y="-179" on="0"/>
        <pt x="231" y="-204" on="0"/>
        <pt x="193" y="-204" on="1"/>
        <pt x="107" y="-204" on="0"/>
        <pt x="107" y="-130" on="1"/>
        <pt x="107" y="-106" on="0"/>
        <pt x="124" y="-68" on="0"/>
        <pt x="152" y="-38" on="0"/>
        <pt x="188" y="-14" on="0"/>
        <pt x="206" y="-5" on="1"/>
        <pt x="118" y="3" on="0"/>
        <pt x="35" y="77" on="0"/>
        <pt x="35" y="145" on="1"/>
        <pt x="35" y="180" on="0"/>
        <pt x="53" y="288" on="0"/>
        <pt x="67" y="351" on="1"/>
        <pt x="128" y="635" on="1"/>
        <pt x="355" y="635" on="1"/>
      </contour>
    </TTGlyph>
    <TTGlyph name="Uring" xMin="35" yMin="-8" xMax="661" yMax="855">
      <contour>
        <pt x="267" y="227" on="1"/>
        <pt x="262" y="205" on="0"/>
        <pt x="256" y="173" on="0"/>
        <pt x="256" y="159" on="1"/>
        <pt x="256" y="124" on="0"/>
        <pt x="305" y="82" on="0"/>
        <pt x="353" y="82" on="1"/>
        <pt x="388" y="82" on="0"/>
        <pt x="433" y="106" on="0"/>
        <pt x="462" y="146" on="0"/>
        <pt x="479" y="198" on="0"/>
        <pt x="485" y="227" on="1"/>
        <pt x="570" y="635" on="1"/>
        <pt x="661" y="635" on="1"/>
        <pt x="574" y="225" on="1"/>
        <pt x="564" y="177" on="0"/>
        <pt x="526" y="93" on="0"/>
        <pt x="455" y="29" on="0"/>
        <pt x="343" y="-8" on="0"/>
        <pt x="260" y="-8" on="1"/>
        <pt x="145" y="-8" on="0"/>
        <pt x="35" y="67" on="0"/>
        <pt x="35" y="145" on="1"/>
        <pt x="35" y="180" on="0"/>
        <pt x="53" y="288" on="0"/>
        <pt x="67" y="351" on="1"/>
        <pt x="128" y="635" on="1"/>
        <pt x="355" y="635" on="1"/>
      </contour>
      <contour>
        <pt x="552" y="775" on="1"/>
        <pt x="552" y="755" on="0"/>
        <pt x="535" y="721" on="0"/>
        <pt x="508" y="696" on="0"/>
        <pt x="472" y="682" on="0"/>
        <pt x="453" y="682" on="1"/>
        <pt x="417" y="682" on="0"/>
        <pt x="369" y="726" on="0"/>
        <pt x="369" y="763" on="1"/>
        <pt x="369" y="783" on="0"/>
        <pt x="385" y="817" on="0"/>
        <pt x="413" y="841" on="0"/>
        <pt x="448" y="855" on="0"/>
        <pt x="468" y="855" on="1"/>
        <pt x="504" y="855" on="0"/>
        <pt x="552" y="810" on="0"/>
      </contour>
      <contour>
        <pt x="494" y="771" on="1"/>
        <pt x="494" y="784" on="0"/>
        <pt x="476" y="799" on="0"/>
        <pt x="463" y="799" on="1"/>
        <pt x="449" y="799" on="0"/>
        <pt x="426" y="781" on="0"/>
        <pt x="426" y="766" on="1"/>
        <pt x="426" y="753" on="0"/>
        <pt x="444" y="736" on="0"/>
        <pt x="457" y="736" on="1"/>
        <pt x="471" y="736" on="0"/>
        <pt x="494" y="756" on="0"/>
      </contour>
    </TTGlyph>
    <TTGlyph name="Utilde" xMin="35" yMin="-8" xMax="661" yMax="844">
      <contour>
        <pt x="267" y="227" on="1"/>
        <pt x="262" y="205" on="0"/>
        <pt x="256" y="173" on="0"/>
        <pt x="256" y="159" on="1"/>
        <pt x="256" y="124" on="0"/>
        <pt x="305" y="82" on="0"/>
        <pt x="353" y="82" on="1"/>
        <pt x="388" y="82" on="0"/>
        <pt x="433" y="106" on="0"/>
        <pt x="462" y="146" on="0"/>
        <pt x="479" y="198" on="0"/>
        <pt x="485" y="227" on="1"/>
        <pt x="570" y="635" on="1"/>
        <pt x="661" y="635" on="1"/>
        <pt x="574" y="225" on="1"/>
        <pt x="564" y="177" on="0"/>
        <pt x="526" y="93" on="0"/>
        <pt x="455" y="29" on="0"/>
        <pt x="343" y="-8" on="0"/>
        <pt x="260" y="-8" on="1"/>
        <pt x="145" y="-8" on="0"/>
        <pt x="35" y="67" on="0"/>
        <pt x="35" y="145" on="1"/>
        <pt x="35" y="180" on="0"/>
        <pt x="53" y="288" on="0"/>
        <pt x="67" y="351" on="1"/>
        <pt x="128" y="635" on="1"/>
        <pt x="355" y="635" on="1"/>
      </contour>
      <contour>
        <pt x="648" y="819" on="1"/>
        <pt x="618" y="764" on="0"/>
        <pt x="558" y="710" on="0"/>
        <pt x="513" y="710" on="1"/>
        <pt x="495" y="710" on="0"/>
        <pt x="446" y="722" on="0"/>
        <pt x="395" y="735" on="0"/>
        <pt x="350" y="747" on="0"/>
        <pt x="336" y="747" on="1"/>
        <pt x="318" y="747" on="0"/>
        <pt x="280" y="723" on="0"/>
        <pt x="271" y="712" on="1"/>
        <pt x="238" y="741" on="1"/>
        <pt x="269" y="792" on="0"/>
        <pt x="332" y="844" on="0"/>
        <pt x="375" y="844" on="1"/>
        <pt x="391" y="844" on="0"/>
        <pt x="438" y="834" on="0"/>
        <pt x="487" y="821" on="0"/>
        <pt x="533" y="811" on="0"/>
        <pt x="548" y="811" on="1"/>
        <pt x="562" y="811" on="0"/>
        <pt x="601" y="830" on="0"/>
        <pt x="613" y="844" on="1"/>
      </contour>
    </TTGlyph>
    <TTGlyph name="V" xMin="82" yMin="0" xMax="651" yMax="635">
      <contour>
        <pt x="82" y="635" on="1"/>
        <pt x="310" y="635" on="1"/>
        <pt x="344" y="205" on="1"/>
        <pt x="552" y="635" on="1"/>
        <pt x="651" y="635" on="1"/>
        <pt x="355" y="0" on="1"/>
        <pt x="119" y="0" on="1"/>
      </contour>
    </TTGlyph>
    <TTGlyph name="W" xMin="78" yMin="0" xMax="1003" yMax="635">
      <contour>
        <pt x="78" y="635" on="1"/>
        <pt x="322" y="635" on="1"/>
        <pt x="339" y="202" on="1"/>
        <pt x="506" y="635" on="1"/>
        <pt x="704" y="635" on="1"/>
        <pt x="730" y="202" on="1"/>
        <pt x="898" y="635" on="1"/>
        <pt x="1003" y="635" on="1"/>
        <pt x="756" y="0" on="1"/>
        <pt x="531" y="0" on="1"/>
        <pt x="510" y="359" on="1"/>
        <pt x="360" y="0" on="1"/>
        <pt x="120" y="0" on="1"/>
      </contour>
    </TTGlyph>
    <TTGlyph name="Wacute" xMin="78" yMin="0" xMax="1003" yMax="839">
      <contour>
        <pt x="78" y="635" on="1"/>
        <pt x="322" y="635" on="1"/>
        <pt x="339" y="202" on="1"/>
        <pt x="506" y="635" on="1"/>
        <pt x="704" y="635" on="1"/>
        <pt x="730" y="202" on="1"/>
        <pt x="898" y="635" on="1"/>
        <pt x="1003" y="635" on="1"/>
        <pt x="756" y="0" on="1"/>
        <pt x="531" y="0" on="1"/>
        <pt x="510" y="359" on="1"/>
        <pt x="360" y="0" on="1"/>
        <pt x="120" y="0" on="1"/>
      </contour>
      <contour>
        <pt x="563" y="693" on="1"/>
        <pt x="656" y="839" on="1"/>
        <pt x="828" y="839" on="1"/>
        <pt x="649" y="693" on="1"/>
      </contour>
    </TTGlyph>
    <TTGlyph name="Wcircumflex" xMin="78" yMin="0" xMax="1003" yMax="839">
      <contour>
        <pt x="78" y="635" on="1"/>
        <pt x="322" y="635" on="1"/>
        <pt x="339" y="202" on="1"/>
        <pt x="506" y="635" on="1"/>
        <pt x="704" y="635" on="1"/>
        <pt x="730" y="202" on="1"/>
        <pt x="898" y="635" on="1"/>
        <pt x="1003" y="635" on="1"/>
        <pt x="756" y="0" on="1"/>
        <pt x="531" y="0" on="1"/>
        <pt x="510" y="359" on="1"/>
        <pt x="360" y="0" on="1"/>
        <pt x="120" y="0" on="1"/>
      </contour>
      <contour>
        <pt x="435" y="693" on="1"/>
        <pt x="581" y="839" on="1"/>
        <pt x="730" y="839" on="1"/>
        <pt x="813" y="693" on="1"/>
        <pt x="737" y="693" on="1"/>
        <pt x="654" y="786" on="1"/>
        <pt x="521" y="693" on="1"/>
      </contour>
    </TTGlyph>
    <TTGlyph name="Wdieresis" xMin="78" yMin="0" xMax="1003" yMax="835">
      <contour>
        <pt x="78" y="635" on="1"/>
        <pt x="322" y="635" on="1"/>
        <pt x="339" y="202" on="1"/>
        <pt x="506" y="635" on="1"/>
        <pt x="704" y="635" on="1"/>
        <pt x="730" y="202" on="1"/>
        <pt x="898" y="635" on="1"/>
        <pt x="1003" y="635" on="1"/>
        <pt x="756" y="0" on="1"/>
        <pt x="531" y="0" on="1"/>
        <pt x="510" y="359" on="1"/>
        <pt x="360" y="0" on="1"/>
        <pt x="120" y="0" on="1"/>
      </contour>
      <contour>
        <pt x="534" y="835" on="1"/>
        <pt x="570" y="835" on="0"/>
        <pt x="604" y="794" on="0"/>
        <pt x="604" y="765" on="1"/>
        <pt x="604" y="733" on="0"/>
        <pt x="563" y="682" on="0"/>
        <pt x="523" y="682" on="1"/>
        <pt x="486" y="682" on="0"/>
        <pt x="452" y="723" on="0"/>
        <pt x="452" y="752" on="1"/>
        <pt x="452" y="784" on="0"/>
        <pt x="494" y="835" on="0"/>
      </contour>
      <contour>
        <pt x="746" y="835" on="1"/>
        <pt x="783" y="835" on="0"/>
        <pt x="817" y="794" on="0"/>
        <pt x="817" y="765" on="1"/>
        <pt x="817" y="733" on="0"/>
        <pt x="775" y="682" on="0"/>
        <pt x="735" y="682" on="1"/>
        <pt x="698" y="682" on="0"/>
        <pt x="664" y="723" on="0"/>
        <pt x="664" y="752" on="1"/>
        <pt x="664" y="784" on="0"/>
        <pt x="706" y="835" on="0"/>
      </contour>
    </TTGlyph>
    <TTGlyph name="Wgrave" xMin="78" yMin="0" xMax="1003" yMax="839">
      <contour>
        <pt x="78" y="635" on="1"/>
        <pt x="322" y="635" on="1"/>
        <pt x="339" y="202" on="1"/>
        <pt x="506" y="635" on="1"/>
        <pt x="704" y="635" on="1"/>
        <pt x="730" y="202" on="1"/>
        <pt x="898" y="635" on="1"/>
        <pt x="1003" y="635" on="1"/>
        <pt x="756" y="0" on="1"/>
        <pt x="531" y="0" on="1"/>
        <pt x="510" y="359" on="1"/>
        <pt x="360" y="0" on="1"/>
        <pt x="120" y="0" on="1"/>
      </contour>
      <contour>
        <pt x="392" y="839" on="1"/>
        <pt x="565" y="839" on="1"/>
        <pt x="670" y="693" on="1"/>
        <pt x="577" y="693" on="1"/>
      </contour>
    </TTGlyph>
    <TTGlyph name="X" xMin="-34" yMin="0" xMax="660" yMax="635">
      <contour>
        <pt x="387" y="435" on="1"/>
        <pt x="540" y="635" on="1"/>
        <pt x="660" y="635" on="1"/>
        <pt x="423" y="350" on="1"/>
        <pt x="572" y="0" on="1"/>
        <pt x="325" y="0" on="1"/>
        <pt x="240" y="199" on="1"/>
        <pt x="86" y="0" on="1"/>
        <pt x="-34" y="0" on="1"/>
        <pt x="202" y="289" on="1"/>
        <pt x="55" y="635" on="1"/>
        <pt x="302" y="635" on="1"/>
      </contour>
    </TTGlyph>
    <TTGlyph name="Y" xMin="78" yMin="0" xMax="644" yMax="635">
      <contour>
        <pt x="389" y="240" on="1"/>
        <pt x="338" y="0" on="1"/>
        <pt x="121" y="0" on="1"/>
        <pt x="176" y="257" on="1"/>
        <pt x="78" y="635" on="1"/>
        <pt x="318" y="635" on="1"/>
        <pt x="386" y="384" on="1"/>
        <pt x="536" y="635" on="1"/>
        <pt x="644" y="635" on="1"/>
      </contour>
    </TTGlyph>
    <TTGlyph name="Yacute" xMin="78" yMin="0" xMax="644" yMax="839">
      <contour>
        <pt x="389" y="240" on="1"/>
        <pt x="338" y="0" on="1"/>
        <pt x="121" y="0" on="1"/>
        <pt x="176" y="257" on="1"/>
        <pt x="78" y="635" on="1"/>
        <pt x="318" y="635" on="1"/>
        <pt x="386" y="384" on="1"/>
        <pt x="536" y="635" on="1"/>
        <pt x="644" y="635" on="1"/>
      </contour>
      <contour>
        <pt x="357" y="693" on="1"/>
        <pt x="450" y="839" on="1"/>
        <pt x="622" y="839" on="1"/>
        <pt x="443" y="693" on="1"/>
      </contour>
    </TTGlyph>
    <TTGlyph name="Ycircumflex" xMin="78" yMin="0" xMax="644" yMax="839">
      <contour>
        <pt x="389" y="240" on="1"/>
        <pt x="338" y="0" on="1"/>
        <pt x="121" y="0" on="1"/>
        <pt x="176" y="257" on="1"/>
        <pt x="78" y="635" on="1"/>
        <pt x="318" y="635" on="1"/>
        <pt x="386" y="384" on="1"/>
        <pt x="536" y="635" on="1"/>
        <pt x="644" y="635" on="1"/>
      </contour>
      <contour>
        <pt x="229" y="693" on="1"/>
        <pt x="375" y="839" on="1"/>
        <pt x="524" y="839" on="1"/>
        <pt x="607" y="693" on="1"/>
        <pt x="531" y="693" on="1"/>
        <pt x="448" y="786" on="1"/>
        <pt x="315" y="693" on="1"/>
      </contour>
    </TTGlyph>
    <TTGlyph name="Ydieresis" xMin="78" yMin="0" xMax="644" yMax="835">
      <contour>
        <pt x="389" y="240" on="1"/>
        <pt x="338" y="0" on="1"/>
        <pt x="121" y="0" on="1"/>
        <pt x="176" y="257" on="1"/>
        <pt x="78" y="635" on="1"/>
        <pt x="318" y="635" on="1"/>
        <pt x="386" y="384" on="1"/>
        <pt x="536" y="635" on="1"/>
        <pt x="644" y="635" on="1"/>
      </contour>
      <contour>
        <pt x="329" y="835" on="1"/>
        <pt x="365" y="835" on="0"/>
        <pt x="399" y="794" on="0"/>
        <pt x="399" y="765" on="1"/>
        <pt x="399" y="733" on="0"/>
        <pt x="358" y="682" on="0"/>
        <pt x="318" y="682" on="1"/>
        <pt x="281" y="682" on="0"/>
        <pt x="247" y="723" on="0"/>
        <pt x="247" y="752" on="1"/>
        <pt x="247" y="784" on="0"/>
        <pt x="289" y="835" on="0"/>
      </contour>
      <contour>
        <pt x="541" y="835" on="1"/>
        <pt x="578" y="835" on="0"/>
        <pt x="612" y="794" on="0"/>
        <pt x="612" y="765" on="1"/>
        <pt x="612" y="733" on="0"/>
        <pt x="570" y="682" on="0"/>
        <pt x="530" y="682" on="1"/>
        <pt x="493" y="682" on="0"/>
        <pt x="459" y="723" on="0"/>
        <pt x="459" y="752" on="1"/>
        <pt x="459" y="784" on="0"/>
        <pt x="501" y="835" on="0"/>
      </contour>
    </TTGlyph>
    <TTGlyph name="Ygrave" xMin="78" yMin="0" xMax="644" yMax="839">
      <contour>
        <pt x="389" y="240" on="1"/>
        <pt x="338" y="0" on="1"/>
        <pt x="121" y="0" on="1"/>
        <pt x="176" y="257" on="1"/>
        <pt x="78" y="635" on="1"/>
        <pt x="318" y="635" on="1"/>
        <pt x="386" y="384" on="1"/>
        <pt x="536" y="635" on="1"/>
        <pt x="644" y="635" on="1"/>
      </contour>
      <contour>
        <pt x="186" y="839" on="1"/>
        <pt x="359" y="839" on="1"/>
        <pt x="464" y="693" on="1"/>
        <pt x="371" y="693" on="1"/>
      </contour>
    </TTGlyph>
    <TTGlyph name="Ytilde" xMin="78" yMin="0" xMax="646" yMax="844">
      <contour>
        <pt x="389" y="240" on="1"/>
        <pt x="338" y="0" on="1"/>
        <pt x="121" y="0" on="1"/>
        <pt x="176" y="257" on="1"/>
        <pt x="78" y="635" on="1"/>
        <pt x="318" y="635" on="1"/>
        <pt x="386" y="384" on="1"/>
        <pt x="536" y="635" on="1"/>
        <pt x="644" y="635" on="1"/>
      </contour>
      <contour>
        <pt x="646" y="819" on="1"/>
        <pt x="616" y="764" on="0"/>
        <pt x="556" y="710" on="0"/>
        <pt x="511" y="710" on="1"/>
        <pt x="493" y="710" on="0"/>
        <pt x="444" y="722" on="0"/>
        <pt x="393" y="735" on="0"/>
        <pt x="348" y="747" on="0"/>
        <pt x="334" y="747" on="1"/>
        <pt x="316" y="747" on="0"/>
        <pt x="278" y="723" on="0"/>
        <pt x="269" y="712" on="1"/>
        <pt x="236" y="741" on="1"/>
        <pt x="267" y="792" on="0"/>
        <pt x="330" y="844" on="0"/>
        <pt x="373" y="844" on="1"/>
        <pt x="389" y="844" on="0"/>
        <pt x="436" y="834" on="0"/>
        <pt x="485" y="821" on="0"/>
        <pt x="531" y="811" on="0"/>
        <pt x="546" y="811" on="1"/>
        <pt x="560" y="811" on="0"/>
        <pt x="599" y="830" on="0"/>
        <pt x="611" y="844" on="1"/>
      </contour>
    </TTGlyph>
    <TTGlyph name="Z" xMin="-21" yMin="0" xMax="583" yMax="635">
      <contour>
        <pt x="-3" y="91" on="1"/>
        <pt x="326" y="559" on="1"/>
        <pt x="74" y="559" on="1"/>
        <pt x="89" y="635" on="1"/>
        <pt x="583" y="635" on="1"/>
        <pt x="574" y="550" on="1"/>
        <pt x="248" y="76" on="1"/>
        <pt x="511" y="76" on="1"/>
        <pt x="497" y="0" on="1"/>
        <pt x="-21" y="0" on="1"/>
      </contour>
    </TTGlyph>
    <TTGlyph name="Zacute" xMin="-21" yMin="0" xMax="583" yMax="839">
      <contour>
        <pt x="-3" y="91" on="1"/>
        <pt x="326" y="559" on="1"/>
        <pt x="74" y="559" on="1"/>
        <pt x="89" y="635" on="1"/>
        <pt x="583" y="635" on="1"/>
        <pt x="574" y="550" on="1"/>
        <pt x="248" y="76" on="1"/>
        <pt x="511" y="76" on="1"/>
        <pt x="497" y="0" on="1"/>
        <pt x="-21" y="0" on="1"/>
      </contour>
      <contour>
        <pt x="301" y="693" on="1"/>
        <pt x="394" y="839" on="1"/>
        <pt x="566" y="839" on="1"/>
        <pt x="387" y="693" on="1"/>
      </contour>
    </TTGlyph>
    <TTGlyph name="Zcaron" xMin="-21" yMin="0" xMax="601" yMax="839">
      <contour>
        <pt x="-3" y="91" on="1"/>
        <pt x="326" y="559" on="1"/>
        <pt x="74" y="559" on="1"/>
        <pt x="89" y="635" on="1"/>
        <pt x="583" y="635" on="1"/>
        <pt x="574" y="550" on="1"/>
        <pt x="248" y="76" on="1"/>
        <pt x="511" y="76" on="1"/>
        <pt x="497" y="0" on="1"/>
        <pt x="-21" y="0" on="1"/>
      </contour>
      <contour>
        <pt x="601" y="839" on="1"/>
        <pt x="455" y="693" on="1"/>
        <pt x="306" y="693" on="1"/>
        <pt x="223" y="839" on="1"/>
        <pt x="300" y="839" on="1"/>
        <pt x="383" y="747" on="1"/>
        <pt x="515" y="839" on="1"/>
      </contour>
    </TTGlyph>
    <TTGlyph name="Zdotaccent" xMin="-21" yMin="0" xMax="583" yMax="843">
      <contour>
        <pt x="-3" y="91" on="1"/>
        <pt x="326" y="559" on="1"/>
        <pt x="74" y="559" on="1"/>
        <pt x="89" y="635" on="1"/>
        <pt x="583" y="635" on="1"/>
        <pt x="574" y="550" on="1"/>
        <pt x="248" y="76" on="1"/>
        <pt x="511" y="76" on="1"/>
        <pt x="497" y="0" on="1"/>
        <pt x="-21" y="0" on="1"/>
      </contour>
      <contour>
        <pt x="483" y="765" on="1"/>
        <pt x="483" y="742" on="0"/>
        <pt x="464" y="708" on="0"/>
        <pt x="433" y="684" on="0"/>
        <pt x="393" y="672" on="0"/>
        <pt x="372" y="672" on="1"/>
        <pt x="332" y="672" on="0"/>
        <pt x="278" y="710" on="0"/>
        <pt x="278" y="751" on="1"/>
        <pt x="278" y="773" on="0"/>
        <pt x="296" y="808" on="0"/>
        <pt x="327" y="831" on="0"/>
        <pt x="368" y="843" on="0"/>
        <pt x="390" y="843" on="1"/>
        <pt x="429" y="843" on="0"/>
        <pt x="483" y="805" on="0"/>
      </contour>
    </TTGlyph>
    <TTGlyph name="Zdotbelow" xMin="-21" yMin="-218" xMax="583" yMax="635">
      <contour>
        <pt x="-3" y="91" on="1"/>
        <pt x="326" y="559" on="1"/>
        <pt x="74" y="559" on="1"/>
        <pt x="89" y="635" on="1"/>
        <pt x="583" y="635" on="1"/>
        <pt x="574" y="550" on="1"/>
        <pt x="248" y="76" on="1"/>
        <pt x="511" y="76" on="1"/>
        <pt x="497" y="0" on="1"/>
        <pt x="-21" y="0" on="1"/>
      </contour>
      <contour>
        <pt x="303" y="-144" on="1"/>
        <pt x="303" y="-162" on="0"/>
        <pt x="288" y="-190" on="0"/>
        <pt x="263" y="-208" on="0"/>
        <pt x="230" y="-218" on="0"/>
        <pt x="213" y="-218" on="1"/>
        <pt x="181" y="-218" on="0"/>
        <pt x="136" y="-188" on="0"/>
        <pt x="136" y="-154" on="1"/>
        <pt x="136" y="-118" on="0"/>
        <pt x="191" y="-81" on="0"/>
        <pt x="227" y="-81" on="1"/>
        <pt x="259" y="-81" on="0"/>
        <pt x="303" y="-111" on="0"/>
      </contour>
    </TTGlyph>
    <TTGlyph name="a" xMin="-13" yMin="-8" xMax="514" yMax="441">
      <contour>
        <pt x="72" y="393" on="1"/>
        <pt x="123" y="418" on="0"/>
        <pt x="230" y="441" on="0"/>
        <pt x="296" y="441" on="1"/>
        <pt x="360" y="441" on="0"/>
        <pt x="444" y="421" on="0"/>
        <pt x="494" y="383" on="0"/>
        <pt x="514" y="331" on="0"/>
        <pt x="514" y="298" on="1"/>
        <pt x="514" y="279" on="0"/>
        <pt x="509" y="235" on="0"/>
        <pt x="506" y="220" on="1"/>
        <pt x="459" y="0" on="1"/>
        <pt x="298" y="0" on="1"/>
        <pt x="280" y="64" on="1"/>
        <pt x="274" y="64" on="1"/>
        <pt x="242" y="29" on="0"/>
        <pt x="157" y="-8" on="0"/>
        <pt x="115" y="-8" on="1"/>
        <pt x="91" y="-8" on="0"/>
        <pt x="45" y="6" on="0"/>
        <pt x="9" y="35" on="0"/>
        <pt x="-13" y="80" on="0"/>
        <pt x="-13" y="112" on="1"/>
        <pt x="-13" y="164" on="0"/>
        <pt x="44" y="225" on="0"/>
        <pt x="137" y="256" on="0"/>
        <pt x="254" y="264" on="0"/>
        <pt x="313" y="264" on="1"/>
        <pt x="315" y="274" on="0"/>
        <pt x="321" y="311" on="0"/>
        <pt x="321" y="325" on="1"/>
        <pt x="321" y="343" on="0"/>
        <pt x="302" y="374" on="0"/>
        <pt x="272" y="374" on="1"/>
        <pt x="237" y="374" on="0"/>
        <pt x="204" y="333" on="0"/>
        <pt x="199" y="304" on="1"/>
        <pt x="53" y="304" on="1"/>
      </contour>
      <contour>
        <pt x="302" y="217" on="1"/>
        <pt x="284" y="217" on="1"/>
        <pt x="255" y="217" on="0"/>
        <pt x="214" y="202" on="0"/>
        <pt x="189" y="178" on="0"/>
        <pt x="177" y="148" on="0"/>
        <pt x="177" y="133" on="1"/>
        <pt x="177" y="109" on="0"/>
        <pt x="202" y="85" on="0"/>
        <pt x="219" y="85" on="1"/>
        <pt x="240" y="85" on="0"/>
        <pt x="281" y="115" on="0"/>
        <pt x="286" y="140" on="1"/>
      </contour>
    </TTGlyph>
    <TTGlyph name="a.salt" xMin="7" yMin="-8" xMax="570" yMax="441">
      <contour>
        <pt x="570" y="430" on="1"/>
        <pt x="478" y="0" on="1"/>
        <pt x="316" y="0" on="1"/>
        <pt x="298" y="64" on="1"/>
        <pt x="290" y="64" on="1"/>
        <pt x="284" y="55" on="0"/>
        <pt x="259" y="30" on="0"/>
        <pt x="221" y="7" on="0"/>
        <pt x="169" y="-8" on="0"/>
        <pt x="135" y="-8" on="1"/>
        <pt x="100" y="-8" on="0"/>
        <pt x="51" y="13" on="0"/>
        <pt x="21" y="49" on="0"/>
        <pt x="7" y="100" on="0"/>
        <pt x="7" y="130" on="1"/>
        <pt x="7" y="143" on="0"/>
        <pt x="11" y="200" on="0"/>
        <pt x="26" y="269" on="0"/>
        <pt x="55" y="342" on="0"/>
        <pt x="103" y="402" on="0"/>
        <pt x="175" y="441" on="0"/>
        <pt x="226" y="441" on="1"/>
        <pt x="244" y="441" on="0"/>
        <pt x="283" y="435" on="0"/>
        <pt x="319" y="419" on="0"/>
        <pt x="347" y="389" on="0"/>
        <pt x="354" y="365" on="1"/>
        <pt x="362" y="365" on="1"/>
        <pt x="396" y="430" on="1"/>
      </contour>
      <contour>
        <pt x="294" y="343" on="1"/>
        <pt x="270" y="343" on="0"/>
        <pt x="238" y="290" on="0"/>
        <pt x="218" y="220" on="0"/>
        <pt x="209" y="150" on="0"/>
        <pt x="209" y="133" on="1"/>
        <pt x="209" y="113" on="0"/>
        <pt x="221" y="86" on="0"/>
        <pt x="238" y="86" on="1"/>
        <pt x="258" y="86" on="0"/>
        <pt x="292" y="116" on="0"/>
        <pt x="300" y="127" on="1"/>
        <pt x="339" y="309" on="1"/>
        <pt x="331" y="320" on="0"/>
        <pt x="309" y="343" on="0"/>
      </contour>
    </TTGlyph>
    <TTGlyph name="aacute" xMin="-13" yMin="-8" xMax="534" yMax="635">
      <contour>
        <pt x="72" y="393" on="1"/>
        <pt x="123" y="418" on="0"/>
        <pt x="230" y="441" on="0"/>
        <pt x="296" y="441" on="1"/>
        <pt x="360" y="441" on="0"/>
        <pt x="444" y="421" on="0"/>
        <pt x="494" y="383" on="0"/>
        <pt x="514" y="331" on="0"/>
        <pt x="514" y="298" on="1"/>
        <pt x="514" y="279" on="0"/>
        <pt x="509" y="235" on="0"/>
        <pt x="506" y="220" on="1"/>
        <pt x="459" y="0" on="1"/>
        <pt x="298" y="0" on="1"/>
        <pt x="280" y="64" on="1"/>
        <pt x="274" y="64" on="1"/>
        <pt x="242" y="29" on="0"/>
        <pt x="157" y="-8" on="0"/>
        <pt x="115" y="-8" on="1"/>
        <pt x="91" y="-8" on="0"/>
        <pt x="45" y="6" on="0"/>
        <pt x="9" y="35" on="0"/>
        <pt x="-13" y="80" on="0"/>
        <pt x="-13" y="112" on="1"/>
        <pt x="-13" y="164" on="0"/>
        <pt x="44" y="225" on="0"/>
        <pt x="137" y="256" on="0"/>
        <pt x="254" y="264" on="0"/>
        <pt x="313" y="264" on="1"/>
        <pt x="315" y="274" on="0"/>
        <pt x="321" y="311" on="0"/>
        <pt x="321" y="325" on="1"/>
        <pt x="321" y="343" on="0"/>
        <pt x="302" y="374" on="0"/>
        <pt x="272" y="374" on="1"/>
        <pt x="237" y="374" on="0"/>
        <pt x="204" y="333" on="0"/>
        <pt x="199" y="304" on="1"/>
        <pt x="53" y="304" on="1"/>
      </contour>
      <contour>
        <pt x="302" y="217" on="1"/>
        <pt x="284" y="217" on="1"/>
        <pt x="255" y="217" on="0"/>
        <pt x="214" y="202" on="0"/>
        <pt x="189" y="178" on="0"/>
        <pt x="177" y="148" on="0"/>
        <pt x="177" y="133" on="1"/>
        <pt x="177" y="109" on="0"/>
        <pt x="202" y="85" on="0"/>
        <pt x="219" y="85" on="1"/>
        <pt x="240" y="85" on="0"/>
        <pt x="281" y="115" on="0"/>
        <pt x="286" y="140" on="1"/>
      </contour>
      <contour>
        <pt x="269" y="489" on="1"/>
        <pt x="362" y="635" on="1"/>
        <pt x="534" y="635" on="1"/>
        <pt x="355" y="489" on="1"/>
      </contour>
    </TTGlyph>
    <TTGlyph name="aacute.salt" xMin="7" yMin="-8" xMax="574" yMax="635">
      <contour>
        <pt x="570" y="430" on="1"/>
        <pt x="478" y="0" on="1"/>
        <pt x="316" y="0" on="1"/>
        <pt x="298" y="64" on="1"/>
        <pt x="290" y="64" on="1"/>
        <pt x="284" y="55" on="0"/>
        <pt x="259" y="30" on="0"/>
        <pt x="221" y="7" on="0"/>
        <pt x="169" y="-8" on="0"/>
        <pt x="135" y="-8" on="1"/>
        <pt x="100" y="-8" on="0"/>
        <pt x="51" y="13" on="0"/>
        <pt x="21" y="49" on="0"/>
        <pt x="7" y="100" on="0"/>
        <pt x="7" y="130" on="1"/>
        <pt x="7" y="143" on="0"/>
        <pt x="11" y="200" on="0"/>
        <pt x="26" y="269" on="0"/>
        <pt x="55" y="342" on="0"/>
        <pt x="103" y="402" on="0"/>
        <pt x="175" y="441" on="0"/>
        <pt x="226" y="441" on="1"/>
        <pt x="244" y="441" on="0"/>
        <pt x="283" y="435" on="0"/>
        <pt x="319" y="419" on="0"/>
        <pt x="347" y="389" on="0"/>
        <pt x="354" y="365" on="1"/>
        <pt x="362" y="365" on="1"/>
        <pt x="396" y="430" on="1"/>
      </contour>
      <contour>
        <pt x="294" y="343" on="1"/>
        <pt x="270" y="343" on="0"/>
        <pt x="238" y="290" on="0"/>
        <pt x="218" y="220" on="0"/>
        <pt x="209" y="150" on="0"/>
        <pt x="209" y="133" on="1"/>
        <pt x="209" y="113" on="0"/>
        <pt x="221" y="86" on="0"/>
        <pt x="238" y="86" on="1"/>
        <pt x="258" y="86" on="0"/>
        <pt x="292" y="116" on="0"/>
        <pt x="300" y="127" on="1"/>
        <pt x="339" y="309" on="1"/>
        <pt x="331" y="320" on="0"/>
        <pt x="309" y="343" on="0"/>
      </contour>
      <contour>
        <pt x="309" y="489" on="1"/>
        <pt x="402" y="635" on="1"/>
        <pt x="574" y="635" on="1"/>
        <pt x="395" y="489" on="1"/>
      </contour>
    </TTGlyph>
    <TTGlyph name="abreve" xMin="-13" yMin="-8" xMax="514" yMax="650">
      <contour>
        <pt x="72" y="393" on="1"/>
        <pt x="123" y="418" on="0"/>
        <pt x="230" y="441" on="0"/>
        <pt x="296" y="441" on="1"/>
        <pt x="360" y="441" on="0"/>
        <pt x="444" y="421" on="0"/>
        <pt x="494" y="383" on="0"/>
        <pt x="514" y="331" on="0"/>
        <pt x="514" y="298" on="1"/>
        <pt x="514" y="279" on="0"/>
        <pt x="509" y="235" on="0"/>
        <pt x="506" y="220" on="1"/>
        <pt x="459" y="0" on="1"/>
        <pt x="298" y="0" on="1"/>
        <pt x="280" y="64" on="1"/>
        <pt x="274" y="64" on="1"/>
        <pt x="242" y="29" on="0"/>
        <pt x="157" y="-8" on="0"/>
        <pt x="115" y="-8" on="1"/>
        <pt x="91" y="-8" on="0"/>
        <pt x="45" y="6" on="0"/>
        <pt x="9" y="35" on="0"/>
        <pt x="-13" y="80" on="0"/>
        <pt x="-13" y="112" on="1"/>
        <pt x="-13" y="164" on="0"/>
        <pt x="44" y="225" on="0"/>
        <pt x="137" y="256" on="0"/>
        <pt x="254" y="264" on="0"/>
        <pt x="313" y="264" on="1"/>
        <pt x="315" y="274" on="0"/>
        <pt x="321" y="311" on="0"/>
        <pt x="321" y="325" on="1"/>
        <pt x="321" y="343" on="0"/>
        <pt x="302" y="374" on="0"/>
        <pt x="272" y="374" on="1"/>
        <pt x="237" y="374" on="0"/>
        <pt x="204" y="333" on="0"/>
        <pt x="199" y="304" on="1"/>
        <pt x="53" y="304" on="1"/>
      </contour>
      <contour>
        <pt x="302" y="217" on="1"/>
        <pt x="284" y="217" on="1"/>
        <pt x="255" y="217" on="0"/>
        <pt x="214" y="202" on="0"/>
        <pt x="189" y="178" on="0"/>
        <pt x="177" y="148" on="0"/>
        <pt x="177" y="133" on="1"/>
        <pt x="177" y="109" on="0"/>
        <pt x="202" y="85" on="0"/>
        <pt x="219" y="85" on="1"/>
        <pt x="240" y="85" on="0"/>
        <pt x="281" y="115" on="0"/>
        <pt x="286" y="140" on="1"/>
      </contour>
      <contour>
        <pt x="315" y="489" on="1"/>
        <pt x="256" y="489" on="0"/>
        <pt x="186" y="548" on="0"/>
        <pt x="176" y="614" on="1"/>
        <pt x="227" y="635" on="1"/>
        <pt x="233" y="615" on="0"/>
        <pt x="255" y="590" on="0"/>
        <pt x="282" y="576" on="0"/>
        <pt x="311" y="571" on="0"/>
        <pt x="323" y="571" on="1"/>
        <pt x="365" y="571" on="0"/>
        <pt x="442" y="615" on="0"/>
        <pt x="468" y="650" on="1"/>
        <pt x="506" y="616" on="1"/>
        <pt x="468" y="547" on="0"/>
        <pt x="372" y="489" on="0"/>
      </contour>
    </TTGlyph>
</ttFont>
